<svg xmlns="http://www.w3.org/2000/svg" xmlns:xlink="http://www.w3.org/1999/xlink" width="500" zoomAndPan="magnify" viewBox="0 0 375 374.999991" height="500" preserveAspectRatio="xMidYMid meet" version="1.0"><defs><clipPath id="8c5fdc9a9c"><path d="M 20.082031 38 L 335 38 L 335 344.234375 L 20.082031 344.234375 Z M 20.082031 38 " clip-rule="nonzero"/></clipPath><clipPath id="4db7f558a4"><path d="M 43 280 L 53 280 L 53 344.234375 L 43 344.234375 Z M 43 280 " clip-rule="nonzero"/></clipPath></defs><g clip-path="url(#8c5fdc9a9c)"><path fill="#100f0d" d="M 216.007812 153.742188 C 215.664062 153.945312 215.351562 154.191406 215.085938 154.476562 C 206.230469 161.558594 195.570312 168.839844 182.722656 176.222656 C 175.972656 172.34375 169.832031 168.492188 164.230469 164.679688 C 164.039062 164.523438 163.835938 164.386719 163.617188 164.265625 C 150.097656 155.007812 139.8125 146.011719 132.023438 137.507812 C 131.746094 137.050781 131.386719 136.648438 130.949219 136.320312 C 111.792969 114.878906 108.433594 96.648438 108.863281 85.421875 C 109.453125 70.019531 117.847656 56.3125 130.253906 50.5 C 135.726562 47.933594 141.007812 46.914062 145.960938 46.914062 C 164.890625 46.914062 178.886719 61.871094 179.617188 62.664062 C 180.414062 63.539062 181.539062 64.035156 182.71875 64.035156 C 182.71875 64.035156 182.722656 64.035156 182.722656 64.035156 C 183.898438 64.035156 185.023438 63.542969 185.824219 62.679688 C 186.75 61.667969 208.804688 38.128906 235.199219 50.5 C 247.601562 56.3125 256 70.019531 256.589844 85.421875 C 257.023438 96.917969 253.496094 115.765625 233.074219 137.890625 C 232.664062 138.195312 232.316406 138.570312 232.039062 139 C 227.53125 143.777344 222.230469 148.707031 216.007812 153.742188 Z M 199.953125 220.796875 C 210.714844 220.796875 219.46875 229.542969 219.46875 240.292969 C 219.46875 251.042969 210.714844 259.789062 199.953125 259.789062 C 197.664062 259.789062 195.46875 259.390625 193.421875 258.660156 C 192.164062 258.042969 190.882812 257.417969 189.550781 256.769531 C 184.078125 253.316406 180.4375 247.21875 180.4375 240.292969 C 180.4375 229.542969 189.191406 220.796875 199.953125 220.796875 Z M 32.789062 217.695312 C 32.789062 204.460938 43.566406 193.6875 56.820312 193.6875 C 70.074219 193.6875 80.855469 204.460938 80.855469 217.695312 C 80.855469 230.9375 70.074219 241.703125 56.820312 241.703125 C 43.566406 241.703125 32.789062 230.9375 32.789062 217.695312 Z M 298.273438 197.917969 C 310.53125 197.917969 320.503906 207.878906 320.503906 220.125 C 320.503906 232.375 310.53125 242.339844 298.273438 242.339844 C 286.011719 242.339844 276.039062 232.375 276.039062 220.125 C 276.039062 207.878906 286.011719 197.917969 298.273438 197.917969 Z M 311.3125 247.824219 C 321.707031 242.921875 328.917969 232.351562 328.917969 220.125 C 328.917969 203.246094 315.171875 189.515625 298.273438 189.515625 C 281.410156 189.515625 267.6875 203.195312 267.632812 220.027344 C 252.949219 196.707031 243.574219 161.167969 240.097656 142.585938 C 261.769531 118.628906 265.480469 97.847656 264.988281 85.101562 C 264.28125 66.589844 253.992188 50.023438 238.769531 42.894531 C 212.8125 30.730469 190.679688 46.890625 182.734375 53.988281 C 174.808594 46.875 152.738281 30.6875 126.679688 42.894531 C 111.460938 50.023438 101.167969 66.589844 100.460938 85.101562 C 99.984375 97.507812 103.488281 117.535156 123.667969 140.6875 C 112.46875 174.933594 102.289062 203.136719 89.066406 221.253906 C 89.195312 220.085938 89.265625 218.898438 89.265625 217.695312 C 89.265625 199.824219 74.707031 185.289062 56.820312 185.289062 C 38.933594 185.289062 24.375 199.824219 24.375 217.695312 C 24.375 230.796875 32.203125 242.097656 43.421875 247.203125 C 42.332031 247.640625 41.261719 248.089844 40.246094 248.558594 C 28.144531 254.132812 20.320312 266.484375 20.320312 280.027344 L 20.320312 339.96875 C 20.320312 342.292969 22.203125 344.171875 24.527344 344.171875 C 26.847656 344.171875 28.730469 342.292969 28.730469 339.96875 L 28.730469 280.027344 C 28.730469 269.753906 34.632812 260.394531 43.761719 256.1875 C 48.695312 253.914062 54.652344 252.035156 61.46875 250.601562 C 95.339844 243.476562 111.207031 205.359375 130.21875 147.703125 C 133.125 150.621094 136.300781 153.582031 139.773438 156.570312 C 127.101562 207.703125 112.40625 244.199219 99.394531 256.800781 C 98.578125 257.59375 98.117188 258.683594 98.117188 259.820312 L 98.117188 339.96875 C 98.117188 342.292969 100 344.171875 102.320312 344.171875 C 104.644531 344.171875 106.527344 342.292969 106.527344 339.96875 L 106.527344 261.542969 C 124.390625 242.632812 139.054688 193.632812 146.964844 162.46875 C 149.988281 164.839844 153.199219 167.222656 156.613281 169.617188 C 150.082031 190.21875 138.847656 234.921875 151.246094 268.34375 L 151.246094 339.96875 C 151.246094 342.292969 153.128906 344.171875 155.449219 344.171875 C 157.773438 344.171875 159.65625 342.292969 159.65625 339.96875 L 159.65625 267.582031 C 159.65625 267.066406 159.566406 266.558594 159.378906 266.082031 C 147.785156 235.835938 158.25 193.160156 163.894531 174.542969 C 168.03125 177.246094 172.425781 179.957031 177.105469 182.675781 C 170.886719 205.425781 161.601562 251.972656 185.371094 264.074219 C 186.851562 264.984375 188.421875 265.753906 190.066406 266.378906 C 214.652344 278.480469 219.46875 283.050781 219.46875 292.746094 L 219.46875 339.96875 C 219.46875 342.292969 221.347656 344.171875 223.671875 344.171875 C 225.996094 344.171875 227.875 342.292969 227.875 339.96875 L 227.875 292.746094 C 227.875 281.246094 222.382812 274.609375 208.839844 266.734375 C 219.890625 263.011719 227.875 252.570312 227.875 240.292969 C 227.875 224.910156 215.351562 212.394531 199.953125 212.394531 C 191.367188 212.394531 183.671875 216.292969 178.546875 222.402344 C 179.234375 210.558594 181.835938 197.148438 185.351562 184.394531 C 196.917969 177.832031 206.847656 171.292969 215.367188 164.867188 C 219.140625 182.757812 230.617188 231.464844 248.8125 258.75 L 248.8125 339.96875 C 248.8125 342.292969 250.691406 344.171875 253.015625 344.171875 C 255.339844 344.171875 257.21875 342.292969 257.21875 339.96875 L 257.21875 257.460938 C 257.21875 256.609375 256.960938 255.78125 256.480469 255.078125 C 237.285156 227.199219 225.246094 171.363281 222.757812 159.027344 C 226.484375 155.949219 229.890625 152.902344 233.007812 149.894531 C 238.21875 174.195312 256.582031 245.527344 293.453125 250.695312 C 294.800781 250.898438 326.433594 256.019531 326.433594 283.773438 L 326.433594 339.96875 C 326.433594 342.292969 328.316406 344.171875 330.636719 344.171875 C 332.960938 344.171875 334.84375 342.292969 334.84375 339.96875 L 334.84375 283.773438 C 334.84375 265.109375 323.203125 253.863281 311.3125 247.824219 " fill-opacity="1" fill-rule="nonzero"/></g><g clip-path="url(#4db7f558a4)"><path fill="#100f0d" d="M 48.171875 280.601562 C 45.847656 280.601562 43.964844 282.480469 43.964844 284.800781 L 43.964844 339.96875 C 43.964844 342.292969 45.847656 344.171875 48.171875 344.171875 C 50.492188 344.171875 52.375 342.292969 52.375 339.96875 L 52.375 284.800781 C 52.375 282.480469 50.492188 280.601562 48.171875 280.601562 " fill-opacity="1" fill-rule="nonzero"/></g></svg>