<svg xmlns="http://www.w3.org/2000/svg" xmlns:xlink="http://www.w3.org/1999/xlink" width="500" zoomAndPan="magnify" viewBox="0 0 375 374.999991" height="500" preserveAspectRatio="xMidYMid meet" version="1.0"><defs><clipPath id="c13dee628d"><path d="M 223 47.039062 L 328.289062 47.039062 L 328.289062 149 L 223 149 Z M 223 47.039062 " clip-rule="nonzero"/></clipPath><clipPath id="55fd7a1fa4"><path d="M 47.039062 62 L 328.289062 62 L 328.289062 328.289062 L 47.039062 328.289062 Z M 47.039062 62 " clip-rule="nonzero"/></clipPath><clipPath id="ac91b51d16"><path d="M 276 47.039062 L 328.289062 47.039062 L 328.289062 102 L 276 102 Z M 276 47.039062 " clip-rule="nonzero"/></clipPath><clipPath id="9a5f9da709"><path d="M 187 253 L 328.289062 253 L 328.289062 328.289062 L 187 328.289062 Z M 187 253 " clip-rule="nonzero"/></clipPath><clipPath id="7d3eabf09e"><path d="M 223 47.039062 L 328.289062 47.039062 L 328.289062 149 L 223 149 Z M 223 47.039062 " clip-rule="nonzero"/></clipPath><clipPath id="6315df13ce"><path d="M 47.039062 253 L 188 253 L 188 328.289062 L 47.039062 328.289062 Z M 47.039062 253 " clip-rule="nonzero"/></clipPath></defs><g clip-path="url(#c13dee628d)"><path fill="#6fceae" d="M 278.433594 47.039062 L 223.953125 47.039062 C 243.640625 49.964844 255.933594 58.109375 255.707031 65.183594 C 255.527344 71.011719 246.863281 75.324219 244.367188 76.523438 C 251.285156 76.933594 254.574219 79.859375 255.707031 81.0625 C 261.582031 87.183594 261.425781 99.683594 253.710938 111.523438 C 253.984375 111.886719 254.28125 112.269531 254.550781 112.679688 C 265.890625 105.714844 279.183594 107.621094 285.195312 115.082031 C 291.410156 122.773438 287.960938 134 287.507812 135.40625 C 288.050781 134.273438 293.132812 124.585938 301.070312 124.15625 C 309.394531 123.703125 319.375 133.570312 319.238281 148.425781 C 319.398438 144.570312 320.394531 132.910156 328.289062 125.902344 L 328.289062 47.039062 Z M 278.433594 47.039062 " fill-opacity="1" fill-rule="nonzero"/></g><g clip-path="url(#55fd7a1fa4)"><path fill="#6fceae" d="M 270.8125 265.53125 C 250.105469 258.953125 226.222656 254.777344 200.636719 253.710938 C 199.117188 241.464844 198.277344 227.175781 199.050781 211.296875 C 199.503906 202.429688 200.386719 194.152344 201.546875 186.574219 C 206.105469 187.4375 212.816406 189.363281 219.621094 193.992188 C 234.386719 204.039062 238.71875 219.417969 239.832031 224 C 239.648438 219.167969 238.539062 208.734375 231.554688 198.257812 C 221.480469 183.195312 206.308594 178.660156 202.203125 177.570312 C 203.222656 173.011719 205.195312 164.300781 212.570312 157.519531 C 217.488281 153.03125 223.363281 152.144531 227.3125 155.207031 C 227.402344 155.253906 227.652344 155.457031 227.71875 155.523438 C 230.03125 157.476562 233.527344 161.941406 238.109375 173.171875 C 240.964844 164.6875 239.082031 155.660156 233.253906 150.171875 C 232.574219 149.535156 227.039062 144.523438 219.214844 145 C 218.941406 145.023438 218.691406 145.046875 218.441406 145.066406 C 218.398438 145.089844 218.328125 145.089844 218.261719 145.089844 C 217.761719 145.203125 217.21875 145.296875 216.652344 145.363281 C 216.628906 145.386719 216.582031 145.386719 216.558594 145.386719 C 210.914062 146.65625 207.078125 150.535156 204.789062 152.871094 C 202.226562 155.480469 200.617188 158.085938 199.683594 159.878906 C 200.046875 155.820312 201.386719 148.402344 206.964844 142.300781 C 208.347656 140.78125 210.140625 138.875 213.089844 137.582031 C 219.238281 134.882812 225.429688 137.128906 229.601562 138.625 C 230.125 138.808594 230.621094 139.011719 231.121094 139.195312 C 240.035156 142.824219 245.820312 149.058594 248.902344 153.074219 C 244.753906 142.957031 240.714844 136.925781 237.042969 133.457031 C 234.070312 130.621094 231.324219 129.464844 228.921875 129.144531 C 226.382812 128.78125 220.6875 128.875 216.3125 124.859375 C 214.40625 123.113281 213.339844 121.117188 212.726562 119.664062 C 211.730469 122.070312 210.117188 125.175781 207.53125 128.328125 C 203.496094 133.273438 198.960938 136.042969 196.078125 137.492188 C 195.601562 133.183594 195.285156 126.921875 196.214844 119.507812 C 198.121094 104.285156 205.652344 82.058594 214.292969 82.058594 C 210.324219 81.515625 203.449219 83.535156 196.078125 89.65625 C 195.535156 82.171875 195.011719 74.6875 194.46875 67.203125 C 194.402344 67.089844 193.425781 65.320312 191.429688 65.160156 C 189.863281 65.046875 188.367188 65.957031 187.664062 67.453125 C 187.324219 67 184.148438 62.917969 178.589844 62.917969 C 178.023438 62.917969 172.851562 63.007812 169.519531 67.453125 C 169.316406 67.25 165.367188 63.753906 160.445312 65.183594 C 156.589844 66.296875 153.800781 69.96875 153.640625 74.257812 C 153.277344 74.054688 146.589844 70.515625 140.03125 74.257812 C 135.316406 76.957031 132.640625 82.308594 133.230469 87.867188 C 132.683594 87.730469 122.570312 85.210938 115.082031 92.402344 C 109.707031 97.574219 107.917969 105.601562 110.546875 112.816406 C 104.558594 113.085938 99.25 116.601562 96.9375 121.886719 C 94.238281 128.035156 96.054688 135.496094 101.476562 140.03125 C 93.421875 147.042969 90.746094 158.15625 94.671875 167.25 C 99.546875 178.570312 112 180.722656 112.816406 180.859375 C 112.339844 189.570312 116.828125 197.621094 124.15625 201.273438 C 132.730469 205.558594 141.191406 201.792969 142.300781 201.273438 C 146.113281 208.734375 153.980469 212.320312 160.445312 210.34375 C 166.660156 208.464844 169.179688 202.179688 169.519531 201.273438 C 169.65625 201.410156 171.105469 202.703125 173.328125 203.40625 L 173.328125 245.386719 C 172.785156 243.800781 171.582031 241.078125 169.089844 238.515625 C 167.160156 236.542969 165.164062 235.386719 163.78125 234.75 C 164.1875 237.789062 164.574219 240.828125 164.984375 243.867188 C 163.007812 242.917969 160.898438 241.984375 158.699219 241.078125 C 156.660156 240.238281 154.683594 239.492188 152.78125 238.8125 C 153.664062 241.894531 154.550781 244.957031 155.433594 248.042969 C 153.777344 247.113281 151.667969 246.113281 149.105469 245.320312 C 146.746094 244.59375 144.59375 244.210938 142.824219 244.003906 C 143.867188 245.253906 145.203125 247.113281 146.269531 249.628906 C 147.335938 252.148438 147.746094 254.414062 147.925781 256.027344 C 104.355469 261.742188 67.746094 276.6875 47.039062 296.535156 L 47.039062 328.289062 L 328.289062 328.289062 L 328.289062 297.148438 C 321.9375 290.933594 314.089844 285.195312 304.972656 280.070312 C 294.992188 274.445312 283.492188 269.542969 270.8125 265.53125 Z M 270.8125 265.53125 " fill-opacity="1" fill-rule="nonzero"/></g><path fill="#604533" d="M 187.664062 196.738281 L 187.664062 253.441406 C 182.832031 253.441406 178.046875 253.554688 173.328125 253.78125 L 173.328125 203.40625 C 174.78125 203.882812 176.59375 204.085938 178.589844 203.542969 C 183.832031 202.136719 187.597656 196.964844 187.664062 196.738281 Z M 187.664062 196.738281 " fill-opacity="1" fill-rule="nonzero"/><g clip-path="url(#ac91b51d16)"><path fill="#e15c63" d="M 328.289062 47.039062 L 328.289062 99.886719 C 324.683594 100.90625 320.871094 101.476562 316.949219 101.476562 C 294.402344 101.476562 276.121094 83.195312 276.121094 60.648438 C 276.121094 55.886719 276.9375 51.304688 278.433594 47.039062 Z M 328.289062 47.039062 " fill-opacity="1" fill-rule="nonzero"/></g><g clip-path="url(#9a5f9da709)"><path fill="#b29576" d="M 187.664062 296.535156 L 187.664062 253.441406 C 192.042969 253.441406 196.351562 253.53125 200.636719 253.710938 C 226.222656 254.777344 250.105469 258.953125 270.8125 265.53125 C 283.492188 269.542969 294.992188 274.445312 304.972656 280.070312 C 314.089844 285.195312 321.9375 290.933594 328.289062 297.148438 L 328.289062 328.289062 L 187.664062 328.289062 Z M 247.929688 315.835938 C 248.675781 313.75 246.660156 311.121094 243.460938 309.984375 C 240.238281 308.828125 237.042969 309.601562 236.292969 311.6875 C 235.542969 313.773438 237.539062 316.402344 240.761719 317.539062 C 243.960938 318.695312 247.179688 317.921875 247.929688 315.835938 Z M 235.976562 280.070312 C 239.242188 279.070312 241.351562 276.53125 240.714844 274.421875 C 240.058594 272.289062 236.882812 271.382812 233.640625 272.378906 C 230.375 273.355469 228.242188 275.894531 228.898438 278.003906 C 229.535156 280.136719 232.710938 281.042969 235.976562 280.070312 Z M 235.976562 280.070312 " fill-opacity="1" fill-rule="nonzero"/></g><g clip-path="url(#7d3eabf09e)"><path fill="#ffc05a" d="M 328.289062 99.886719 L 328.289062 125.902344 C 320.394531 132.910156 319.398438 144.570312 319.238281 148.425781 C 319.375 133.570312 309.394531 123.703125 301.070312 124.15625 C 293.132812 124.585938 288.050781 134.273438 287.507812 135.40625 C 287.960938 134 291.410156 122.773438 285.195312 115.082031 C 279.183594 107.621094 265.890625 105.714844 254.550781 112.679688 C 254.28125 112.269531 253.984375 111.886719 253.710938 111.523438 C 261.425781 99.683594 261.582031 87.183594 255.707031 81.0625 C 254.574219 79.859375 251.285156 76.933594 244.367188 76.523438 C 246.863281 75.324219 255.527344 71.011719 255.707031 65.183594 C 255.933594 58.109375 243.640625 49.964844 223.953125 47.039062 L 278.433594 47.039062 C 276.9375 51.304688 276.121094 55.886719 276.121094 60.648438 C 276.121094 83.195312 294.402344 101.476562 316.949219 101.476562 C 320.871094 101.476562 324.683594 100.90625 328.289062 99.886719 Z M 328.289062 99.886719 " fill-opacity="1" fill-rule="nonzero"/></g><path fill="#604533" d="M 243.460938 309.984375 C 246.660156 311.121094 248.675781 313.75 247.929688 315.835938 C 247.179688 317.921875 243.960938 318.695312 240.761719 317.539062 C 237.539062 316.402344 235.542969 313.773438 236.292969 311.6875 C 237.042969 309.601562 240.238281 308.828125 243.460938 309.984375 Z M 243.460938 309.984375 " fill-opacity="1" fill-rule="nonzero"/><path fill="#bc8354" d="M 248.902344 153.074219 C 245.820312 149.058594 240.035156 142.824219 231.121094 139.195312 C 230.621094 139.011719 230.125 138.808594 229.601562 138.625 C 225.429688 137.128906 219.238281 134.882812 213.089844 137.582031 C 210.140625 138.875 208.351562 140.78125 206.964844 142.300781 C 201.386719 148.402344 200.046875 155.820312 199.683594 159.878906 C 200.617188 158.085938 202.226562 155.480469 204.789062 152.871094 C 207.078125 150.535156 210.914062 146.65625 216.558594 145.386719 C 216.582031 145.386719 216.628906 145.386719 216.652344 145.363281 C 217.21875 145.296875 217.761719 145.203125 218.261719 145.089844 C 218.328125 145.089844 218.398438 145.089844 218.441406 145.070312 C 218.691406 145.046875 218.941406 145.023438 219.214844 145 C 227.039062 144.523438 232.574219 149.535156 233.253906 150.171875 C 239.082031 155.660156 240.964844 164.6875 238.109375 173.171875 C 233.527344 161.945312 230.03125 157.476562 227.71875 155.523438 C 227.652344 155.457031 227.402344 155.253906 227.3125 155.207031 C 223.363281 152.144531 217.492188 153.03125 212.570312 157.519531 C 205.195312 164.300781 203.222656 173.011719 202.203125 177.570312 C 206.308594 178.660156 221.480469 183.195312 231.554688 198.257812 C 238.539062 208.734375 239.648438 219.167969 239.832031 224 C 238.71875 219.417969 234.386719 204.039062 219.621094 193.992188 C 212.816406 189.367188 206.105469 187.4375 201.546875 186.574219 C 200.386719 194.152344 199.503906 202.429688 199.050781 211.296875 C 198.277344 227.175781 199.117188 241.464844 200.636719 253.710938 C 196.351562 253.53125 192.042969 253.441406 187.664062 253.441406 L 187.664062 67.453125 C 188.367188 65.957031 189.863281 65.046875 191.429688 65.160156 C 193.425781 65.320312 194.402344 67.089844 194.46875 67.203125 C 195.011719 74.6875 195.535156 82.171875 196.078125 89.65625 C 203.449219 83.535156 210.324219 81.515625 214.292969 82.058594 C 205.652344 82.058594 198.121094 104.289062 196.214844 119.507812 C 195.285156 126.921875 195.601562 133.183594 196.078125 137.492188 C 198.960938 136.042969 203.496094 133.273438 207.53125 128.328125 C 210.117188 125.175781 211.730469 122.070312 212.726562 119.664062 C 213.339844 121.117188 214.40625 123.113281 216.3125 124.859375 C 220.6875 128.875 226.382812 128.78125 228.921875 129.144531 C 231.324219 129.464844 234.070312 130.621094 237.042969 133.457031 C 240.714844 136.925781 244.753906 142.960938 248.902344 153.074219 Z M 248.902344 153.074219 " fill-opacity="1" fill-rule="nonzero"/><path fill="#604533" d="M 240.714844 274.421875 C 241.351562 276.53125 239.242188 279.070312 235.976562 280.070312 C 232.710938 281.042969 229.535156 280.136719 228.898438 278.003906 C 228.242188 275.894531 230.375 273.355469 233.640625 272.378906 C 236.882812 271.382812 240.058594 272.289062 240.714844 274.421875 Z M 240.714844 274.421875 " fill-opacity="1" fill-rule="nonzero"/><g clip-path="url(#6315df13ce)"><path fill="#1ea6bc" d="M 173.328125 253.78125 C 178.046875 253.554688 182.832031 253.441406 187.664062 253.441406 L 187.664062 328.289062 L 47.039062 328.289062 L 47.039062 296.535156 C 67.746094 276.6875 104.355469 261.742188 147.925781 256.027344 C 156.160156 254.914062 164.640625 254.167969 173.328125 253.78125 Z M 173.328125 253.78125 " fill-opacity="1" fill-rule="nonzero"/></g><path fill="#53b79a" d="M 187.664062 196.738281 C 187.597656 196.964844 183.832031 202.136719 178.589844 203.542969 C 176.59375 204.085938 174.78125 203.882812 173.328125 203.40625 C 171.105469 202.703125 169.65625 201.410156 169.519531 201.273438 C 169.179688 202.179688 166.660156 208.464844 160.445312 210.34375 C 153.980469 212.320312 146.113281 208.734375 142.300781 201.273438 C 141.191406 201.792969 132.730469 205.558594 124.15625 201.273438 C 116.828125 197.621094 112.339844 189.570312 112.816406 180.859375 C 112.816406 180.859375 127.558594 199.777344 140.28125 186.644531 C 140.28125 186.644531 153.597656 194.492188 160.402344 180.859375 C 160.402344 180.859375 187.664062 196.738281 187.664062 67.453125 Z M 187.664062 196.738281 " fill-opacity="1" fill-rule="nonzero"/><path fill="#604533" d="M 196.738281 280.65625 C 196.980469 280.65625 197.230469 280.617188 197.476562 280.535156 C 201.675781 279.085938 203.683594 276.308594 205.453125 273.863281 C 207.035156 271.675781 208.285156 269.945312 210.929688 269.238281 C 212.199219 268.902344 213.4375 268.890625 214.757812 268.878906 C 217.222656 268.859375 220.015625 268.832031 223.046875 266.59375 C 224.378906 265.597656 225.269531 264.554688 225.785156 263.851562 C 226.523438 262.84375 226.304688 261.425781 225.292969 260.683594 C 224.289062 259.941406 222.867188 260.164062 222.125 261.171875 C 221.855469 261.539062 221.261719 262.265625 220.339844 262.957031 C 218.507812 264.308594 216.917969 264.324219 214.714844 264.34375 C 213.25 264.355469 211.582031 264.371094 209.761719 264.855469 C 205.554688 265.980469 203.546875 268.753906 201.777344 271.203125 C 200.203125 273.382812 198.839844 275.265625 195.996094 276.246094 C 194.8125 276.652344 194.183594 277.945312 194.59375 279.128906 C 194.914062 280.070312 195.796875 280.65625 196.738281 280.65625 Z M 196.738281 280.65625 " fill-opacity="1" fill-rule="nonzero"/><path fill="#604533" d="M 227.429688 303.601562 C 214.179688 310.601562 212.050781 308.648438 211.96875 308.558594 C 211.605469 308.1875 211.628906 306.789062 211.644531 305.765625 C 211.671875 304.238281 211.703125 302.292969 210.757812 300.707031 C 213.269531 295.5625 214.671875 294.941406 214.664062 294.863281 C 214.859375 294.992188 215.25 295.542969 215.515625 295.910156 C 216.339844 297.0625 217.464844 298.640625 219.570312 299.074219 C 223.644531 299.914062 227.175781 295.710938 229.476562 292.476562 C 230.199219 291.453125 229.960938 290.035156 228.941406 289.3125 C 227.917969 288.585938 226.507812 288.824219 225.777344 289.84375 C 222.234375 294.832031 220.648438 294.671875 220.488281 294.628906 C 220.125 294.554688 219.632812 293.871094 219.203125 293.269531 C 218.402344 292.140625 217.296875 290.597656 215.273438 290.378906 C 212.378906 290.066406 209.769531 292.546875 206.882812 298.332031 C 205.582031 298.234375 204.320312 298.585938 203.292969 298.878906 C 201.820312 299.296875 200.882812 299.53125 200.140625 299.105469 C 199.46875 298.71875 199.175781 297.933594 198.757812 296.695312 C 198.253906 295.203125 197.566406 293.15625 195.386719 292.191406 C 194.246094 291.6875 192.902344 292.203125 192.398438 293.347656 C 191.890625 294.492188 192.40625 295.835938 193.554688 296.339844 C 193.882812 296.484375 194.125 297.148438 194.460938 298.144531 C 194.980469 299.671875 195.683594 301.765625 197.875 303.035156 C 200.324219 304.441406 202.757812 303.75 204.539062 303.242188 C 205.4375 302.988281 206.453125 302.699219 206.765625 302.914062 C 207.15625 303.195312 207.132812 304.632812 207.109375 305.683594 C 207.078125 307.605469 207.035156 310 208.722656 311.722656 C 209.800781 312.828125 211.292969 313.390625 213.273438 313.390625 C 216.914062 313.390625 222.203125 311.492188 229.550781 307.609375 C 230.660156 307.023438 231.085938 305.652344 230.5 304.546875 C 229.914062 303.4375 228.539062 303.011719 227.429688 303.601562 Z M 227.429688 303.601562 " fill-opacity="1" fill-rule="nonzero"/><path fill="#604533" d="M 257.152344 284.539062 C 257.316406 283.828125 257.394531 283.5625 257.53125 283.46875 C 257.992188 283.144531 259.460938 283.679688 260.527344 284.070312 C 262.511719 284.796875 264.976562 285.707031 267.132812 284.167969 C 269.054688 282.808594 269.082031 280.683594 269.113281 278.628906 C 269.132812 277.324219 269.152344 275.847656 269.503906 274.117188 L 269.570312 273.820312 C 269.597656 273.707031 269.617188 273.59375 269.707031 273.3125 L 269.867188 272.648438 C 270.257812 271.0625 270.257812 271.0625 270.855469 270.03125 C 271.484375 268.945312 271.113281 267.558594 270.03125 266.929688 C 268.945312 266.300781 267.558594 266.671875 266.929688 267.753906 C 266.472656 268.546875 266.214844 269.066406 266.011719 269.621094 C 264.378906 269.066406 262.773438 268.863281 261.214844 269.097656 C 259.8125 269.332031 258.816406 269.832031 258.019531 270.234375 C 257.246094 270.625 256.976562 270.75 256.585938 270.707031 C 255.871094 270.644531 255 269.890625 254.136719 268.570312 C 253.445312 267.527344 252.039062 267.234375 250.996094 267.921875 C 249.949219 268.605469 249.65625 270.011719 250.34375 271.0625 C 252.035156 273.640625 254.003906 275.042969 256.175781 275.226562 C 256.363281 275.242188 256.546875 275.253906 256.722656 275.253906 C 258.132812 275.253906 259.191406 274.722656 260.054688 274.285156 C 260.6875 273.96875 261.234375 273.691406 261.921875 273.578125 C 262.847656 273.441406 263.851562 273.605469 264.929688 274.03125 C 264.632812 275.851562 264.59375 277.402344 264.578125 278.566406 C 264.566406 279.300781 264.554688 280.300781 264.535156 280.457031 C 264.175781 280.574219 262.8125 280.078125 262.089844 279.8125 C 260.089844 279.078125 257.339844 278.070312 254.945312 279.746094 C 253.347656 280.847656 252.992188 282.394531 252.734375 283.523438 C 252.503906 284.519531 252.367188 285.023438 251.757812 285.523438 C 251.363281 285.84375 251.105469 285.914062 250.265625 286.113281 C 249.53125 286.289062 248.523438 286.53125 247.210938 287.09375 C 245.261719 287.910156 243.484375 289.0625 241.773438 290.617188 C 240.851562 291.460938 240.78125 292.894531 241.625 293.824219 C 242.074219 294.316406 242.6875 294.5625 243.300781 294.5625 C 243.847656 294.5625 244.394531 294.367188 244.828125 293.972656 C 245.667969 293.210938 247.011719 292.097656 248.984375 291.273438 C 249.957031 290.851562 250.644531 290.691406 251.316406 290.53125 C 252.339844 290.285156 253.402344 290.035156 254.632812 289.03125 C 256.46875 287.511719 256.882812 285.722656 257.152344 284.539062 Z M 257.152344 284.539062 " fill-opacity="1" fill-rule="nonzero"/><path fill="#604533" d="M 304.554688 281.933594 C 303.332031 281.691406 302.128906 282.476562 301.878906 283.703125 C 300.945312 288.269531 300.519531 289.789062 299.871094 292.085938 L 299.265625 294.261719 C 297.328125 301.4375 296.558594 302.914062 295.25 303.695312 C 294.394531 304.195312 293.757812 304.195312 292.414062 304.148438 C 290.945312 304.097656 289.132812 304.03125 286.636719 304.878906 C 285.398438 305.289062 284.3125 305.828125 283.269531 306.523438 C 278.695312 302.195312 274.878906 300.59375 271.660156 301.691406 C 270.050781 302.246094 269.171875 303.296875 268.464844 304.140625 C 267.976562 304.726562 267.59375 305.1875 266.980469 305.542969 C 264.460938 306.992188 260.332031 305.433594 257.316406 303.867188 C 256.203125 303.292969 254.832031 303.71875 254.257812 304.835938 C 253.679688 305.945312 254.113281 307.316406 255.226562 307.890625 C 261.074219 310.925781 265.789062 311.460938 269.25 309.46875 C 270.566406 308.707031 271.332031 307.789062 271.945312 307.050781 C 272.519531 306.367188 272.753906 306.113281 273.128906 305.984375 C 273.816406 305.753906 275.75 305.730469 279.8125 309.488281 C 279.183594 310.113281 278.539062 310.757812 277.773438 311.394531 C 274.171875 314.386719 269.125 316.042969 262.773438 316.316406 C 261.523438 316.367188 260.554688 317.425781 260.605469 318.679688 C 260.65625 319.898438 261.664062 320.847656 262.867188 320.847656 C 262.902344 320.847656 262.933594 320.847656 262.96875 320.847656 C 270.332031 320.53125 276.289062 318.523438 280.675781 314.878906 C 281.566406 314.140625 282.320312 313.394531 283.046875 312.671875 C 283.558594 312.167969 284.046875 311.675781 284.582031 311.210938 C 285.367188 310.515625 286.398438 309.734375 288.078125 309.183594 C 289.800781 308.59375 290.988281 308.636719 292.253906 308.683594 C 293.777344 308.734375 295.515625 308.800781 297.558594 307.597656 C 300.601562 305.785156 301.695312 302.664062 303.644531 295.453125 L 304.238281 293.320312 C 304.914062 290.921875 305.359375 289.339844 306.320312 284.613281 C 306.574219 283.382812 305.78125 282.1875 304.554688 281.933594 Z M 304.554688 281.933594 " fill-opacity="1" fill-rule="nonzero"/><path fill="#a7753c" d="M 239.109375 102.695312 C 242.25 103.753906 245.46875 105.941406 248.6875 109.203125 C 249.824219 110.339844 250.90625 111.582031 251.988281 113.003906 C 252.210938 113.296875 252.445312 113.609375 252.722656 114.015625 C 254.597656 116.585938 256.214844 119.441406 257.523438 122.507812 C 257.894531 123.367188 258.730469 123.882812 259.609375 123.882812 C 259.910156 123.882812 260.210938 123.824219 260.503906 123.699219 C 261.65625 123.207031 262.1875 121.875 261.695312 120.722656 C 260.25 117.34375 258.464844 114.183594 256.441406 111.417969 C 256.171875 111.015625 255.886719 110.632812 255.519531 110.144531 C 254.394531 108.667969 253.171875 107.273438 251.90625 106.003906 C 248.195312 102.242188 244.382812 99.679688 240.554688 98.390625 C 238.644531 97.75 236.832031 97.453125 235.019531 97.445312 C 236.828125 95.9375 239.15625 94.511719 242.117188 93.757812 C 246.621094 92.609375 250.574219 93.460938 253.105469 94.375 C 254.28125 94.796875 255.582031 94.1875 256.007812 93.011719 C 256.433594 91.832031 255.824219 90.53125 254.644531 90.105469 C 251.519531 88.976562 246.609375 87.929688 240.996094 89.359375 C 235.558594 90.746094 231.8125 93.824219 229.417969 96.527344 C 226.269531 87.839844 220.730469 80.132812 214.671875 79.820312 C 214.65625 79.820312 214.640625 79.8125 214.625 79.808594 C 214.53125 79.796875 214.441406 79.792969 214.347656 79.792969 C 214.339844 79.792969 214.332031 79.789062 214.324219 79.789062 C 214.320312 79.789062 214.316406 79.789062 214.316406 79.789062 L 214.292969 79.789062 C 213.039062 79.789062 212.035156 80.804688 212.035156 82.058594 C 212.035156 82.367188 212.105469 82.65625 212.222656 82.929688 C 212.226562 82.9375 212.234375 82.945312 212.238281 82.957031 C 212.347656 83.203125 212.496094 83.425781 212.679688 83.617188 C 212.742188 83.679688 212.820312 83.722656 212.890625 83.777344 C 213.035156 83.898438 213.179688 84.011719 213.351562 84.089844 C 213.457031 84.140625 213.570312 84.160156 213.683594 84.195312 C 213.800781 84.230469 213.914062 84.292969 214.042969 84.308594 C 215.207031 85.199219 214.949219 92.476562 210.6875 105.292969 C 210.292969 106.484375 210.9375 107.765625 212.125 108.164062 C 212.363281 108.242188 212.601562 108.277344 212.839844 108.277344 C 213.789062 108.277344 214.679688 107.675781 214.992188 106.726562 C 217.085938 100.425781 219.148438 92.78125 219.113281 87.289062 C 221.640625 90.074219 224.214844 94.675781 225.9375 100.4375 C 221.359375 103.570312 215.828125 110.125 210.785156 118.492188 C 210.140625 119.566406 210.484375 120.960938 211.558594 121.605469 C 212.628906 122.25 214.023438 121.910156 214.671875 120.835938 C 219.410156 112.96875 223.890625 107.917969 227.105469 105.25 C 227.675781 108.324219 227.890625 111.300781 227.734375 113.953125 L 227.691406 114.542969 C 227.542969 115.785156 228.429688 116.914062 229.671875 117.0625 C 229.765625 117.074219 229.855469 117.078125 229.945312 117.078125 C 231.078125 117.078125 232.058594 116.234375 232.195312 115.082031 C 232.210938 114.925781 232.222656 114.773438 232.234375 114.621094 L 229.96875 114.492188 L 232.253906 114.335938 C 232.46875 110.75 232.082031 106.792969 231.203125 102.785156 C 233.070312 102.089844 234.558594 101.972656 234.550781 101.972656 C 235.46875 101.933594 236.949219 101.96875 239.109375 102.695312 Z M 239.109375 102.695312 " fill-opacity="1" fill-rule="nonzero"/><path fill="#a7753c" d="M 253.460938 124.730469 C 253.15625 123.515625 251.898438 122.78125 250.703125 123.09375 C 248.441406 123.667969 246.226562 124.488281 244.136719 125.523438 C 240.179688 127.476562 237.625 129.710938 235.457031 131.832031 C 234.558594 132.710938 234.546875 134.148438 235.421875 135.039062 C 235.863281 135.496094 236.453125 135.722656 237.042969 135.722656 C 237.613281 135.722656 238.1875 135.507812 238.628906 135.078125 C 240.53125 133.214844 242.757812 131.261719 246.144531 129.589844 C 247.957031 128.691406 249.867188 127.984375 251.820312 127.488281 C 253.035156 127.179688 253.773438 125.945312 253.460938 124.730469 Z M 253.460938 124.730469 " fill-opacity="1" fill-rule="nonzero"/><path fill="#a7753c" d="M 229.675781 137.445312 C 228.609375 138.324219 227.546875 139.070312 226.425781 139.726562 C 223.828125 141.222656 221.09375 142.238281 218.066406 142.832031 C 218.042969 142.835938 218.019531 142.839844 217.996094 142.84375 C 217.992188 142.84375 217.988281 142.839844 217.980469 142.84375 C 217.367188 142.917969 216.75 143.023438 216.164062 143.148438 C 216.15625 143.152344 216.152344 143.15625 216.144531 143.160156 C 216.121094 143.164062 216.09375 143.164062 216.074219 143.171875 C 215.054688 143.398438 214.289062 144.304688 214.289062 145.386719 C 214.289062 146.640625 215.304688 147.65625 216.558594 147.65625 C 216.71875 147.65625 216.886719 147.636719 217.050781 147.601562 C 217.613281 147.53125 218.148438 147.4375 218.652344 147.328125 C 218.726562 147.320312 218.800781 147.304688 218.871094 147.292969 L 218.875 147.296875 C 222.425781 146.609375 225.636719 145.417969 228.703125 143.652344 C 230.042969 142.867188 231.308594 141.984375 232.5625 140.945312 C 233.53125 140.148438 233.667969 138.71875 232.871094 137.75 C 232.074219 136.785156 230.644531 136.648438 229.675781 137.445312 Z M 229.675781 137.445312 " fill-opacity="1" fill-rule="nonzero"/><path fill="#a7753c" d="M 262.125 162.601562 C 258.042969 156.554688 253.304688 153.019531 250.046875 151.117188 C 250 151.089844 249.945312 151.089844 249.898438 151.066406 C 249.765625 151 249.625 150.964844 249.480469 150.925781 C 249.335938 150.886719 249.199219 150.847656 249.054688 150.839844 C 248.914062 150.828125 248.78125 150.851562 248.640625 150.867188 C 248.488281 150.882812 248.339844 150.902344 248.195312 150.953125 C 248.144531 150.96875 248.09375 150.960938 248.039062 150.980469 C 247.949219 151.019531 247.886719 151.09375 247.804688 151.140625 C 247.675781 151.210938 247.554688 151.285156 247.441406 151.386719 C 247.316406 151.492188 247.21875 151.613281 247.125 151.742188 C 247.070312 151.8125 246.996094 151.855469 246.953125 151.9375 C 246.925781 151.980469 246.925781 152.03125 246.902344 152.074219 C 246.832031 152.21875 246.789062 152.367188 246.75 152.523438 C 246.714844 152.660156 246.675781 152.789062 246.667969 152.925781 C 246.660156 153.066406 246.679688 153.203125 246.695312 153.34375 C 246.714844 153.5 246.734375 153.652344 246.785156 153.800781 C 246.800781 153.847656 246.792969 153.902344 246.8125 153.949219 C 249.144531 159.59375 250.902344 165.488281 252.035156 171.472656 C 253.605469 179.644531 254.039062 188.035156 253.316406 196.414062 C 253.210938 197.664062 254.132812 198.761719 255.382812 198.867188 C 255.449219 198.875 255.515625 198.878906 255.578125 198.878906 C 256.746094 198.878906 257.734375 197.988281 257.835938 196.800781 C 258.589844 188.011719 258.136719 179.203125 256.488281 170.625 C 255.777344 166.878906 254.808594 163.175781 253.648438 159.53125 C 255.226562 161.050781 256.84375 162.886719 258.363281 165.144531 C 260.9375 168.976562 262.667969 173.265625 263.503906 177.890625 C 263.703125 178.984375 264.660156 179.753906 265.734375 179.753906 C 265.867188 179.753906 266.003906 179.742188 266.140625 179.71875 C 267.375 179.496094 268.191406 178.316406 267.96875 177.082031 C 267.015625 171.828125 265.054688 166.960938 262.125 162.601562 Z M 262.125 162.601562 " fill-opacity="1" fill-rule="nonzero"/></svg>