<svg xmlns="http://www.w3.org/2000/svg" xmlns:xlink="http://www.w3.org/1999/xlink" width="500" zoomAndPan="magnify" viewBox="0 0 375 374.999991" height="500" preserveAspectRatio="xMidYMid meet" version="1.0"><defs><clipPath id="496982495b"><path d="M 49 37.5 L 293 37.5 L 293 281 L 49 281 Z M 49 37.5 " clip-rule="nonzero"/></clipPath><clipPath id="dff9c19d71"><path d="M 77 37.5 L 220 37.5 L 220 138 L 77 138 Z M 77 37.5 " clip-rule="nonzero"/></clipPath><clipPath id="bf03f61e59"><path d="M 165 332 L 345.554688 332 L 345.554688 343.5 L 165 343.5 Z M 165 332 " clip-rule="nonzero"/></clipPath><clipPath id="b9d5693f3a"><path d="M 33 190 L 87 190 L 87 343.5 L 33 343.5 Z M 33 190 " clip-rule="nonzero"/></clipPath><clipPath id="7ec56fdf78"><path d="M 86 243 L 140 243 L 140 343.5 L 86 343.5 Z M 86 243 " clip-rule="nonzero"/></clipPath><clipPath id="00da069cc6"><path d="M 139 269 L 193 269 L 193 343.5 L 139 343.5 Z M 139 269 " clip-rule="nonzero"/></clipPath></defs><g clip-path="url(#496982495b)"><path fill="#9ce6ed" d="M 292.535156 158.84375 C 292.535156 202.503906 269.457031 240.773438 234.828125 262.148438 C 216.300781 273.585938 194.460938 280.191406 171.078125 280.191406 C 158.183594 280.191406 145.769531 278.183594 134.113281 274.464844 C 85.109375 258.839844 49.621094 212.980469 49.621094 158.84375 C 49.621094 155.289062 49.773438 151.769531 50.078125 148.292969 C 52.273438 122.738281 62.414062 99.445312 77.996094 80.886719 C 100.273438 54.363281 133.710938 37.5 171.078125 37.5 C 188.1875 37.5 204.472656 41.035156 219.238281 47.417969 C 231.144531 52.554688 242.070312 59.550781 251.640625 68.035156 C 276.726562 90.265625 292.535156 122.710938 292.535156 158.84375 " fill-opacity="1" fill-rule="nonzero"/></g><path fill="#02c26a" d="M 292.535156 158.84375 C 292.535156 202.503906 269.457031 240.773438 234.828125 262.148438 L 208.042969 232.707031 L 208.042969 190.5 L 186.917969 190.5 L 165.796875 158.84375 L 186.917969 143.015625 L 213.324219 143.015625 L 229.164062 121.914062 L 218.605469 95.535156 L 251.640625 68.035156 C 276.726562 90.265625 292.535156 122.710938 292.535156 158.84375 " fill-opacity="1" fill-rule="nonzero"/><path fill="#4367e0" d="M 255.570312 338.222656 L 213.324219 338.222656 L 213.324219 285.464844 L 255.570312 285.464844 L 255.570312 338.222656 " fill-opacity="1" fill-rule="nonzero"/><path fill="#4976f2" d="M 297.816406 338.222656 L 255.570312 338.222656 L 255.570312 243.257812 L 297.816406 243.257812 L 297.816406 338.222656 " fill-opacity="1" fill-rule="nonzero"/><path fill="#548aff" d="M 340.0625 338.222656 L 297.816406 338.222656 L 297.816406 190.5 L 340.0625 190.5 L 340.0625 338.222656 " fill-opacity="1" fill-rule="nonzero"/><g clip-path="url(#dff9c19d71)"><path fill="#02c26a" d="M 219.238281 47.417969 L 181.640625 84.984375 L 181.640625 116.636719 L 149.953125 137.742188 L 128.832031 116.636719 L 102.429688 116.636719 L 102.429688 95.535156 L 77.996094 80.886719 C 100.273438 54.363281 133.710938 37.5 171.078125 37.5 C 188.1875 37.5 204.472656 41.035156 219.238281 47.417969 " fill-opacity="1" fill-rule="nonzero"/></g><path fill="#02c26a" d="M 155.234375 195.777344 L 134.113281 211.601562 L 134.113281 274.464844 C 85.109375 258.839844 49.621094 212.980469 49.621094 158.84375 C 49.621094 155.289062 49.773438 151.769531 50.078125 148.292969 L 81.304688 148.292969 L 97.148438 169.398438 L 139.394531 169.398438 L 155.234375 195.777344 " fill-opacity="1" fill-rule="nonzero"/><g clip-path="url(#bf03f61e59)"><path fill="#a6cfff" d="M 345.339844 343.5 L 165.796875 343.5 L 165.796875 332.949219 L 345.339844 332.949219 L 345.339844 343.5 " fill-opacity="1" fill-rule="nonzero"/></g><g clip-path="url(#b9d5693f3a)"><path fill="#ffc431" d="M 86.585938 201.050781 C 86.585938 195.222656 74.765625 190.5 60.183594 190.5 C 45.601562 190.5 33.777344 195.222656 33.777344 201.050781 L 33.777344 332.949219 C 33.777344 338.777344 45.601562 343.5 60.183594 343.5 C 74.765625 343.5 86.585938 338.777344 86.585938 332.949219 L 86.585938 201.050781 " fill-opacity="1" fill-rule="nonzero"/></g><path fill="#ffd873" d="M 86.585938 201.050781 C 86.585938 195.222656 74.765625 190.5 60.183594 190.5 C 45.601562 190.5 33.777344 195.222656 33.777344 201.050781 C 33.777344 206.878906 45.601562 211.601562 60.183594 211.601562 C 74.765625 211.601562 86.585938 206.878906 86.585938 201.050781 " fill-opacity="1" fill-rule="nonzero"/><g clip-path="url(#7ec56fdf78)"><path fill="#ffc431" d="M 139.394531 253.808594 C 139.394531 247.984375 127.570312 243.257812 112.988281 243.257812 C 98.410156 243.257812 86.585938 247.984375 86.585938 253.808594 L 86.585938 332.949219 C 86.585938 338.777344 98.410156 343.5 112.988281 343.5 C 127.570312 343.5 139.394531 338.777344 139.394531 332.949219 L 139.394531 253.808594 " fill-opacity="1" fill-rule="nonzero"/></g><path fill="#ffd873" d="M 139.394531 253.808594 C 139.394531 247.984375 127.570312 243.257812 112.988281 243.257812 C 98.410156 243.257812 86.585938 247.984375 86.585938 253.808594 C 86.585938 259.636719 98.410156 264.363281 112.988281 264.363281 C 127.570312 264.363281 139.394531 259.636719 139.394531 253.808594 " fill-opacity="1" fill-rule="nonzero"/><g clip-path="url(#00da069cc6)"><path fill="#ffc431" d="M 192.199219 280.191406 C 192.199219 274.363281 180.378906 269.636719 165.796875 269.636719 C 151.214844 269.636719 139.394531 274.363281 139.394531 280.191406 L 139.394531 332.949219 C 139.394531 338.777344 151.214844 343.5 165.796875 343.5 C 180.378906 343.5 192.199219 338.777344 192.199219 332.949219 L 192.199219 280.191406 " fill-opacity="1" fill-rule="nonzero"/></g><path fill="#ffd873" d="M 192.199219 280.191406 C 192.199219 274.363281 180.378906 269.636719 165.796875 269.636719 C 151.214844 269.636719 139.394531 274.363281 139.394531 280.191406 C 139.394531 286.015625 151.214844 290.742188 165.796875 290.742188 C 180.378906 290.742188 192.199219 286.015625 192.199219 280.191406 " fill-opacity="1" fill-rule="nonzero"/><path fill="#ffb401" d="M 83.085938 227.429688 C 88.207031 227.429688 90.347656 234.03125 86.160156 236.96875 C 84.746094 237.964844 82.988281 238.921875 80.816406 239.789062 C 75.21875 242.023438 67.890625 243.257812 60.183594 243.257812 C 52.472656 243.257812 45.144531 242.023438 39.546875 239.789062 C 37.375 238.921875 35.621094 237.964844 34.203125 236.96875 C 30.015625 234.03125 32.160156 227.429688 37.277344 227.429688 C 38.328125 227.429688 39.355469 227.734375 40.21875 228.332031 C 42.875 230.160156 49.671875 232.707031 60.183594 232.707031 C 70.691406 232.707031 77.492188 230.160156 80.144531 228.332031 C 81.007812 227.734375 82.039062 227.429688 83.085938 227.429688 " fill-opacity="1" fill-rule="nonzero"/><path fill="#ffd873" d="M 165.796875 253.808594 L 176.359375 253.808594 L 176.359375 243.257812 L 165.796875 243.257812 L 165.796875 253.808594 " fill-opacity="1" fill-rule="nonzero"/><path fill="#ffd873" d="M 329.5 127.191406 L 308.375 127.191406 L 308.375 137.742188 L 316.75 137.742188 L 211.136719 243.257812 L 186.917969 243.257812 L 186.917969 253.808594 L 213.324219 253.808594 C 214.722656 253.808594 216.066406 253.253906 217.058594 252.265625 L 324.21875 145.203125 L 324.21875 153.570312 L 334.78125 153.570312 L 334.78125 132.464844 C 334.78125 129.550781 332.414062 127.191406 329.5 127.191406 " fill-opacity="1" fill-rule="nonzero"/><path fill="#ffb401" d="M 83.085938 253.808594 C 88.207031 253.808594 90.347656 260.410156 86.160156 263.351562 C 84.746094 264.34375 82.988281 265.300781 80.816406 266.167969 C 75.21875 268.402344 67.890625 269.636719 60.183594 269.636719 C 52.472656 269.636719 45.144531 268.402344 39.546875 266.167969 C 37.375 265.300781 35.621094 264.34375 34.203125 263.351562 C 30.015625 260.410156 32.160156 253.808594 37.277344 253.808594 C 38.328125 253.808594 39.355469 254.113281 40.21875 254.710938 C 42.875 256.539062 49.671875 259.085938 60.183594 259.085938 C 70.691406 259.085938 77.492188 256.539062 80.144531 254.710938 C 81.007812 254.113281 82.039062 253.808594 83.085938 253.808594 " fill-opacity="1" fill-rule="nonzero"/><path fill="#ffb401" d="M 83.085938 280.191406 C 88.207031 280.191406 90.347656 286.789062 86.160156 289.730469 C 84.746094 290.722656 82.988281 291.679688 80.816406 292.546875 C 75.21875 294.785156 67.890625 296.015625 60.183594 296.015625 C 52.472656 296.015625 45.144531 294.785156 39.546875 292.546875 C 37.375 291.679688 35.621094 290.722656 34.203125 289.730469 C 30.015625 286.789062 32.160156 280.191406 37.277344 280.191406 C 38.328125 280.191406 39.355469 280.492188 40.21875 281.089844 C 42.875 282.917969 49.671875 285.464844 60.183594 285.464844 C 70.691406 285.464844 77.492188 282.917969 80.144531 281.089844 C 81.007812 280.492188 82.039062 280.191406 83.085938 280.191406 " fill-opacity="1" fill-rule="nonzero"/><path fill="#ffb401" d="M 83.085938 306.570312 C 88.207031 306.570312 90.347656 313.167969 86.160156 316.109375 C 84.746094 317.101562 82.988281 318.058594 80.816406 318.925781 C 75.21875 321.164062 67.890625 322.398438 60.183594 322.398438 C 52.472656 322.398438 45.144531 321.164062 39.546875 318.925781 C 37.375 318.058594 35.621094 317.101562 34.203125 316.109375 C 30.015625 313.167969 32.160156 306.570312 37.277344 306.570312 C 38.328125 306.570312 39.355469 306.871094 40.21875 307.46875 C 42.875 309.296875 49.671875 311.84375 60.183594 311.84375 C 70.691406 311.84375 77.492188 309.296875 80.144531 307.46875 C 81.007812 306.871094 82.039062 306.570312 83.085938 306.570312 " fill-opacity="1" fill-rule="nonzero"/><path fill="#ffb401" d="M 135.894531 280.191406 C 141.011719 280.191406 143.15625 286.789062 138.96875 289.730469 C 137.550781 290.722656 135.796875 291.679688 133.625 292.546875 C 128.027344 294.785156 120.699219 296.015625 112.988281 296.015625 C 105.28125 296.015625 97.953125 294.785156 92.355469 292.546875 C 90.183594 291.679688 88.425781 290.722656 87.011719 289.730469 C 82.824219 286.789062 84.96875 280.191406 90.085938 280.191406 C 91.132812 280.191406 92.164062 280.492188 93.027344 281.089844 C 95.679688 282.917969 102.480469 285.464844 112.988281 285.464844 C 123.5 285.464844 130.300781 282.917969 132.953125 281.089844 C 133.816406 280.492188 134.84375 280.191406 135.894531 280.191406 " fill-opacity="1" fill-rule="nonzero"/><path fill="#ffb401" d="M 135.894531 306.570312 C 141.011719 306.570312 143.15625 313.167969 138.96875 316.109375 C 137.550781 317.101562 135.796875 318.058594 133.625 318.925781 C 128.027344 321.164062 120.699219 322.398438 112.988281 322.398438 C 105.28125 322.398438 97.953125 321.164062 92.355469 318.925781 C 90.183594 318.058594 88.425781 317.101562 87.011719 316.109375 C 82.824219 313.167969 84.96875 306.570312 90.085938 306.570312 C 91.132812 306.570312 92.164062 306.871094 93.027344 307.46875 C 95.679688 309.296875 102.480469 311.84375 112.988281 311.84375 C 123.5 311.84375 130.300781 309.296875 132.953125 307.46875 C 133.816406 306.871094 134.84375 306.570312 135.894531 306.570312 " fill-opacity="1" fill-rule="nonzero"/><path fill="#ffb401" d="M 188.703125 306.570312 C 193.820312 306.570312 195.960938 313.167969 191.773438 316.109375 C 190.359375 317.101562 188.605469 318.058594 186.433594 318.925781 C 180.835938 321.164062 173.507812 322.398438 165.796875 322.398438 C 158.085938 322.398438 150.757812 321.164062 145.160156 318.925781 C 142.992188 318.058594 141.234375 317.101562 139.820312 316.109375 C 135.632812 313.167969 137.773438 306.570312 142.890625 306.570312 C 143.941406 306.570312 144.96875 306.871094 145.835938 307.46875 C 148.488281 309.296875 155.289062 311.84375 165.796875 311.84375 C 176.308594 311.84375 183.105469 309.296875 185.757812 307.46875 C 186.625 306.871094 187.652344 306.570312 188.703125 306.570312 " fill-opacity="1" fill-rule="nonzero"/><path fill="#ffb401" d="M 86.585938 332.949219 C 83.667969 332.949219 81.304688 330.585938 81.304688 327.671875 L 81.304688 259.085938 C 81.304688 256.171875 83.667969 253.808594 86.585938 253.808594 C 89.503906 253.808594 91.867188 256.171875 91.867188 259.085938 L 91.867188 327.671875 C 91.867188 330.585938 89.503906 332.949219 86.585938 332.949219 " fill-opacity="1" fill-rule="nonzero"/><path fill="#ffb401" d="M 139.394531 332.949219 C 136.476562 332.949219 134.113281 330.585938 134.113281 327.671875 L 134.113281 285.464844 C 134.113281 282.550781 136.476562 280.191406 139.394531 280.191406 C 142.308594 280.191406 144.675781 282.550781 144.675781 285.464844 L 144.675781 327.671875 C 144.675781 330.585938 142.308594 332.949219 139.394531 332.949219 " fill-opacity="1" fill-rule="nonzero"/></svg>