<svg xmlns="http://www.w3.org/2000/svg" xmlns:xlink="http://www.w3.org/1999/xlink" width="500" zoomAndPan="magnify" viewBox="0 0 375 374.999991" height="500" preserveAspectRatio="xMidYMid meet" version="1.0"><defs><clipPath id="397529ffde"><path d="M 186 102.628906 L 354.207031 102.628906 L 354.207031 253.191406 L 186 253.191406 Z M 186 102.628906 " clip-rule="nonzero"/></clipPath><clipPath id="e4aa91fd4c"><path d="M 76 208.382812 L 175.875 208.382812 L 175.875 347.109375 L 76 347.109375 Z M 76 208.382812 " clip-rule="nonzero"/></clipPath></defs><path fill="#99582b" d="M 87.566406 345.933594 C 87.566406 345.933594 127.160156 278.699219 124.332031 267.375 C 121.5 256.054688 98.875 239.777344 98.875 239.777344 C 98.875 239.777344 157.554688 258.882812 154.730469 265.253906 C 151.90625 271.617188 118.675781 346.640625 118.675781 346.640625 L 87.566406 345.933594 " fill-opacity="1" fill-rule="nonzero"/><path fill="#1e545f" d="M 277.105469 172.804688 C 277.769531 170.171875 278.890625 167.609375 279.839844 165.070312 C 280.75 162.640625 281.679688 160.222656 282.640625 157.816406 C 284.582031 152.914062 286.617188 148.050781 288.753906 143.226562 C 293.066406 133.492188 297.746094 123.90625 302.84375 114.558594 C 305.441406 109.800781 307.921875 104.644531 312.355469 101.3125 C 312.902344 100.902344 313.609375 101.832031 313.085938 102.265625 C 309.230469 105.417969 307.070312 110.148438 304.804688 114.46875 C 302.398438 119.0625 300.0625 123.699219 297.808594 128.359375 C 293.25 137.8125 289.046875 147.441406 285.207031 157.207031 C 284.15625 159.886719 283.128906 162.578125 282.128906 165.28125 C 281.105469 168.050781 280.261719 170.945312 279.042969 173.640625 C 278.535156 174.78125 276.820312 173.933594 277.105469 172.804688 " fill-opacity="1" fill-rule="nonzero"/><path fill="#dd6f3b" d="M 310.707031 77.4375 C 309.050781 81.953125 308.316406 86.871094 308.105469 91.660156 C 307.9375 95.398438 308.371094 99.597656 311.167969 102.371094 C 314.183594 105.359375 319.078125 105.605469 322.980469 104.609375 C 327.378906 103.5 331.386719 100.859375 334.625 97.730469 C 336.285156 96.125 337.746094 94.347656 338.976562 92.394531 C 340.0625 90.671875 341.160156 88.789062 340.65625 86.695312 C 340.570312 86.324219 340.339844 86.113281 340.0625 86.042969 C 339.914062 85.433594 339.613281 84.882812 339.097656 84.441406 C 337.507812 83.09375 335.355469 84.488281 333.527344 83.761719 C 331.890625 83.101562 330.765625 81.625 331.394531 79.859375 C 332.023438 78.082031 333.277344 76.15625 331.808594 74.40625 C 330.519531 72.886719 328.253906 73.011719 326.617188 73.820312 C 325.414062 74.40625 321.933594 77.570312 320.792969 75.402344 C 320.175781 74.226562 321.164062 72.472656 321.15625 71.226562 C 321.140625 69.652344 319.980469 68.230469 318.332031 68.222656 C 316.597656 68.222656 315.121094 69.503906 314.148438 70.820312 C 312.664062 72.832031 311.566406 75.105469 310.707031 77.4375 " fill-opacity="1" fill-rule="nonzero"/><path fill="#1e545f" d="M 330.394531 86.34375 C 331.464844 85.308594 332.578125 84.3125 333.71875 83.355469 C 335.605469 81.757812 337.585938 80.273438 339.628906 78.875 C 339.570312 78.539062 339.597656 78.171875 339.703125 77.84375 C 340.03125 76.835938 341.035156 76.269531 342.035156 76.085938 C 343.179688 75.878906 343.921875 76.957031 343.710938 78.019531 C 343.613281 78.53125 343.328125 78.949219 342.9375 79.222656 C 342.640625 79.644531 342.269531 80.007812 341.824219 80.328125 C 341.480469 80.574219 341.003906 80.503906 340.65625 80.335938 C 340.480469 80.246094 340.320312 80.132812 340.1875 79.992188 C 338.179688 81.449219 336.261719 83.003906 334.4375 84.679688 C 333.445312 85.589844 332.488281 86.535156 331.542969 87.492188 C 330.5625 88.488281 329.683594 89.664062 328.542969 90.46875 C 327.945312 90.886719 327.253906 90.082031 327.578125 89.507812 C 328.246094 88.285156 329.402344 87.304688 330.394531 86.34375 " fill-opacity="1" fill-rule="nonzero"/><path fill="#1e545f" d="M 333.082031 64.785156 C 332.746094 64.109375 332.960938 63.371094 333.367188 62.785156 C 334.046875 61.8125 335.410156 61.003906 336.480469 61.910156 C 336.558594 61.980469 336.628906 62.050781 336.691406 62.125 C 337.011719 62.371094 337.144531 62.785156 337.109375 63.210938 C 337.117188 63.414062 337.082031 63.617188 337.003906 63.8125 C 336.894531 64.324219 336.683594 64.792969 336.304688 65.1875 C 335.984375 65.527344 335.542969 65.726562 335.082031 65.78125 C 333.675781 69.332031 332.074219 72.796875 330.183594 76.113281 C 328.039062 79.890625 325.597656 83.769531 322.574219 86.90625 C 321.890625 87.613281 320.527344 86.652344 321.148438 85.820312 C 323.722656 82.410156 326.429688 79.167969 328.6875 75.527344 C 330.660156 72.347656 332.417969 69.015625 333.855469 65.5625 C 333.527344 65.394531 333.25 65.128906 333.082031 64.785156 " fill-opacity="1" fill-rule="nonzero"/><path fill="#1e545f" d="M 323.359375 67.285156 C 323.882812 67.25 324.394531 67.496094 324.738281 67.882812 C 324.820312 67.917969 324.90625 67.964844 324.976562 68.035156 C 325.890625 68.847656 325.429688 70.28125 324.4375 70.800781 C 324.101562 70.96875 323.75 71.03125 323.421875 71.011719 C 321.917969 75.15625 320.632812 79.390625 319.023438 83.5 C 318.652344 84.453125 317.105469 84.117188 317.449219 83.109375 C 318.882812 78.921875 320.636719 74.839844 322.164062 70.695312 C 322.199219 70.605469 322.246094 70.527344 322.304688 70.472656 C 322.09375 70.246094 321.933594 69.96875 321.855469 69.632812 C 321.605469 68.582031 322.191406 67.355469 323.359375 67.285156 " fill-opacity="1" fill-rule="nonzero"/><path fill="#f27949" d="M 308.195312 80.882812 C 306.847656 84.691406 306.265625 88.828125 306.601562 92.863281 C 306.910156 96.609375 307.65625 101.339844 310.636719 103.960938 C 313.742188 106.675781 318.414062 105.722656 322.078125 104.96875 C 326.066406 104.140625 330.074219 102.757812 333.632812 100.753906 C 336.933594 98.890625 341.097656 96.433594 341.367188 92.226562 C 341.445312 91.132812 339.957031 91.089844 339.59375 91.964844 C 338.382812 91.371094 336.726562 91.792969 335.445312 92.269531 C 334.589844 92.582031 333.171875 93.113281 333.214844 91.769531 C 333.242188 90.902344 333.402344 90.074219 332.933594 89.277344 C 331.914062 87.546875 329.941406 88.234375 328.347656 88.359375 C 325.582031 88.585938 326.148438 84.804688 326.039062 83.03125 C 325.945312 81.582031 325.476562 79.1875 323.539062 79.433594 C 322.667969 79.546875 321.972656 80.210938 321.210938 80.601562 C 320.402344 81.007812 319.476562 81.296875 318.5625 81.234375 C 317.609375 81.171875 316.628906 80.695312 316.140625 79.855469 C 315.761719 79.214844 315.855469 78.46875 315.875 77.753906 C 315.925781 76.375 315.863281 74.820312 314.460938 74.113281 C 311.007812 72.355469 308.957031 78.710938 308.195312 80.882812 " fill-opacity="1" fill-rule="nonzero"/><path fill="#1e545f" d="M 115.625 216.929688 C 114.332031 214.550781 112.609375 212.335938 111.066406 210.117188 C 109.582031 207.988281 108.078125 205.875 106.554688 203.78125 C 103.457031 199.511719 100.28125 195.300781 97.019531 191.15625 C 90.433594 182.796875 83.53125 174.675781 76.277344 166.882812 C 72.578125 162.914062 68.898438 158.539062 63.777344 156.410156 C 63.148438 156.148438 62.695312 157.222656 63.308594 157.507812 C 67.828125 159.609375 71.085938 163.65625 74.351562 167.28125 C 77.820312 171.132812 81.234375 175.039062 84.570312 179.007812 C 91.328125 187.035156 97.785156 195.316406 103.917969 203.828125 C 105.601562 206.160156 107.261719 208.515625 108.898438 210.878906 C 110.574219 213.316406 112.109375 215.914062 113.953125 218.226562 C 114.730469 219.199219 116.183594 217.953125 115.625 216.929688 " fill-opacity="1" fill-rule="nonzero"/><path fill="#60c0c4" d="M 283.128906 155.457031 C 283.128906 209.089844 239.703125 252.566406 186.121094 252.566406 C 132.542969 252.566406 89.109375 209.089844 89.109375 155.457031 C 89.109375 101.824219 132.542969 58.34375 186.121094 58.34375 C 239.703125 58.34375 283.128906 101.824219 283.128906 155.457031 " fill-opacity="1" fill-rule="nonzero"/><path fill="#6cd8d8" d="M 278.15625 154.707031 C 278.15625 204.269531 236.835938 244.453125 185.855469 244.453125 C 134.875 244.453125 93.546875 204.269531 93.546875 154.707031 C 93.546875 105.136719 134.875 64.953125 185.855469 64.953125 C 236.835938 64.953125 278.15625 105.136719 278.15625 154.707031 " fill-opacity="1" fill-rule="nonzero"/><path fill="#7bc13e" d="M 235.785156 72.398438 C 228.414062 74.988281 222.015625 90.398438 212.0625 89.964844 C 200.347656 89.453125 192.632812 104.96875 187.027344 98.855469 C 181.433594 92.738281 174.480469 90.671875 173.082031 95.894531 C 171.675781 101.117188 172.011719 120.519531 163.507812 127.191406 C 155.003906 133.871094 177.078125 152.453125 186.289062 156.378906 C 195.507812 160.300781 204.695312 164.816406 211.367188 173.332031 C 218.042969 181.84375 241.589844 166.421875 251.949219 170.984375 C 260.65625 174.824219 275.015625 172.265625 282.015625 166.945312 C 282.074219 166.089844 282.039062 165.222656 282.15625 164.375 C 286.746094 132.582031 268.722656 92.597656 235.785156 72.398438 " fill-opacity="1" fill-rule="nonzero"/><path fill="#7bc13e" d="M 233.097656 176.902344 C 225.292969 180.25 213.265625 179.820312 215.601562 186.824219 C 217.929688 193.839844 229.601562 198.507812 227.847656 210.777344 C 226.097656 223.035156 229.601562 233.542969 240.101562 223.035156 C 250.597656 212.527344 259.347656 203.179688 259.347656 187.410156 C 259.347656 171.644531 237.183594 175.144531 233.097656 176.902344 " fill-opacity="1" fill-rule="nonzero"/><path fill="#7bc13e" d="M 89.460938 147.195312 C 95.152344 150.949219 104.121094 151.464844 105.867188 153.558594 C 108.570312 156.808594 111.8125 155.183594 115.597656 161.132812 C 119.382812 167.085938 106.40625 175.199219 104.246094 185.480469 C 102.085938 195.765625 117.214844 211.992188 124.78125 220.109375 C 132.347656 228.222656 157.210938 235.792969 160.453125 235.792969 C 163.695312 235.792969 163.695312 231.472656 158.289062 220.109375 C 152.882812 208.746094 158.828125 191.976562 158.828125 181.152344 C 158.828125 170.335938 136.132812 166.546875 131.808594 164.921875 C 127.488281 163.296875 129.648438 158.433594 135.046875 150.316406 C 140.453125 142.203125 154.507812 139.492188 156.128906 130.300781 C 157.75 121.101562 139.917969 92.429688 153.429688 83.230469 C 165.4375 75.058594 155.667969 69.441406 149.167969 65.640625 C 116.347656 79.1875 92.574219 110.246094 89.460938 147.195312 " fill-opacity="1" fill-rule="nonzero"/><path fill="#1c8d40" d="M 235.804688 72.300781 C 229.804688 73.875 226.621094 79.945312 222.511719 84.0625 C 220.082031 86.492188 217.488281 88.226562 214.152344 89.125 C 210.402344 90.125 206.332031 90.140625 202.933594 92.199219 C 199.546875 94.25 197.191406 97.5625 193.269531 98.6875 C 192.625 98.871094 192.625 100.003906 193.378906 99.949219 C 196.757812 99.660156 199.164062 96.882812 201.542969 94.753906 C 203.050781 93.402344 204.632812 92.351562 206.605469 91.804688 C 208.648438 91.238281 210.746094 91.273438 212.832031 91 C 216.285156 90.546875 219.265625 89.367188 221.746094 86.863281 C 223.929688 84.679688 225.621094 82.046875 227.546875 79.636719 C 229.804688 76.808594 232.433594 74.160156 235.972656 73.042969 C 236.4375 72.894531 236.28125 72.171875 235.804688 72.300781 " fill-opacity="1" fill-rule="nonzero"/><path fill="#1c8d40" d="M 213.84375 173.644531 C 210.355469 170.328125 206.691406 167.226562 202.996094 164.144531 C 201.3125 162.738281 199.6875 161.261719 197.757812 160.191406 C 195.910156 159.167969 193.890625 158.433594 191.902344 157.738281 C 184.511719 155.15625 177.515625 151.21875 172.035156 145.554688 C 169.328125 142.753906 166.921875 139.640625 164.949219 136.277344 C 163.792969 134.320312 162.722656 132.078125 163.324219 129.753906 C 163.84375 127.757812 165.214844 126.21875 166.527344 124.707031 C 171.824219 118.585938 173.683594 109.882812 173.65625 101.945312 C 173.648438 99.589844 173.710938 97.015625 175.1875 95.0625 C 176.746094 93.003906 179.035156 92.394531 181.183594 94.023438 C 184.195312 96.316406 186.027344 101.683594 190.652344 100.710938 C 191.023438 100.632812 190.890625 100.082031 190.519531 100.144531 C 185.980469 100.90625 184.132812 94.4375 180.691406 92.660156 C 177.511719 91.027344 174.140625 93.121094 172.835938 96.144531 C 171.089844 100.226562 172.375 104.996094 171.761719 109.289062 C 171.109375 113.839844 169.496094 118.019531 166.808594 121.75 C 164.597656 124.832031 161.402344 128.003906 161.914062 132.121094 C 162.179688 134.207031 163.25 136.105469 164.320312 137.867188 C 165.332031 139.527344 166.4375 141.132812 167.648438 142.652344 C 172.59375 148.902344 179.078125 154.289062 186.324219 157.632812 C 188.449219 158.621094 190.625 159.417969 192.867188 160.070312 C 195.464844 160.832031 197.714844 161.863281 199.84375 163.550781 C 202.117188 165.371094 204.199219 167.4375 206.382812 169.355469 C 208.507812 171.222656 210.65625 173.042969 212.867188 174.808594 C 213.542969 175.339844 214.46875 174.242188 213.84375 173.644531 " fill-opacity="1" fill-rule="nonzero"/><path fill="#1c8d40" d="M 279.378906 167.34375 C 275.652344 169.128906 272.015625 170.628906 267.894531 171.230469 C 263.726562 171.847656 259.496094 171.574219 255.46875 170.328125 C 253.382812 169.683594 251.332031 168.90625 249.15625 168.632812 C 246.953125 168.351562 244.722656 168.519531 242.542969 168.890625 C 238.234375 169.632812 234.128906 171.097656 230.15625 172.898438 C 226.289062 174.648438 220.382812 178.414062 216.542969 174.621094 C 216.089844 174.171875 215.355469 174.84375 215.808594 175.292969 C 218.671875 178.097656 222.679688 177.152344 225.953125 175.675781 C 228.167969 174.675781 230.308594 173.605469 232.632812 172.835938 C 234.867188 172.09375 237.128906 171.496094 239.429688 171 C 241.878906 170.46875 244.375 170.074219 246.878906 170.109375 C 249.390625 170.152344 251.789062 170.789062 254.195312 171.441406 C 258.347656 172.5625 262.574219 173.234375 266.882812 172.910156 C 271.40625 172.582031 276.332031 171.355469 280.128906 168.757812 C 280.960938 168.191406 280.332031 166.890625 279.378906 167.34375 " fill-opacity="1" fill-rule="nonzero"/><path fill="#1c8d40" d="M 260.769531 185.492188 C 260.503906 183.316406 259.265625 181.328125 257.816406 179.722656 C 254.328125 175.886719 249.257812 174.050781 244.128906 174.1875 C 238.386719 174.332031 232.929688 176.488281 227.6875 178.632812 C 226.992188 178.917969 227.292969 180.058594 228 179.773438 C 235.835938 176.628906 245.835938 172.972656 253.613281 178.199219 C 255.339844 179.351562 256.808594 180.957031 257.886719 182.734375 C 259.203125 184.925781 259.273438 187.125 258.707031 189.574219 C 257.671875 194.019531 256.507812 198.488281 254.570312 202.640625 C 252.621094 206.847656 249.710938 210.214844 246.621094 213.609375 C 244.96875 215.417969 243.347656 217.246094 241.722656 219.078125 C 240.308594 220.667969 238.917969 222.390625 237.140625 223.59375 C 235.570312 224.652344 233.539062 225.3125 231.664062 224.722656 C 229.554688 224.058594 228.734375 221.902344 228.273438 219.917969 C 227.707031 217.496094 227.625 214.871094 227.6875 212.386719 C 227.707031 211.1875 227.789062 210 228.007812 208.820312 C 228.210938 207.675781 228.558594 206.546875 228.65625 205.390625 C 228.855469 203.09375 227.523438 201.492188 225.964844 200 C 223.957031 198.066406 222.179688 195.90625 220.382812 193.78125 C 218.804688 191.914062 216.71875 189.980469 215.894531 187.621094 C 215.214844 185.675781 215.761719 182.953125 218.0625 182.46875 C 218.675781 182.34375 218.410156 181.433594 217.808594 181.539062 C 216.171875 181.816406 215.046875 183.15625 214.628906 184.707031 C 214.132812 186.527344 214.738281 188.34375 215.734375 189.882812 C 217.070312 191.960938 218.964844 193.691406 220.636719 195.5 C 222.550781 197.570312 224.550781 199.628906 226.121094 201.996094 C 227.628906 204.292969 226.769531 206.9375 226.609375 209.515625 C 226.441406 212.335938 226.355469 215.09375 226.722656 217.902344 C 226.988281 220.023438 227.023438 222.515625 228.222656 224.367188 C 229.308594 226.019531 231.28125 226.816406 233.203125 226.832031 C 238.050781 226.878906 241.21875 222.445312 244.050781 219.140625 C 247.402344 215.222656 251.039062 211.316406 253.796875 206.933594 C 256.472656 202.675781 257.921875 197.828125 259.375 193.0625 C 260.117188 190.644531 261.082031 188.054688 260.769531 185.492188 " fill-opacity="1" fill-rule="nonzero"/><path fill="#1c8d40" d="M 162.164062 227.292969 C 161.304688 225.757812 160.03125 224.296875 159.808594 222.496094 C 159.570312 220.613281 160.359375 218.835938 159.941406 216.921875 C 159.5625 215.207031 158.617188 213.660156 157.890625 212.078125 C 157.039062 210.230469 156.613281 208.234375 156.554688 206.195312 C 156.449219 202.074219 157.613281 198.074219 158.617188 194.117188 C 160.351562 187.320312 161.570312 179.109375 155.988281 173.667969 C 154.917969 172.617188 153.652344 171.804688 152.246094 171.292969 C 150.519531 170.671875 148.652344 170.914062 146.925781 170.375 C 145.148438 169.816406 144.132812 168.164062 142.699219 167.101562 C 141.601562 166.289062 140.292969 165.824219 138.980469 165.519531 C 136.441406 164.9375 133.007812 164.945312 130.972656 163.117188 C 127.878906 160.335938 130.550781 155.972656 132.71875 153.621094 C 135.503906 150.589844 138.441406 147.628906 141.425781 144.785156 C 144.195312 142.152344 147.167969 140.136719 150.464844 138.234375 C 153.003906 136.769531 155.582031 134.984375 156.578125 132.085938 C 157.765625 128.589844 156.304688 124.371094 155.359375 120.972656 C 154.875 119.246094 154.273438 117.527344 153.402344 115.953125 C 152.492188 114.308594 151.09375 112.929688 150.289062 111.25 C 149.386719 109.386719 150.191406 107.441406 150.457031 105.527344 C 150.695312 103.800781 150.5 102.070312 150.191406 100.363281 C 149.546875 96.847656 148.121094 92.835938 150.042969 89.46875 C 151.660156 86.625 154.730469 85.035156 156.617188 82.402344 C 159.800781 77.96875 158.367188 71.472656 154.332031 68.078125 C 153.359375 67.257812 152.261719 66.65625 151.058594 66.269531 C 150.429688 66.066406 150.175781 67.035156 150.785156 67.25 C 156.058594 69.085938 158.527344 76.136719 155.609375 80.902344 C 153.96875 83.585938 151.15625 85.351562 149.414062 87.960938 C 147.574219 90.726562 147.714844 93.863281 148.230469 97 C 148.527344 98.800781 148.945312 100.578125 149.085938 102.398438 C 149.234375 104.367188 148.777344 106.03125 148.335938 107.921875 C 147.945312 109.617188 148.070312 111.136719 148.960938 112.65625 C 149.867188 114.1875 151.21875 115.394531 152.078125 116.953125 C 153.007812 118.648438 153.597656 120.503906 154.09375 122.367188 C 154.605469 124.300781 155.136719 126.308594 155.28125 128.304688 C 155.5625 132.0625 153.429688 134.355469 150.386719 136.152344 C 147.433594 137.910156 144.484375 139.4375 141.859375 141.707031 C 138.832031 144.339844 136.097656 147.308594 133.285156 150.164062 C 130.878906 152.613281 128.214844 155.191406 127.738281 158.769531 C 127.355469 161.679688 128.691406 164.40625 131.398438 165.628906 C 133.976562 166.792969 136.886719 166.492188 139.582031 167.238281 C 141.183594 167.6875 142.300781 168.542969 143.460938 169.703125 C 144.636719 170.878906 145.757812 171.820312 147.40625 172.230469 C 149.070312 172.644531 150.804688 172.671875 152.34375 173.492188 C 153.6875 174.207031 154.8125 175.292969 155.660156 176.550781 C 157.597656 179.410156 158.148438 182.824219 157.933594 186.226562 C 157.4375 194.082031 153.375 201.625 155.15625 209.613281 C 155.960938 213.226562 158.800781 216.160156 158.234375 220.003906 C 157.980469 221.691406 157.960938 223.148438 158.683594 224.730469 C 159.367188 226.25 160.519531 227.539062 161.117188 229.097656 C 161.589844 230.351562 161.828125 232.234375 160.578125 233.117188 C 159.683594 233.742188 160.519531 235.226562 161.445312 234.601562 C 163.925781 232.914062 163.453125 229.601562 162.164062 227.292969 " fill-opacity="1" fill-rule="nonzero"/><path fill="#1c8d40" d="M 159.941406 235.828125 C 155.492188 234.210938 150.890625 233.035156 146.433594 231.402344 C 142.023438 229.785156 137.789062 227.742188 133.78125 225.261719 C 129.78125 222.796875 126.046875 219.988281 122.71875 216.65625 C 121.054688 214.984375 119.519531 213.199219 118.050781 211.351562 C 116.542969 209.445312 114.941406 207.492188 113.84375 205.308594 C 111.703125 201.070312 109.113281 197.074219 106.910156 192.871094 C 105.734375 190.632812 104.730469 188.132812 104.792969 185.554688 C 104.855469 183.246094 105.863281 180.992188 107.199219 179.144531 C 109.875 175.433594 113.988281 173.03125 116.269531 168.992188 C 118.011719 165.902344 118.296875 161.695312 115.988281 158.796875 C 114.589844 157.046875 112.546875 156.542969 110.574219 155.707031 C 109.421875 155.226562 108.601562 154.582031 107.953125 153.503906 C 107.394531 152.578125 106.847656 151.632812 105.875 151.082031 C 103.882812 149.945312 101.15625 150.78125 98.988281 150.476562 C 96.238281 150.09375 93.566406 148.769531 91.46875 146.96875 C 91.144531 146.699219 90.691406 147.136719 91 147.433594 C 92.53125 148.902344 94.246094 150.039062 96.230469 150.792969 C 98.308594 151.589844 100.398438 151.78125 102.589844 151.957031 C 103.820312 152.046875 104.972656 152.320312 105.714844 153.398438 C 106.289062 154.230469 106.625 155.191406 107.335938 155.933594 C 108.730469 157.375 110.742188 157.738281 112.492188 158.542969 C 116.605469 160.421875 116.359375 165.582031 114.464844 169.019531 C 112.246094 173.03125 108.429688 175.867188 105.679688 179.484375 C 104.386719 181.1875 103.421875 183.097656 103.160156 185.242188 C 102.882812 187.574219 103.457031 189.828125 104.363281 191.957031 C 106.273438 196.402344 109.140625 200.425781 111.835938 204.410156 C 113.171875 206.378906 114.578125 208.304688 115.914062 210.277344 C 117.234375 212.226562 118.648438 214.09375 120.128906 215.921875 C 123.089844 219.554688 126.429688 222.785156 130.3125 225.421875 C 134.585938 228.320312 139.378906 230.359375 144.183594 232.191406 C 149.191406 234.113281 154.339844 235.980469 159.550781 237.25 C 160.484375 237.472656 160.828125 236.140625 159.941406 235.828125 " fill-opacity="1" fill-rule="nonzero"/><path fill="#1c8d40" d="M 265.839844 116.253906 C 264.824219 117.429688 263.746094 118.574219 262.859375 119.847656 C 262.480469 120.386719 263.285156 120.953125 263.734375 120.527344 C 264.824219 119.488281 265.75 118.277344 266.71875 117.128906 C 267.238281 116.527344 266.371094 115.640625 265.839844 116.253906 " fill-opacity="1" fill-rule="nonzero"/><path fill="#1c8d40" d="M 269.300781 119.070312 C 268.089844 120.707031 266.742188 122.242188 265.558594 123.902344 C 265.230469 124.363281 265.992188 124.796875 266.316406 124.339844 C 267.488281 122.695312 268.484375 120.925781 269.628906 119.257812 C 269.769531 119.054688 269.449219 118.875 269.300781 119.070312 " fill-opacity="1" fill-rule="nonzero"/><path fill="#1c8d40" d="M 270.050781 124.542969 C 269.519531 125.34375 268.988281 126.140625 268.449219 126.9375 C 267.957031 127.679688 267.398438 128.367188 267.160156 129.234375 C 267.035156 129.699219 267.585938 129.957031 267.917969 129.675781 C 268.601562 129.09375 268.992188 128.289062 269.457031 127.527344 C 269.953125 126.707031 270.457031 125.890625 270.953125 125.070312 C 271.300781 124.488281 270.421875 123.992188 270.050781 124.542969 " fill-opacity="1" fill-rule="nonzero"/><path fill="#1c8d40" d="M 271.351562 130.496094 C 270.644531 131.433594 269.902344 132.359375 269.265625 133.351562 C 268.875 133.953125 269.789062 134.683594 270.273438 134.128906 C 271.078125 133.191406 271.785156 132.175781 272.527344 131.183594 C 273.050781 130.476562 271.867188 129.804688 271.351562 130.496094 " fill-opacity="1" fill-rule="nonzero"/><path fill="#1c8d40" d="M 271.609375 138.890625 C 271.386719 138.667969 271 138.667969 270.777344 138.890625 L 269.722656 139.953125 C 269.496094 140.179688 269.496094 140.558594 269.722656 140.78125 C 269.945312 141.003906 270.324219 141.003906 270.546875 140.78125 L 271.609375 139.71875 C 271.832031 139.492188 271.832031 139.113281 271.609375 138.890625 " fill-opacity="1" fill-rule="nonzero"/><path fill="#1c8d40" d="M 118.421875 190.199219 C 117.449219 191.171875 116.589844 192.332031 116.144531 193.644531 C 115.933594 194.265625 116.914062 194.679688 117.214844 194.089844 C 117.785156 192.976562 118.375 191.941406 119.253906 191.039062 C 119.789062 190.492188 118.960938 189.660156 118.421875 190.199219 " fill-opacity="1" fill-rule="nonzero"/><path fill="#1c8d40" d="M 123.410156 193.070312 C 122.292969 194.222656 121.304688 195.511719 120.523438 196.917969 C 119.808594 198.207031 119.023438 199.726562 118.988281 201.21875 C 118.976562 201.730469 119.703125 201.925781 119.949219 201.476562 C 120.625 200.238281 120.949219 198.824219 121.613281 197.5625 C 122.320312 196.21875 123.191406 194.992188 124.207031 193.867188 C 124.695312 193.328125 123.914062 192.535156 123.410156 193.070312 " fill-opacity="1" fill-rule="nonzero"/><path fill="#1c8d40" d="M 125.863281 197.332031 C 124.90625 200.253906 123.242188 203.375 123.292969 206.527344 C 123.296875 207.023438 123.933594 207.050781 124.101562 206.628906 C 124.691406 205.203125 124.851562 203.542969 125.128906 202.023438 C 125.417969 200.484375 125.648438 198.902344 126.082031 197.386719 C 126.125 197.25 125.90625 197.191406 125.863281 197.332031 " fill-opacity="1" fill-rule="nonzero"/><path fill="#1c8d40" d="M 130.425781 201.679688 C 129.277344 204.285156 128.304688 207.757812 129.132812 210.59375 C 129.300781 211.183594 130.132812 211.035156 130.167969 210.453125 C 130.25 209.09375 130.097656 207.757812 130.265625 206.40625 C 130.4375 204.972656 130.832031 203.578125 131.390625 202.246094 C 131.664062 201.597656 130.71875 201.015625 130.425781 201.679688 " fill-opacity="1" fill-rule="nonzero"/><path fill="#1c8d40" d="M 134.585938 208.003906 C 133.769531 209.921875 133.375 212.148438 134.179688 214.128906 C 134.371094 214.597656 135.203125 214.605469 135.152344 213.996094 C 134.992188 212.058594 134.972656 210.320312 135.742188 208.492188 C 136.011719 207.84375 134.867188 207.351562 134.585938 208.003906 " fill-opacity="1" fill-rule="nonzero"/><path fill="#1c8d40" d="M 141.582031 216.523438 C 140.945312 215.304688 140.8125 213.996094 141.300781 212.699219 C 141.558594 212.015625 140.460938 211.722656 140.195312 212.398438 C 139.59375 213.949219 139.71875 215.691406 140.65625 217.0625 C 141.042969 217.628906 141.902344 217.140625 141.582031 216.523438 " fill-opacity="1" fill-rule="nonzero"/><path fill="#1c8d40" d="M 240.882812 213.378906 C 240.4375 212.800781 240.039062 212.253906 240.058594 211.496094 C 240.074219 210.65625 238.777344 210.65625 238.757812 211.496094 C 238.738281 212.503906 239.175781 213.675781 240.136719 214.128906 C 240.570312 214.332031 241.253906 213.863281 240.882812 213.378906 " fill-opacity="1" fill-rule="nonzero"/><path fill="#1c8d40" d="M 243.625 209.96875 C 243.148438 209.976562 242.746094 209.355469 242.988281 208.941406 C 243.199219 208.585938 242.695312 208.171875 242.410156 208.492188 C 242.003906 208.957031 241.96875 209.578125 242.226562 210.125 C 242.511719 210.726562 243.109375 211.007812 243.75 210.910156 C 244.289062 210.824219 244.148438 209.964844 243.625 209.96875 " fill-opacity="1" fill-rule="nonzero"/><path fill="#1c8d40" d="M 247.304688 206.945312 C 247.152344 206.6875 246.996094 206.46875 246.785156 206.257812 L 246.226562 205.699219 C 245.976562 205.449219 245.519531 205.433594 245.277344 205.699219 C 245.03125 205.957031 245.003906 206.394531 245.277344 206.652344 C 245.464844 206.832031 245.660156 207.015625 245.851562 207.199219 C 246.066406 207.40625 246.285156 207.554688 246.542969 207.703125 C 247.023438 207.96875 247.585938 207.4375 247.304688 206.945312 " fill-opacity="1" fill-rule="nonzero"/><path fill="#1c8d40" d="M 249.585938 203.800781 C 249.457031 203.542969 249.199219 203.359375 248.96875 203.199219 C 248.757812 203.046875 248.550781 202.898438 248.339844 202.746094 C 248.199219 202.648438 247.976562 202.710938 247.871094 202.84375 C 247.757812 202.996094 247.789062 203.171875 247.90625 203.320312 C 248.058594 203.515625 248.214844 203.710938 248.367188 203.914062 C 248.527344 204.109375 248.710938 204.335938 248.949219 204.4375 C 249.375 204.621094 249.800781 204.242188 249.585938 203.800781 " fill-opacity="1" fill-rule="nonzero"/><path fill="#1c8d40" d="M 250.894531 200.371094 C 250.886719 200.328125 250.871094 200.292969 250.859375 200.253906 C 250.808594 200.113281 250.753906 200.007812 250.648438 199.902344 C 250.585938 199.832031 250.523438 199.761719 250.453125 199.699219 C 250.339844 199.574219 250.152344 199.503906 249.984375 199.503906 C 249.824219 199.503906 249.625 199.574219 249.515625 199.699219 C 249.394531 199.824219 249.3125 199.992188 249.320312 200.167969 C 249.324219 200.34375 249.382812 200.519531 249.515625 200.644531 C 249.578125 200.707031 249.640625 200.769531 249.710938 200.832031 C 249.816406 200.929688 249.921875 200.996094 250.058594 201.042969 C 250.09375 201.058594 250.144531 201.066406 250.1875 201.078125 C 250.597656 201.210938 251.027344 200.785156 250.894531 200.371094 " fill-opacity="1" fill-rule="nonzero"/><g clip-path="url(#397529ffde)"><path fill="#16836e" d="M 186.121094 252.566406 C 202.914062 245.777344 234.023438 224.546875 236.847656 189.160156 C 239.675781 153.777344 250.984375 158.019531 270.785156 155.191406 C 290.578125 152.363281 289.164062 155.191406 296.234375 136.789062 C 303.308594 118.390625 311.789062 125.460938 325.925781 119.804688 C 340.066406 114.140625 354.210938 102.820312 354.210938 102.820312 C 354.210938 102.820312 342.894531 126.882812 338.65625 145.285156 C 334.410156 163.683594 325.925781 191.992188 304.71875 199.070312 C 283.507812 206.148438 300.472656 207.5625 275.03125 233.039062 C 249.570312 258.519531 186.121094 252.566406 186.121094 252.566406 " fill-opacity="1" fill-rule="nonzero"/></g><path fill="#1ca389" d="M 344.605469 115.042969 C 339.871094 121.464844 335.046875 127.8125 330.339844 134.253906 C 325.679688 140.621094 321.105469 147.054688 316.511719 153.460938 C 309.929688 162.632812 303.488281 171.953125 296.464844 180.800781 C 298.851562 166.125 299.703125 150.820312 305.636719 137.027344 C 307.28125 133.199219 309.320312 129.542969 311.847656 126.226562 C 312.328125 125.589844 311.222656 124.726562 310.726562 125.363281 C 301.179688 137.484375 298.902344 152.972656 296.824219 167.8125 C 296.109375 172.902344 295.214844 177.972656 294.640625 183.078125 C 292.808594 185.339844 290.933594 187.558594 289.003906 189.734375 C 286.085938 193.027344 283.050781 196.226562 279.917969 199.3125 C 279.671875 196.941406 279.34375 194.566406 279.203125 192.179688 C 279.023438 189.261719 278.972656 186.332031 279.023438 183.40625 C 279.136719 177.492188 279.617188 171.539062 280.644531 165.707031 C 280.800781 164.832031 279.476562 164.445312 279.296875 165.335938 C 278.113281 171.230469 277.324219 177.167969 277.15625 183.183594 C 277.066406 186.179688 277.128906 189.183594 277.296875 192.179688 C 277.464844 195.097656 277.636719 198.117188 278.191406 200.996094 C 272.6875 206.292969 266.875 211.273438 260.796875 215.894531 C 256.65625 219.050781 252.390625 222.042969 248.011719 224.863281 C 251.328125 215.207031 248.789062 204.207031 246.457031 194.609375 C 246.269531 193.824219 245.101562 194.160156 245.261719 194.9375 C 246.382812 200.539062 247.519531 206.21875 247.71875 211.945312 C 247.886719 216.984375 247.164062 221.894531 245.332031 226.570312 C 239.777344 230.042969 234.050781 233.242188 228.195312 236.171875 C 216.699219 241.90625 204.648438 246.511719 192.238281 249.878906 C 190.671875 250.304688 189.097656 250.707031 187.519531 251.097656 C 186.316406 251.390625 186.824219 253.246094 188.035156 252.960938 C 197.597656 250.65625 206.976562 247.640625 216.097656 243.957031 C 216.25 244.097656 216.472656 244.160156 216.738281 244.054688 C 219.503906 243.03125 222.40625 242.898438 225.316406 242.851562 C 228.292969 242.800781 231.265625 242.75 234.246094 242.695312 C 240.289062 242.589844 246.359375 242.652344 252.402344 242.4375 C 253.460938 242.402344 253.464844 240.785156 252.402344 240.785156 C 246.199219 240.792969 239.988281 241.070312 233.785156 241.183594 C 230.75 241.238281 227.714844 241.28125 224.679688 241.359375 C 223.75 241.378906 222.824219 241.421875 221.894531 241.5 C 222.847656 241.085938 223.785156 240.664062 224.71875 240.230469 C 231.945312 236.914062 238.960938 233.160156 245.722656 229 C 245.976562 229.007812 246.234375 228.882812 246.410156 228.574219 C 250.425781 226.082031 254.355469 223.441406 258.1875 220.660156 C 260.285156 219.140625 262.347656 217.582031 264.382812 215.976562 C 264.398438 215.976562 264.414062 215.984375 264.433594 215.992188 C 267.453125 216.503906 270.511719 216.894531 273.574219 217.050781 C 276.601562 217.203125 279.800781 217.363281 282.792969 216.804688 C 283.785156 216.621094 283.507812 215.125 282.5625 215.09375 C 279.644531 215.019531 276.722656 215.347656 273.796875 215.269531 C 271.191406 215.207031 268.585938 215.03125 266 214.695312 C 273.5625 208.625 280.667969 202.003906 287.242188 194.859375 C 294.207031 187.300781 300.445312 179.136719 306.496094 170.832031 C 306.636719 170.949219 306.832031 171.035156 307.078125 171.027344 C 314.15625 170.964844 321.191406 168.753906 326.925781 164.574219 C 327.890625 163.867188 326.976562 162.242188 325.980469 162.949219 C 320.582031 166.757812 314.300781 168.957031 307.699219 169.164062 C 309.917969 166.097656 312.121094 163.019531 314.316406 159.9375 C 323.660156 146.871094 333.179688 133.890625 342.132812 120.554688 C 343.25 118.886719 344.363281 117.222656 345.507812 115.570312 C 345.894531 115.007812 345 114.511719 344.605469 115.042969 " fill-opacity="1" fill-rule="nonzero"/><path fill="#1ca389" d="M 254.328125 178.910156 C 254.132812 174.179688 254.296875 169.425781 255.011719 164.742188 C 255.152344 163.832031 253.765625 163.417969 253.605469 164.355469 C 252.207031 172.398438 252.613281 180.332031 253.347656 188.425781 C 254.039062 196.050781 254.71875 203.816406 253.332031 211.414062 C 252.597656 215.4375 251.160156 219.324219 248.960938 222.769531 C 248.535156 223.449219 249.589844 224.050781 250.023438 223.398438 C 258.753906 210.136719 254.929688 193.671875 254.328125 178.910156 " fill-opacity="1" fill-rule="nonzero"/><path fill="#1e545f" d="M 137.734375 216.171875 C 132.1875 209.710938 126.425781 203.492188 121.199219 196.75 C 117.457031 191.925781 113.898438 186.964844 110.507812 181.878906 C 109.511719 178.367188 108.902344 174.835938 109.085938 171.132812 C 109.183594 169.046875 109.546875 167.015625 110.058594 164.984375 C 110.519531 163.144531 110.988281 161.246094 110.695312 159.34375 C 110.492188 157.996094 109.757812 156.535156 108.296875 156.28125 C 106.925781 156.050781 105.898438 157.023438 105.378906 158.199219 C 104.695312 159.75 104.785156 161.546875 104.796875 163.199219 C 104.820312 165.265625 104.972656 167.316406 105.246094 169.363281 C 105.539062 171.558594 105.996094 173.710938 106.589844 175.824219 C 106.582031 175.808594 106.574219 175.804688 106.566406 175.789062 C 104.132812 171.902344 101.804688 167.941406 99.582031 163.921875 C 99.574219 163.914062 99.574219 163.90625 99.566406 163.894531 C 97.945312 158.214844 97.882812 152.332031 100.167969 146.796875 C 101.203125 144.28125 102.769531 141.851562 102.804688 139.050781 C 102.828125 136.851562 101.847656 134.578125 99.847656 133.511719 C 99.425781 133.289062 98.859375 133.316406 98.523438 133.683594 C 96.753906 135.578125 95.734375 137.945312 95.042969 140.425781 C 94.265625 143.226562 93.613281 146.160156 93.488281 149.0625 C 93.460938 149.828125 93.476562 150.582031 93.53125 151.324219 C 93.265625 151.109375 92.992188 150.890625 92.726562 150.679688 C 92.65625 150.535156 92.585938 150.394531 92.515625 150.246094 C 92.886719 142.714844 93.097656 135.160156 93.398438 127.617188 C 93.539062 124.25 94.015625 120.707031 93.539062 117.347656 C 93.1875 114.910156 92.078125 112.472656 89.503906 111.800781 C 88.964844 111.660156 88.503906 111.90625 88.195312 112.335938 C 86.628906 114.496094 86.417969 117.226562 86.628906 119.8125 C 86.878906 122.960938 87.503906 126.097656 87.984375 129.214844 C 88.496094 132.535156 88.984375 135.851562 89.488281 139.164062 C 89.742188 140.824219 90 142.476562 90.273438 144.128906 C 90.371094 144.742188 90.445312 145.351562 90.507812 145.960938 C 89.238281 143.191406 88.019531 140.394531 86.84375 137.589844 C 85.460938 133.09375 84.558594 128.421875 83.789062 123.816406 C 83.046875 119.371094 82.4375 114.898438 81.59375 110.472656 C 81.164062 108.21875 80.65625 105.96875 80.039062 103.757812 C 79.488281 101.742188 78.789062 99.695312 77.429688 98.078125 C 75.128906 95.339844 70.210938 94.320312 68.15625 97.945312 C 67.164062 99.6875 67.332031 101.832031 67.667969 103.734375 C 68.085938 106.171875 68.808594 108.566406 69.632812 110.890625 C 71.3125 115.609375 73.578125 120.089844 75.886719 124.523438 C 78.332031 129.242188 80.84375 133.925781 83.332031 138.625 C 83.570312 139.074219 83.816406 139.519531 84.054688 139.976562 C 83.25 139.023438 82.4375 138.085938 81.605469 137.15625 C 79.84375 135.171875 78.039062 133.234375 76.207031 131.328125 C 74.464844 129.523438 72.746094 127.542969 70.792969 125.972656 C 69.339844 124.796875 66.960938 124.1875 65.890625 126.210938 C 64.925781 128.03125 66.234375 130.144531 67.28125 131.589844 C 70.136719 135.496094 73.941406 138.484375 77.703125 141.453125 C 81.828125 144.710938 85.964844 147.945312 90.097656 151.179688 C 90.355469 151.648438 90.609375 152.109375 90.867188 152.578125 C 92.105469 155.167969 93.390625 157.746094 94.71875 160.292969 C 91.441406 157.128906 87.515625 154.769531 82.886719 154.519531 C 80.992188 154.414062 79.125 155.394531 79.089844 157.492188 C 79.054688 159.335938 80.277344 160.902344 81.667969 161.976562 C 84.871094 164.445312 89.285156 164.878906 92.878906 166.632812 C 96.617188 168.453125 99.617188 170.992188 102.398438 173.925781 C 103.394531 175.566406 104.398438 177.183594 105.429688 178.800781 C 104.105469 177.828125 102.695312 176.972656 101.195312 176.265625 C 99.75 175.585938 98.246094 174.984375 96.699219 174.570312 C 95.558594 174.261719 94.070312 174.164062 93.277344 175.222656 C 91.574219 177.484375 95.222656 180.320312 96.9375 181.179688 C 99.628906 182.515625 102.628906 183.0625 105.335938 184.367188 C 108.269531 185.773438 110.6875 187.746094 112.988281 189.96875 C 114.394531 191.941406 115.835938 193.894531 117.304688 195.820312 C 120.199219 199.621094 123.199219 203.355469 126.296875 206.988281 C 129.445312 210.671875 132.65625 214.394531 136.195312 217.714844 C 137.230469 218.695312 138.648438 217.230469 137.734375 216.171875 " fill-opacity="1" fill-rule="nonzero"/><path fill="#1e545f" d="M 304.125 73.855469 C 303.675781 72.371094 302.152344 71.894531 300.753906 72.109375 C 297.605469 72.605469 295.101562 75.105469 293.269531 77.535156 C 291.082031 80.429688 289.359375 83.734375 287.730469 86.960938 C 286.121094 90.140625 284.695312 93.402344 283.457031 96.71875 C 283.476562 96.582031 283.5 96.449219 283.519531 96.308594 C 285.855469 88.523438 287.898438 80.632812 289.648438 72.691406 C 291.613281 63.757812 293.355469 54.5625 293.765625 45.40625 C 293.859375 43.382812 294.03125 41.03125 292.859375 39.253906 C 291.84375 37.710938 289.90625 36.78125 288.101562 37.390625 C 287.996094 37.425781 287.90625 37.480469 287.820312 37.535156 C 287.800781 37.535156 287.773438 37.535156 287.75 37.535156 C 284.652344 37.824219 283.050781 40.722656 282.378906 43.472656 C 281.394531 47.492188 281.253906 51.75 281.457031 55.867188 C 281.675781 60.230469 282.171875 64.5625 282.402344 68.917969 C 282.617188 73.210938 282.582031 77.53125 282.375 81.820312 C 282.136719 86.785156 281.617188 91.75 281.050781 96.6875 C 281.042969 96.777344 281.050781 96.867188 281.078125 96.945312 C 280.09375 102.449219 278.988281 107.9375 277.757812 113.390625 C 278.058594 109.722656 278.199219 106.039062 278.148438 102.34375 C 278.101562 98.40625 277.875 94.464844 277.433594 90.546875 C 277.113281 87.695312 276.625 84.816406 275.554688 82.136719 C 274.386719 79.195312 272.546875 76.550781 269.722656 74.988281 C 269.246094 74.730469 268.488281 74.832031 268.238281 75.378906 C 266.804688 78.488281 267.628906 81.722656 268.777344 84.796875 C 270 88.117188 271.203125 91.433594 272.160156 94.835938 C 274.128906 101.789062 275.34375 108.972656 275.289062 116.210938 C 275.273438 119.246094 275 122.234375 274.589844 125.21875 C 274.496094 125.503906 274.398438 125.777344 274.308594 126.0625 C 274.226562 126.324219 274.261719 126.546875 274.371094 126.722656 C 274.324219 126.988281 274.289062 127.253906 274.238281 127.527344 C 273.8125 129.109375 273.371094 130.699219 272.910156 132.273438 C 272.132812 134.96875 271.316406 137.652344 270.457031 140.324219 C 271.121094 134.324219 271.390625 128.332031 271.042969 122.261719 C 270.832031 118.59375 270.425781 114.929688 269.824219 111.296875 C 269.34375 108.398438 268.652344 105.25 266.753906 102.910156 C 266.054688 102.042969 264.929688 101.523438 263.886719 102.1875 C 262.789062 102.882812 262.59375 104.339844 262.609375 105.523438 C 262.628906 109 263.335938 112.46875 264.070312 115.855469 C 265.523438 122.5625 266.921875 129.292969 267.351562 136.160156 C 267.714844 141.972656 267.378906 147.707031 265.949219 153.273438 C 265.25 155.113281 264.539062 156.949219 263.804688 158.769531 C 264.117188 156.640625 264.320312 154.484375 264.40625 152.304688 C 264.621094 146.71875 264.566406 140.074219 260.277344 135.886719 C 259.808594 135.433594 259.054688 135.433594 258.578125 135.886719 C 256.480469 137.917969 256.628906 140.886719 257.277344 143.519531 C 258.0625 146.699219 259.171875 149.734375 259.726562 152.976562 C 260.699219 158.640625 260.523438 164.460938 258.976562 169.96875 C 254.046875 180.710938 248.359375 191.09375 241.820312 200.960938 C 234.15625 212.519531 225.257812 223.113281 215.621094 233.0625 C 214.636719 234.082031 216.132812 235.566406 217.171875 234.617188 C 226.371094 226.171875 234.335938 216.417969 241.449219 206.167969 C 248.523438 195.972656 254.691406 185.15625 260 173.941406 C 262.152344 169.390625 264.160156 164.777344 266.035156 160.113281 C 266.335938 160.113281 266.644531 159.957031 266.785156 159.609375 C 267.105469 158.796875 267.425781 157.976562 267.753906 157.15625 C 270.40625 152.941406 273.15625 148.796875 276.351562 144.976562 C 278.007812 142.988281 279.757812 141.074219 281.574219 139.246094 C 283.277344 137.546875 285.078125 135.941406 286.507812 134.003906 C 287.5 132.660156 289.519531 129.464844 287.015625 128.492188 C 285.039062 127.714844 282.5625 130.132812 281.175781 131.273438 C 277.757812 134.101562 274.960938 137.660156 272.722656 141.480469 C 275.140625 133.914062 277.246094 126.238281 279.070312 118.503906 C 283.710938 107.277344 289.632812 96.609375 297.039062 86.960938 C 299.203125 84.140625 301.769531 81.449219 303.273438 78.1875 C 303.867188 76.90625 304.550781 75.296875 304.125 73.855469 " fill-opacity="1" fill-rule="nonzero"/><path fill="#1e545f" d="M 163.179688 245.953125 C 159.164062 237.949219 154.820312 230.136719 150.945312 222.054688 C 147.058594 213.949219 143.386719 205.71875 139.957031 197.402344 C 139.050781 195.195312 138.152344 192.976562 137.273438 190.75 C 136.398438 187.839844 135.566406 184.890625 134.8125 181.914062 C 135.523438 177.601562 135.796875 173.171875 136.125 168.824219 C 136.480469 164.1875 136.796875 159.558594 136.949219 154.910156 C 137.25 145.554688 137.117188 136.175781 136.53125 126.835938 C 136.476562 125.992188 135.203125 125.441406 134.789062 126.359375 C 127.941406 141.507812 127.929688 158.515625 131.207031 174.5625 C 127.941406 165.378906 124.941406 156.101562 122.214844 146.746094 C 120.816406 141.976562 119.492188 137.183594 118.25 132.371094 C 116.960938 127.421875 115.480469 122.527344 114.359375 117.535156 C 114.21875 116.925781 113.28125 117.1875 113.414062 117.800781 C 114.375 122.25 115.164062 126.730469 116.199219 131.167969 C 117.039062 134.796875 117.996094 138.402344 118.976562 141.992188 C 114.765625 134.578125 108.304688 128.417969 100.75 124.539062 C 100.441406 124.382812 100.148438 124.417969 99.917969 124.558594 C 99.398438 124.601562 98.894531 125.175781 99.1875 125.804688 C 105.363281 138.996094 117.066406 148.488281 123.789062 161.359375 C 125.695312 165.007812 127.03125 168.851562 127.867188 172.875 C 127.941406 173.261719 128.300781 173.421875 128.640625 173.402344 C 134.140625 189.195312 140.453125 204.71875 147.539062 219.871094 C 149.671875 224.441406 151.882812 228.972656 154.15625 233.472656 C 156.457031 238.03125 158.738281 242.632812 161.351562 247.015625 C 162.058594 248.191406 163.78125 247.164062 163.179688 245.953125 " fill-opacity="1" fill-rule="nonzero"/><path fill="#dd6f3b" d="M 123.359375 88.824219 C 122.90625 87.253906 121.96875 85.53125 120.339844 84.9375 C 118.785156 84.363281 117.207031 85.285156 116.648438 86.765625 C 116.207031 87.933594 116.527344 89.914062 115.542969 90.804688 C 113.714844 92.449219 111.546875 88.269531 110.625 87.296875 C 109.367188 85.972656 107.289062 85.0625 105.554688 86.042969 C 103.566406 87.175781 104.070312 89.417969 104.050781 91.300781 C 104.03125 93.179688 102.460938 94.171875 100.699219 94.222656 C 98.734375 94.269531 97.1875 92.210938 95.238281 92.925781 C 94.601562 93.15625 94.125 93.578125 93.777344 94.089844 C 93.496094 94.058594 93.203125 94.171875 92.992188 94.492188 C 91.796875 96.285156 92.175781 98.429688 92.59375 100.425781 C 93.070312 102.679688 93.824219 104.855469 94.824219 106.9375 C 96.777344 110.996094 99.617188 114.867188 103.359375 117.445312 C 106.671875 119.726562 111.351562 121.199219 115.214844 119.441406 C 118.800781 117.808594 120.660156 114.027344 121.800781 110.457031 C 123.261719 105.894531 124.285156 101.035156 124.292969 96.222656 C 124.292969 93.730469 124.054688 91.222656 123.359375 88.824219 " fill-opacity="1" fill-rule="nonzero"/><path fill="#1e545f" d="M 102.742188 97.734375 C 102.097656 96.390625 101.398438 95.066406 100.664062 93.773438 C 99.441406 91.625 98.097656 89.535156 96.671875 87.519531 C 96.839844 87.21875 96.945312 86.875 96.957031 86.527344 C 96.992188 85.46875 96.257812 84.585938 95.382812 84.070312 C 94.382812 83.472656 93.308594 84.230469 93.132812 85.300781 C 93.046875 85.804688 93.167969 86.308594 93.445312 86.695312 C 93.578125 87.191406 93.796875 87.660156 94.113281 88.121094 C 94.34375 88.472656 94.8125 88.570312 95.203125 88.527344 C 95.398438 88.507812 95.585938 88.457031 95.761719 88.382812 C 97.132812 90.433594 98.390625 92.5625 99.523438 94.765625 C 100.140625 95.964844 100.714844 97.183594 101.265625 98.414062 C 101.839844 99.6875 102.261719 101.089844 103.050781 102.246094 C 103.460938 102.839844 104.386719 102.335938 104.289062 101.675781 C 104.078125 100.296875 103.335938 98.980469 102.742188 97.734375 " fill-opacity="1" fill-rule="nonzero"/><path fill="#1e545f" d="M 107.695312 76.585938 C 108.246094 76.066406 108.304688 75.304688 108.121094 74.601562 C 107.828125 73.453125 106.828125 72.230469 105.503906 72.707031 C 105.40625 72.742188 105.316406 72.78125 105.230469 72.839844 C 104.839844 72.949219 104.574219 73.292969 104.464844 73.699219 C 104.386719 73.894531 104.351562 74.097656 104.351562 74.300781 C 104.289062 74.820312 104.316406 75.339844 104.53125 75.84375 C 104.722656 76.269531 105.0625 76.605469 105.476562 76.816406 C 105.5625 80.636719 105.863281 84.441406 106.484375 88.214844 C 107.191406 92.5 108.128906 96.988281 109.882812 100.976562 C 110.273438 101.878906 111.890625 101.453125 111.589844 100.453125 C 110.359375 96.363281 108.945312 92.378906 108.09375 88.179688 C 107.34375 84.511719 106.855469 80.785156 106.695312 77.039062 C 107.066406 76.996094 107.421875 76.84375 107.695312 76.585938 " fill-opacity="1" fill-rule="nonzero"/><path fill="#1e545f" d="M 115.949219 82.304688 C 115.464844 82.085938 114.898438 82.136719 114.449219 82.386719 C 114.351562 82.386719 114.261719 82.410156 114.171875 82.445312 C 113.03125 82.886719 112.96875 84.398438 113.714844 85.222656 C 113.976562 85.503906 114.277344 85.6875 114.597656 85.777344 C 114.570312 90.1875 114.3125 94.605469 114.386719 99.023438 C 114.402344 100.046875 115.976562 100.257812 116.003906 99.199219 C 116.109375 94.773438 115.878906 90.34375 115.882812 85.917969 C 115.882812 85.820312 115.863281 85.734375 115.835938 85.65625 C 116.109375 85.519531 116.351562 85.316406 116.550781 85.027344 C 117.144531 84.132812 117.015625 82.78125 115.949219 82.304688 " fill-opacity="1" fill-rule="nonzero"/><path fill="#f27949" d="M 121.921875 91.796875 C 120.359375 91.980469 119.765625 93.410156 119.332031 94.726562 C 119.109375 95.398438 118.933594 96.125 118.359375 96.601562 C 117.605469 97.210938 116.519531 97.324219 115.613281 97.058594 C 114.730469 96.789062 113.960938 96.203125 113.34375 95.539062 C 112.765625 94.90625 112.34375 94.046875 111.570312 93.632812 C 109.835938 92.738281 108.5625 94.816406 107.972656 96.140625 C 107.253906 97.765625 106.476562 101.503906 103.960938 100.332031 C 102.511719 99.660156 100.894531 98.332031 99.34375 99.597656 C 98.621094 100.1875 98.488281 101.019531 98.21875 101.847656 C 97.789062 103.121094 96.636719 102.125 95.949219 101.53125 C 94.914062 100.640625 93.511719 99.667969 92.160156 99.808594 C 92.125 98.863281 90.71875 98.378906 90.40625 99.4375 C 89.203125 103.476562 92.25 107.222656 94.707031 110.121094 C 97.351562 113.230469 100.628906 115.925781 104.085938 118.082031 C 107.253906 120.070312 111.308594 122.585938 115.15625 121.113281 C 118.863281 119.699219 121.207031 115.519531 122.792969 112.117188 C 124.507812 108.449219 125.394531 104.367188 125.453125 100.328125 C 125.488281 98.023438 125.773438 91.351562 121.921875 91.796875 " fill-opacity="1" fill-rule="nonzero"/><path fill="#dd6f3b" d="M 54.503906 127.308594 C 53.238281 126.28125 51.488281 125.398438 49.8125 125.832031 C 48.207031 126.246094 47.433594 127.914062 47.808594 129.445312 C 48.109375 130.65625 49.503906 132.097656 49.195312 133.394531 C 48.628906 135.78125 44.46875 133.582031 43.160156 133.3125 C 41.375 132.933594 39.144531 133.375 38.277344 135.164062 C 37.285156 137.222656 38.976562 138.785156 40.027344 140.347656 C 41.066406 141.894531 40.347656 143.609375 38.921875 144.652344 C 37.339844 145.816406 34.90625 145.003906 33.695312 146.699219 C 33.304688 147.25 33.152344 147.859375 33.15625 148.488281 C 32.914062 148.621094 32.738281 148.882812 32.746094 149.265625 C 32.78125 151.421875 34.304688 152.972656 35.78125 154.371094 C 37.457031 155.960938 39.3125 157.320312 41.320312 158.460938 C 45.230469 160.6875 49.769531 162.253906 54.300781 162.242188 C 58.335938 162.234375 63.015625 160.777344 65.191406 157.136719 C 67.21875 153.753906 66.605469 149.582031 65.511719 145.996094 C 64.121094 141.410156 62.195312 136.832031 59.46875 132.871094 C 58.058594 130.824219 56.433594 128.894531 54.503906 127.308594 " fill-opacity="1" fill-rule="nonzero"/><path fill="#1e545f" d="M 42.605469 146.382812 C 41.304688 145.640625 39.984375 144.953125 38.640625 144.308594 C 36.417969 143.230469 34.128906 142.28125 31.808594 141.4375 C 31.773438 141.089844 31.660156 140.753906 31.480469 140.460938 C 30.90625 139.5625 29.800781 139.261719 28.785156 139.332031 C 27.625 139.410156 27.171875 140.640625 27.632812 141.621094 C 27.855469 142.089844 28.242188 142.425781 28.6875 142.59375 C 29.078125 142.921875 29.527344 143.191406 30.039062 143.386719 C 30.429688 143.539062 30.871094 143.359375 31.171875 143.105469 C 31.324219 142.972656 31.445312 142.824219 31.550781 142.65625 C 33.84375 143.566406 36.089844 144.605469 38.269531 145.773438 C 39.460938 146.402344 40.621094 147.082031 41.773438 147.777344 C 42.964844 148.503906 44.109375 149.414062 45.417969 149.910156 C 46.097656 150.171875 46.566406 149.226562 46.117188 148.75 C 45.160156 147.726562 43.800781 147.0625 42.605469 146.382812 " fill-opacity="1" fill-rule="nonzero"/><path fill="#1e545f" d="M 34.660156 126.160156 C 34.820312 125.417969 34.429688 124.761719 33.886719 124.292969 C 32.988281 123.515625 31.472656 123.074219 30.660156 124.222656 C 30.597656 124.304688 30.546875 124.390625 30.507812 124.480469 C 30.253906 124.796875 30.226562 125.230469 30.367188 125.628906 C 30.414062 125.832031 30.5 126.023438 30.617188 126.191406 C 30.855469 126.652344 31.179688 127.058594 31.640625 127.351562 C 32.039062 127.597656 32.515625 127.679688 32.96875 127.617188 C 35.207031 130.707031 37.621094 133.667969 40.269531 136.417969 C 43.292969 139.542969 46.605469 142.699219 50.3125 144.988281 C 51.152344 145.507812 52.238281 144.234375 51.425781 143.582031 C 48.089844 140.914062 44.667969 138.441406 41.570312 135.472656 C 38.878906 132.882812 36.355469 130.097656 34.101562 127.105469 C 34.382812 126.863281 34.585938 126.53125 34.660156 126.160156 " fill-opacity="1" fill-rule="nonzero"/><path fill="#1e545f" d="M 44.699219 126.167969 C 44.179688 126.265625 43.746094 126.632812 43.515625 127.09375 C 43.4375 127.148438 43.367188 127.210938 43.320312 127.296875 C 42.628906 128.3125 43.4375 129.585938 44.53125 129.835938 C 44.894531 129.929688 45.242188 129.902344 45.558594 129.796875 C 48.046875 133.4375 50.34375 137.222656 52.914062 140.808594 C 53.511719 141.640625 54.921875 140.921875 54.34375 140.03125 C 51.914062 136.335938 49.210938 132.820312 46.699219 129.179688 C 46.640625 129.09375 46.578125 129.039062 46.507812 128.992188 C 46.65625 128.722656 46.738281 128.417969 46.738281 128.066406 C 46.71875 126.996094 45.851562 125.953125 44.699219 126.167969 " fill-opacity="1" fill-rule="nonzero"/><path fill="#f27949" d="M 55.007812 130.578125 C 53.824219 131.617188 54.152344 133.136719 54.539062 134.457031 C 54.742188 135.136719 55.007812 135.84375 54.804688 136.558594 C 54.53125 137.492188 53.707031 138.199219 52.804688 138.492188 C 51.929688 138.777344 50.964844 138.738281 50.078125 138.539062 C 49.242188 138.351562 48.40625 137.875 47.53125 137.988281 C 45.59375 138.226562 45.734375 140.664062 46 142.089844 C 46.335938 143.832031 47.816406 147.355469 45.082031 147.824219 C 43.507812 148.097656 41.425781 147.921875 40.863281 149.847656 C 40.605469 150.746094 40.96875 151.5 41.214844 152.339844 C 41.585938 153.628906 40.074219 153.46875 39.171875 153.371094 C 37.816406 153.222656 36.109375 153.230469 35.082031 154.113281 C 34.515625 153.347656 33.082031 153.753906 33.421875 154.804688 C 34.730469 158.808594 39.367188 160.160156 43.027344 161.140625 C 46.972656 162.199219 51.195312 162.550781 55.265625 162.359375 C 59 162.183594 63.765625 161.945312 66.101562 158.542969 C 68.339844 155.273438 67.898438 150.492188 67.269531 146.796875 C 66.597656 142.804688 65.007812 138.941406 62.757812 135.585938 C 61.476562 133.667969 57.921875 128.015625 55.007812 130.578125 " fill-opacity="1" fill-rule="nonzero"/><path fill="#16836e" d="M 164.738281 250.027344 C 164.738281 250.027344 156.597656 201 130.265625 206.40625 C 103.9375 211.804688 86.96875 200.484375 81.3125 184.910156 C 75.652344 169.347656 70.003906 173.589844 55.859375 175.003906 C 41.71875 176.417969 27.582031 169.347656 27.582031 169.347656 C 27.582031 169.347656 20.511719 187.746094 72.828125 220.296875 C 125.144531 252.855469 164.738281 250.027344 164.738281 250.027344 " fill-opacity="1" fill-rule="nonzero"/><path fill="#1ca389" d="M 156.039062 244.214844 C 149.863281 243.15625 143.757812 241.792969 137.769531 240.015625 C 137.734375 239.851562 137.65625 239.691406 137.511719 239.539062 C 131.179688 233.136719 125.984375 225.351562 123.089844 216.78125 C 122.824219 215.992188 121.585938 216.320312 121.84375 217.125 C 124.390625 225.21875 128.433594 232.683594 134.179688 238.894531 C 132.292969 238.269531 130.417969 237.613281 128.558594 236.898438 C 119.621094 233.496094 111.085938 229.140625 103.042969 223.964844 C 100.875 222.574219 98.75 221.125 96.644531 219.640625 C 96.585938 219.234375 96.21875 218.847656 95.683594 218.925781 C 95.671875 218.925781 95.65625 218.925781 95.644531 218.933594 C 90.214844 215.066406 84.929688 211 79.507812 207.128906 C 76.765625 205.167969 73.976562 203.257812 71.128906 201.429688 C 71.351562 201.28125 71.476562 201.023438 71.375 200.664062 C 70.808594 198.839844 69.675781 197.109375 68.75 195.433594 C 67.804688 193.71875 66.820312 192.03125 65.804688 190.351562 C 63.734375 186.941406 61.460938 183.660156 59.121094 180.429688 C 58.660156 179.785156 57.589844 180.394531 58.050781 181.054688 C 60.292969 184.269531 62.359375 187.585938 64.351562 190.953125 C 65.308594 192.578125 66.238281 194.21875 67.136719 195.875 C 67.925781 197.332031 68.589844 198.941406 69.457031 200.378906 C 68.738281 199.929688 68.007812 199.488281 67.28125 199.054688 C 63.6875 196.917969 59.953125 195.027344 56.238281 193.109375 C 48.070312 188.894531 39.5625 184.359375 34.128906 176.664062 C 33.613281 175.929688 32.402344 176.613281 32.914062 177.371094 C 37.542969 184.253906 44.53125 188.796875 51.714844 192.667969 C 55.449219 194.6875 59.273438 196.554688 62.996094 198.59375 C 67.210938 200.910156 71.246094 203.515625 75.171875 206.28125 C 81.109375 210.453125 86.808594 214.949219 92.644531 219.261719 C 88.417969 219.617188 84.230469 219.410156 80.066406 218.261719 C 79.164062 218.007812 78.792969 219.386719 79.683594 219.652344 C 84.480469 221.117188 89.691406 221.671875 94.644531 220.730469 C 96.027344 221.738281 97.417969 222.734375 98.832031 223.714844 C 106.863281 229.273438 115.464844 233.964844 124.515625 237.640625 C 134.523438 241.707031 145.070312 244.65625 155.792969 246.054688 C 156.828125 246.1875 157.074219 244.398438 156.039062 244.214844 " fill-opacity="1" fill-rule="nonzero"/><path fill="#1ca389" d="M 86.382812 209.675781 C 83.152344 201.5625 78.304688 194.117188 73.136719 187.125 C 72.675781 186.496094 71.613281 187.097656 72.074219 187.746094 C 77.136719 194.832031 81.058594 202.519531 85.003906 210.257812 C 85.382812 211.007812 86.703125 210.472656 86.382812 209.675781 " fill-opacity="1" fill-rule="nonzero"/><g clip-path="url(#e4aa91fd4c)"><path fill="#f4b88e" d="M 151.667969 346.171875 C 151.667969 346.171875 175.230469 266.898438 175.230469 254.632812 C 175.230469 242.367188 149.777344 227.269531 144.125 220.660156 C 138.46875 214.058594 135.742188 208.492188 135.742188 208.492188 C 135.742188 208.492188 129.039062 212.167969 131.871094 221.605469 C 134.699219 231.046875 147.898438 239.539062 144.125 241.429688 C 140.355469 243.3125 113.960938 236.710938 108.304688 234.820312 C 102.652344 232.929688 89.453125 225.378906 82.851562 226.324219 C 76.253906 227.269531 76.253906 232.929688 76.253906 232.929688 C 76.253906 232.929688 96.992188 240.476562 101.707031 245.195312 C 106.421875 249.914062 142.238281 257.46875 146.007812 267.84375 C 149.777344 278.226562 113.015625 347.109375 113.015625 347.109375 L 151.667969 346.171875 " fill-opacity="1" fill-rule="nonzero"/></g><path fill="#ad6432" d="M 268.554688 341.683594 C 268.554688 341.683594 248.054688 272.324219 251.585938 262.417969 C 255.125 252.511719 279.164062 244.019531 287.648438 232.699219 C 296.125 221.367188 301.78125 210.046875 305.320312 203.675781 C 308.851562 197.3125 315.210938 193.769531 315.210938 193.769531 C 315.210938 193.769531 306.734375 190.234375 300.371094 193.769531 C 294.003906 197.3125 286.933594 212.882812 280.574219 219.246094 C 274.210938 225.617188 262.902344 231.984375 262.902344 231.984375 C 262.902344 231.984375 269.964844 220.660156 271.386719 212.167969 C 272.796875 203.675781 267.847656 198.726562 267.847656 198.726562 C 267.847656 198.726562 260.773438 216.417969 255.125 222.785156 C 249.464844 229.15625 223.308594 251.804688 221.894531 258.882812 C 220.476562 265.953125 226.132812 273.035156 226.132812 273.035156 L 233.910156 344.519531 L 268.554688 341.683594 " fill-opacity="1" fill-rule="nonzero"/><path fill="#f0a083" d="M 179 345.226562 C 179 345.226562 190.316406 278.226562 186.546875 262.1875 C 182.777344 246.140625 183.714844 233.875 191.261719 224.441406 C 198.800781 215.003906 203.515625 208.394531 205.394531 202.738281 C 207.285156 197.074219 207.285156 197.074219 207.285156 197.074219 C 207.285156 197.074219 213.878906 202.738281 212 210.285156 C 210.109375 217.832031 198.800781 234.820312 202.570312 233.875 C 206.339844 232.929688 228.964844 218.777344 235.5625 211.230469 C 242.164062 203.675781 252.089844 194.707031 259.375 193.0625 C 266.671875 191.410156 269.496094 193.300781 269.496094 193.300781 C 269.496094 193.300781 253.941406 208.863281 249.703125 212.644531 C 245.457031 216.417969 240.101562 223.035156 240.101562 223.035156 L 233.203125 229.628906 C 233.203125 229.628906 251.117188 215.472656 256.773438 212.167969 C 262.425781 208.863281 268.554688 203.675781 273.734375 203.207031 C 278.925781 202.738281 282.695312 205.566406 282.695312 205.566406 L 278.449219 211.230469 C 278.449219 211.230469 278.449219 216.417969 276.566406 218.777344 C 274.679688 221.136719 262.902344 231.984375 262.902344 231.984375 L 273.265625 227.742188 C 273.265625 227.742188 272.796875 234.820312 264.3125 240.007812 C 255.832031 245.195312 219.539062 261.242188 215.769531 268.789062 C 212 276.339844 214.347656 346.171875 214.347656 346.171875 L 179 345.226562 " fill-opacity="1" fill-rule="nonzero"/><path fill="#3598a0" d="M 136.105469 33.8125 C 135.679688 31.765625 134.992188 29.785156 134.105469 27.894531 C 133.265625 26.109375 132.152344 23.863281 130.585938 22.601562 C 128.675781 21.054688 127 22.625 126.128906 24.378906 C 125.101562 26.445312 124.261719 28.601562 123.683594 30.828125 C 122.464844 35.5 122.242188 40.265625 122.996094 45 C 117.746094 44.320312 112.28125 46.4375 108.988281 50.664062 C 108.636719 51.105469 108.5625 51.679688 108.988281 52.113281 C 114.332031 57.660156 123.542969 58.632812 129.859375 54.320312 C 133.097656 53.078125 134.789062 49.328125 135.691406 46.175781 C 136.839844 42.15625 136.957031 37.894531 136.105469 33.8125 " fill-opacity="1" fill-rule="nonzero"/><path fill="#60c0c4" d="M 143.628906 31.09375 C 143.324219 29.378906 142.714844 27.8125 142.070312 26.207031 C 142.820312 26.25 143.496094 25.128906 142.804688 24.527344 C 140.546875 22.582031 137.285156 22.820312 134.914062 24.484375 C 132.390625 26.265625 130.808594 29.210938 129.738281 32.039062 C 127.621094 37.621094 127.734375 43.84375 129.886719 49.363281 C 125.074219 49.304688 120.066406 49.875 115.757812 52.058594 C 113.484375 53.207031 111.492188 54.886719 110.070312 57.007812 C 109.34375 58.085938 108.714844 59.417969 108.988281 60.753906 C 109.261719 62.113281 110.386719 62.804688 111.617188 63.21875 C 117.71875 65.253906 124.746094 63.335938 130.097656 60.144531 C 135.117188 57.148438 139.398438 52.609375 141.714844 47.207031 C 143.160156 43.84375 143.972656 40.210938 144.042969 36.550781 C 144.078125 34.730469 143.953125 32.886719 143.628906 31.09375 " fill-opacity="1" fill-rule="nonzero"/><path fill="#3598a0" d="M 158.714844 42.128906 C 158.652344 41.660156 158.21875 41.09375 157.660156 41.324219 C 157.660156 41.324219 157.652344 41.324219 157.652344 41.324219 C 157.421875 40.679688 156.226562 40.601562 156.109375 41.402344 C 156.078125 41.605469 156.058594 41.808594 156.050781 42.011719 C 151.800781 43.867188 147.679688 46.03125 143.75 48.492188 C 145.734375 46.226562 147.554688 43.808594 149.191406 41.253906 C 150.8125 38.707031 152.269531 36.039062 153.507812 33.28125 C 154.074219 32.011719 154.605469 30.722656 155.085938 29.421875 C 155.351562 28.695312 155.589844 27.9375 155.90625 27.230469 C 156.101562 26.773438 156.332031 26.339844 156.507812 25.886719 C 156.890625 25.648438 157.226562 25.304688 157.429688 24.917969 C 157.714844 24.410156 157.808594 23.800781 157.6875 23.226562 C 157.519531 22.441406 156.84375 22.140625 156.09375 22.167969 C 155.472656 22.195312 154.8125 22.519531 154.375 22.996094 C 154.261719 23.042969 154.15625 23.121094 154.058594 23.226562 C 153.339844 24.023438 153.511719 25.257812 154.339844 25.886719 C 154.15625 26.746094 154.015625 27.628906 153.738281 28.460938 C 153.269531 29.828125 152.75 31.179688 152.175781 32.507812 C 151.007812 35.226562 149.632812 37.867188 148.066406 40.378906 C 145.441406 44.574219 142.28125 48.453125 138.707031 51.882812 C 137.648438 52.644531 136.609375 53.429688 135.585938 54.234375 C 134.804688 54.859375 135.910156 55.9375 136.683594 55.335938 C 142.75 50.617188 149.308594 46.703125 156.34375 43.671875 C 156.414062 43.832031 156.492188 43.992188 156.597656 44.152344 C 156.878906 44.613281 157.546875 44.734375 157.933594 44.328125 C 158.519531 43.71875 158.820312 42.976562 158.714844 42.128906 " fill-opacity="1" fill-rule="nonzero"/><path fill="#3598a0" d="M 231.707031 61.761719 C 227.574219 52.878906 224.9375 43.398438 223.980469 33.664062 C 224.453125 32.710938 224.320312 31.375 223.496094 30.675781 C 222.914062 30.179688 221.753906 30.445312 221.832031 31.359375 C 221.847656 31.570312 221.875 31.78125 221.886719 31.992188 C 221.46875 32.109375 221.097656 32.40625 220.929688 32.851562 C 220.613281 33.722656 221.28125 34.660156 222.175781 34.734375 C 222.957031 41.175781 224.441406 47.527344 226.609375 53.640625 C 223.691406 51.230469 220.070312 49.636719 216.398438 48.921875 C 216.347656 48.914062 216.300781 48.90625 216.25 48.90625 C 216.097656 48.621094 215.886719 48.382812 215.648438 48.191406 C 215.65625 48.191406 215.65625 48.1875 215.664062 48.179688 C 216.558594 47.191406 215.160156 45.769531 214.1875 46.707031 C 213.292969 47.570312 212.332031 48.71875 212.628906 50.070312 C 212.871094 51.210938 214.089844 52.167969 215.277344 51.875 C 215.929688 51.714844 216.328125 51.226562 216.480469 50.644531 C 220.839844 51.636719 224.519531 53.886719 227.734375 56.992188 C 227.804688 57.0625 227.875 57.113281 227.945312 57.148438 C 228.6875 58.976562 229.484375 60.78125 230.359375 62.554688 C 230.804688 63.457031 232.121094 62.664062 231.707031 61.761719 " fill-opacity="1" fill-rule="nonzero"/><path fill="#3598a0" d="M 241.039062 57.742188 C 243.074219 55.292969 244.527344 52.386719 245.226562 49.265625 C 245.683594 47.21875 246.542969 41.941406 242.914062 42.320312 C 241.519531 42.457031 240.015625 43.445312 238.917969 44.265625 C 237.773438 45.113281 236.769531 46.097656 235.898438 47.226562 C 234.15625 49.480469 233.113281 52.183594 232.742188 55.003906 C 232.316406 58.28125 232.972656 61.476562 234.667969 64.308594 C 234.988281 64.863281 235.574219 64.84375 235.960938 64.554688 C 238.8125 66.488281 242.367188 67.453125 245.78125 67.414062 C 246.234375 67.40625 246.578125 67.109375 246.71875 66.699219 C 248.222656 62.386719 244.429688 59.515625 241.039062 57.742188 " fill-opacity="1" fill-rule="nonzero"/><path fill="#60c0c4" d="M 243.914062 66.507812 C 243.695312 65.09375 243.121094 63.738281 242.296875 62.574219 C 240.792969 60.460938 238.546875 58.988281 235.972656 58.75 C 237.003906 57.316406 237.484375 55.136719 237.90625 53.507812 C 238.375 51.699219 238.652344 49.796875 238.570312 47.917969 C 238.421875 44.671875 237.234375 41.429688 234.714844 39.28125 C 234.414062 39.027344 234.070312 38.980469 233.769531 39.070312 C 233.28125 38.664062 232.492188 38.609375 232.078125 39.328125 C 228.539062 45.511719 226.554688 53.289062 229.105469 60.214844 C 231.15625 65.753906 236.269531 71.191406 242.519531 71.355469 C 243.253906 71.375 243.652344 70.730469 243.617188 70.128906 C 244.164062 69.078125 244.082031 67.601562 243.914062 66.507812 " fill-opacity="1" fill-rule="nonzero"/></svg>