<svg xmlns="http://www.w3.org/2000/svg" xmlns:xlink="http://www.w3.org/1999/xlink" width="500" zoomAndPan="magnify" viewBox="0 0 375 374.999991" height="500" preserveAspectRatio="xMidYMid meet" version="1.0"><defs><clipPath id="28f97c9e25"><path d="M 32 27.515625 L 317 27.515625 L 317 347.765625 L 32 347.765625 Z M 32 27.515625 " clip-rule="nonzero"/></clipPath><clipPath id="a8bdb0239e"><path d="M 228 68 L 361 68 L 361 347.765625 L 228 347.765625 Z M 228 68 " clip-rule="nonzero"/></clipPath></defs><g clip-path="url(#28f97c9e25)"><path fill="#5ce1e6" d="M 126.644531 347.449219 C 146.5625 292.152344 159.519531 207.804688 153.828125 169.902344 C 147.585938 128.316406 121.027344 96.703125 101.300781 79.585938 C 77.351562 58.8125 105.976562 38.191406 117.871094 57.949219 C 123.378906 67.097656 130.628906 79.0625 138.023438 91.613281 C 150 111.953125 169.226562 126.867188 191.679688 133.542969 C 181.871094 125.300781 172.195312 109.730469 175.347656 93.265625 C 178.964844 74.375 196.660156 61.621094 215.609375 64.90625 C 234.558594 68.191406 247.757812 86.3125 243.96875 105.167969 C 240.019531 124.847656 226.890625 134.914062 215.339844 138.367188 C 237.878906 140.320312 272.3125 131.351562 314 51.867188 C 314.835938 50.273438 315.730469 48.839844 316.671875 47.542969 C 298.863281 34.664062 276.753906 27.570312 252.480469 27.570312 C 230.113281 27.570312 211.113281 34.433594 196.035156 43.105469 C 180.960938 34.433594 161.960938 27.570312 139.589844 27.570312 C 96.820312 27.570312 60.757812 49.59375 43.128906 86.488281 C 32.421875 108.886719 29.386719 134.867188 34.347656 161.621094 C 39.066406 187.074219 51.027344 212.25 68.941406 234.4375 C 82.207031 250.875 104.941406 273.480469 131.253906 294.234375 C 130.738281 305.347656 129.304688 331.660156 126.644531 347.449219 " fill-opacity="1" fill-rule="nonzero"/></g><g clip-path="url(#a8bdb0239e)"><path fill="#5271ff" d="M 348.941406 86.488281 C 345.859375 80.03125 342.210938 74.03125 338.058594 68.527344 C 301.242188 116.277344 281.027344 132.097656 245.339844 173.367188 C 210.417969 213.746094 235.90625 301.5 258.019531 347.445312 C 254.507812 331.492188 252.03125 310.558594 251.070312 301.714844 C 281.460938 279.074219 308.25 252.871094 323.128906 234.4375 C 341.046875 212.25 353.007812 187.074219 357.726562 161.621094 C 362.6875 134.867188 359.652344 108.886719 348.941406 86.488281 " fill-opacity="1" fill-rule="nonzero"/></g><path fill="#5271ff" d="M 161.535156 316.039062 C 164.441406 317.933594 167.363281 319.773438 170.296875 321.550781 L 196.035156 337.164062 L 221.777344 321.550781 C 222.203125 321.296875 222.621094 321.023438 223.042969 320.765625 C 206.515625 266.65625 182.582031 257.507812 161.535156 316.039062 " fill-opacity="1" fill-rule="nonzero"/></svg>