<svg xmlns="http://www.w3.org/2000/svg" xmlns:xlink="http://www.w3.org/1999/xlink" width="500" zoomAndPan="magnify" viewBox="0 0 375 374.999991" height="500" preserveAspectRatio="xMidYMid meet" version="1.0"><defs><clipPath id="56ff41f2f9"><path d="M 71.871094 136.011719 L 223.734375 136.011719 L 223.734375 359.082031 L 71.871094 359.082031 Z M 71.871094 136.011719 " clip-rule="nonzero"/></clipPath><clipPath id="21b3e96d4d"><path d="M 160.015625 207.15625 L 163.929688 207.15625 L 163.929688 359.082031 L 160.015625 359.082031 Z M 160.015625 207.15625 " clip-rule="nonzero"/></clipPath><clipPath id="f146edc732"><path d="M 229.371094 348 L 334.03125 348 L 334.03125 359.082031 L 229.371094 359.082031 Z M 229.371094 348 " clip-rule="nonzero"/></clipPath><clipPath id="3e852a104a"><path d="M 40.402344 319.429688 L 191 319.429688 L 191 359.082031 L 40.402344 359.082031 Z M 40.402344 319.429688 " clip-rule="nonzero"/></clipPath><clipPath id="d1ba4c51cc"><path d="M 41.65625 325.683594 L 192.421875 325.683594 L 192.421875 359.082031 L 41.65625 359.082031 Z M 41.65625 325.683594 " clip-rule="nonzero"/></clipPath></defs><g clip-path="url(#56ff41f2f9)"><path fill="#d9ecf6" d="M 223.605469 182.703125 L 220.574219 176.773438 C 212.382812 160.742188 197.765625 148.9375 180.355469 144.289062 L 149.597656 136.078125 L 93.402344 149.257812 C 85.5 151.109375 79.0625 156.175781 75.304688 162.84375 C 72.007812 168.695312 71.265625 175.644531 72.628906 182.21875 L 86.554688 275.441406 C 93.347656 308.183594 83.394531 318.347656 78.160156 359.082031 L 212.160156 359.082031 C 201.648438 321.042969 200.996094 292.585938 207.617188 258.324219 C 210.789062 241.921875 209.75 226.824219 207.015625 210.425781 C 207.015625 197.585938 213.964844 191.195312 223.605469 182.703125 " fill-opacity="1" fill-rule="nonzero"/></g><g clip-path="url(#21b3e96d4d)"><path fill="#a9adc2" d="M 163.117188 359.082031 L 163.824219 207.296875 L 160.753906 207.28125 L 160.046875 359.082031 L 163.117188 359.082031 " fill-opacity="1" fill-rule="nonzero"/></g><path fill="#223554" d="M 192.804688 88.429688 C 199.988281 88.429688 206.132812 83.277344 207.378906 76.214844 L 208.246094 71.277344 C 212.414062 28.25 137.046875 9.648438 121.570312 51.417969 C 120.269531 54.921875 117.882812 67.386719 115.152344 79.863281 C 111.484375 96.621094 120.855469 113.335938 136.683594 118.277344 L 155.164062 124.046875 C 157.140625 124.664062 159.128906 125.097656 161.105469 125.378906 L 192.804688 88.429688 " fill-opacity="1" fill-rule="nonzero"/><path fill="#d9ecf6" d="M 254.808594 278.203125 L 239.960938 279.703125 C 236.238281 280.078125 232.652344 278.1875 230.867188 274.90625 L 195.148438 209.234375 C 198.324219 190.144531 204.71875 176.320312 219.792969 176.738281 L 263.984375 260.15625 C 268.238281 268.253906 263.632812 277.308594 254.808594 278.203125 " fill-opacity="1" fill-rule="nonzero"/><path fill="#223554" d="M 121.621094 116.125 L 135.425781 99.519531 L 115.796875 83.242188 C 109.742188 78.21875 100.761719 79.050781 95.734375 85.097656 C 88.109375 94.269531 89.371094 107.875 98.550781 115.492188 L 101.554688 117.984375 C 107.609375 123.003906 116.589844 122.171875 121.621094 116.125 " fill-opacity="1" fill-rule="nonzero"/><path fill="#e4595c" d="M 176.210938 143.183594 L 149.597656 136.078125 L 119.46875 143.144531 L 156.667969 197.652344 C 158.328125 200.085938 162.089844 199.417969 162.804688 196.558594 L 176.210938 143.183594 " fill-opacity="1" fill-rule="nonzero"/><path fill="#f89a82" d="M 191.675781 118.527344 L 188.234375 123.695312 C 184.203125 129.75 176.980469 132.863281 169.804688 131.644531 C 155.871094 129.269531 144.683594 118.851562 141.339844 105.136719 L 138.742188 94.480469 L 141.523438 74.199219 C 145.421875 72.925781 148.210938 69.515625 148.742188 65.457031 L 148.773438 65.222656 C 150.332031 53.910156 160.855469 46.054688 172.15625 47.765625 L 183.433594 49.476562 C 194.996094 51.222656 202.949219 62 201.203125 73.550781 L 199.449219 85.136719 C 198.933594 88.539062 198.574219 91.972656 198.59375 95.414062 C 198.640625 103.601562 196.25 111.652344 191.675781 118.527344 " fill-opacity="1" fill-rule="nonzero"/><path fill="#223554" d="M 141.015625 81.96875 C 149.765625 81.9375 161.144531 70.773438 166.535156 64.773438 C 174.15625 56.289062 179.410156 45.8125 180.710938 34.476562 C 164.800781 29.59375 138.550781 43.3125 137.03125 60.535156 C 136.601562 65.398438 138.660156 78.027344 141.015625 81.96875 " fill-opacity="1" fill-rule="nonzero"/><path fill="#d9ecf6" d="M 280.46875 195.332031 L 241.941406 244.988281 L 231.636719 276.050781 L 233.578125 278.390625 C 243.011719 289.742188 261.019531 287.648438 267.59375 274.4375 L 304.375 200.464844 L 280.46875 195.332031 " fill-opacity="1" fill-rule="nonzero"/><path fill="#2f9b96" d="M 229.109375 207.601562 C 228.6875 209.207031 227.035156 210.167969 225.425781 209.746094 L 181.878906 198.277344 C 180.269531 197.855469 179.308594 196.207031 179.734375 194.601562 C 180.15625 192.992188 181.808594 192.03125 183.417969 192.453125 L 226.964844 203.921875 C 228.574219 204.34375 229.535156 205.992188 229.109375 207.601562 " fill-opacity="1" fill-rule="nonzero"/><path fill="#a9adc2" d="M 167.714844 270.789062 L 143.59375 264.050781 L 161.375 229.671875 L 167.714844 229.671875 L 167.714844 270.789062 " fill-opacity="1" fill-rule="nonzero"/><path fill="#e4595c" d="M 167.625 227.925781 L 152.597656 232.125 L 149.257812 266.003906 L 173.828125 255.984375 L 167.625 227.925781 " fill-opacity="1" fill-rule="nonzero"/><path fill="#f89a82" d="M 173.828125 255.984375 L 188.609375 249.957031 C 192.734375 249.167969 196.613281 246.847656 199.320312 243.714844 L 213.464844 227.351562 C 215.703125 224.765625 218.558594 222.789062 221.773438 221.605469 L 229.347656 218.816406 C 234.371094 216.964844 236.035156 210.59375 232.433594 206.640625 C 228.578125 202.421875 223.742188 199.09375 218.355469 196.984375 C 208.660156 193.183594 198.066406 196.105469 192.832031 204.023438 L 182.734375 219.644531 C 180.675781 222.832031 177.519531 225.15625 173.859375 226.179688 L 167.625 227.925781 C 164.019531 242.210938 166.261719 251.410156 173.828125 255.984375 " fill-opacity="1" fill-rule="nonzero"/><path fill="#f89a82" d="M 132.417969 98.011719 C 132.417969 98.011719 127.773438 124.886719 124.769531 135.28125 C 123.855469 138.453125 121.949219 140.957031 119.46875 143.144531 L 132.941406 162.890625 C 134.929688 163.277344 136.949219 163.546875 138.996094 163.664062 C 152.242188 164.421875 163.457031 162.984375 173.074219 155.679688 L 176.210938 143.179688 C 171.492188 141.597656 169.367188 140.414062 168.1875 138.144531 L 175.625 108.792969 L 132.417969 98.011719 " fill-opacity="1" fill-rule="nonzero"/><path fill="#e87c6b" d="M 168.722656 136.019531 C 157.886719 133.921875 148.300781 127.445312 142.320312 118.144531 C 141.632812 117.074219 141.945312 115.648438 143.015625 114.964844 C 144.085938 114.277344 145.511719 114.585938 146.199219 115.65625 C 151.546875 123.976562 160.148438 129.742188 169.859375 131.550781 L 168.722656 136.019531 " fill-opacity="1" fill-rule="nonzero"/><path fill="#86a7e0" d="M 301.125 174.011719 L 262.335938 174.011719 L 264.664062 167.144531 C 265.863281 163.601562 269.191406 161.214844 272.9375 161.214844 L 299.074219 161.214844 C 302.210938 161.214844 304.417969 164.292969 303.414062 167.257812 L 301.125 174.011719 " fill-opacity="1" fill-rule="nonzero"/><path fill="#94d9d4" d="M 182.59375 285.152344 L 258.804688 285.152344 C 264.023438 285.152344 268.816406 282.289062 271.28125 277.699219 L 324.726562 178.207031 C 326.226562 175.421875 324.203125 172.046875 321.039062 172.046875 L 244.828125 172.046875 C 239.613281 172.046875 234.816406 174.910156 232.351562 179.5 L 178.90625 278.996094 C 177.410156 281.78125 179.429688 285.152344 182.59375 285.152344 " fill-opacity="1" fill-rule="nonzero"/><path fill="#f89a82" d="M 280.363281 260.789062 C 278.957031 259.523438 277.4375 258.34375 275.796875 257.261719 L 268.902344 252.710938 C 258.539062 245.871094 270.046875 229.292969 285.371094 228.878906 C 287.527344 228.820312 290.757812 229.1875 294.085938 229.714844 C 301.429688 230.871094 304.164062 237.253906 300.03125 243.710938 L 290.179688 259.078125 C 287.214844 263.707031 282.3125 266.746094 276.84375 267.339844 L 280.363281 260.789062 " fill-opacity="1" fill-rule="nonzero"/><path fill="#d9ecf6" d="M 161.507812 229.636719 L 119.46875 241.390625 L 115.558594 184.957031 C 114.976562 176.539062 106.597656 170.933594 98.578125 173.597656 L 72.628906 182.21875 L 83.230469 274.703125 C 84.3125 284.132812 93.515625 290.40625 102.699219 287.980469 L 167.714844 270.789062 C 157.832031 269.160156 152.535156 248.488281 161.507812 229.636719 " fill-opacity="1" fill-rule="nonzero"/><path fill="#a9adc2" d="M 108.296875 158.699219 L 124.511719 165.816406 L 117.113281 177.015625 C 116.652344 177.714844 116.839844 178.660156 117.535156 179.128906 L 161.425781 208.898438 C 161.691406 209.074219 161.988281 209.160156 162.289062 209.160156 C 162.730469 209.160156 163.171875 208.96875 163.476562 208.605469 L 191.382812 174.777344 C 191.898438 174.152344 191.835938 173.230469 191.242188 172.679688 L 180.382812 162.574219 L 191.96875 148.660156 C 191.019531 148.191406 190.058594 147.746094 189.082031 147.328125 L 177.09375 161.726562 C 176.574219 162.351562 176.628906 163.273438 177.226562 163.828125 L 188.09375 173.941406 L 161.992188 205.570312 L 120.511719 177.441406 L 128.078125 165.988281 C 128.328125 165.609375 128.398438 165.140625 128.269531 164.707031 C 128.140625 164.273438 127.828125 163.917969 127.414062 163.738281 L 110.675781 156.390625 L 113.175781 144.621094 L 109.871094 145.394531 L 107.410156 156.976562 C 107.261719 157.6875 107.628906 158.40625 108.296875 158.699219 " fill-opacity="1" fill-rule="nonzero"/><path fill="#a9adc2" d="M 159.875 233.496094 L 119.132812 244.886719 C 119 244.925781 118.859375 244.941406 118.722656 244.941406 C 118.40625 244.941406 118.097656 244.847656 117.835938 244.664062 C 117.457031 244.398438 117.21875 243.976562 117.1875 243.515625 L 114.417969 203.539062 C 114.359375 202.691406 115 201.957031 115.84375 201.898438 C 116.707031 201.851562 117.425781 202.480469 117.484375 203.324219 L 120.125 241.425781 L 161.386719 229.886719 L 159.875 233.496094 " fill-opacity="1" fill-rule="nonzero"/><path fill="#a9adc2" d="M 167.714844 267.699219 L 99.308594 286.046875 C 95.375 287.085938 91.320312 286.378906 88.058594 284.253906 C 88.226562 285.527344 88.355469 286.757812 88.46875 287.972656 C 90.707031 289.019531 93.152344 289.589844 95.664062 289.589844 C 97.132812 289.589844 98.625 289.398438 100.097656 289.011719 L 167.710938 270.878906 L 167.714844 267.699219 " fill-opacity="1" fill-rule="nonzero"/><path fill="#a9adc2" d="M 104.210938 255.527344 C 103.871094 255.527344 103.53125 255.417969 103.246094 255.1875 C 102.585938 254.65625 102.484375 253.691406 103.015625 253.03125 C 107.226562 247.816406 113.523438 244.167969 118.066406 242.023438 C 118.832031 241.660156 119.746094 241.988281 120.109375 242.753906 C 120.472656 243.519531 120.144531 244.433594 119.378906 244.796875 C 115.898438 246.4375 109.457031 249.945312 105.40625 254.957031 C 105.105469 255.332031 104.660156 255.527344 104.210938 255.527344 " fill-opacity="1" fill-rule="nonzero"/><path fill="#a9adc2" d="M 95.433594 248.523438 C 94.996094 248.523438 94.558594 248.339844 94.257812 247.980469 C 93.710938 247.332031 93.792969 246.363281 94.445312 245.820312 C 99.058594 241.945312 105.375 240.976562 108.730469 240.746094 C 109.597656 240.699219 110.308594 241.324219 110.367188 242.167969 C 110.425781 243.011719 109.789062 243.746094 108.941406 243.804688 C 105.960938 244.011719 100.367188 244.851562 96.421875 248.167969 C 96.132812 248.40625 95.78125 248.523438 95.433594 248.523438 " fill-opacity="1" fill-rule="nonzero"/><path fill="#f89a82" d="M 145.304688 83.445312 C 143.289062 78.277344 144.375 73.671875 138.757812 72.976562 C 122.546875 70.957031 120.707031 112.398438 147.125 100.246094 L 145.304688 83.445312 " fill-opacity="1" fill-rule="nonzero"/><path fill="#ffd26b" d="M 277.695312 352.480469 C 276.234375 352.480469 275.046875 351.292969 275.046875 349.832031 L 275.046875 317.007812 C 275.046875 315.546875 276.234375 314.359375 277.695312 314.359375 C 279.160156 314.359375 280.34375 315.546875 280.34375 317.007812 L 280.34375 349.832031 C 280.34375 351.292969 279.160156 352.480469 277.695312 352.480469 " fill-opacity="1" fill-rule="nonzero"/><path fill="#334668" d="M 264.941406 344.617188 C 263.480469 344.617188 262.292969 343.433594 262.292969 341.972656 L 262.292969 202.582031 C 262.292969 201.125 263.480469 199.9375 264.941406 199.9375 C 266.402344 199.9375 267.589844 201.125 267.589844 202.582031 L 267.589844 341.972656 C 267.589844 343.433594 266.402344 344.617188 264.941406 344.617188 " fill-opacity="1" fill-rule="nonzero"/><path fill="#ffb746" d="M 290.328125 352.230469 C 288.871094 352.230469 287.679688 351.042969 287.679688 349.582031 L 287.679688 331.109375 C 287.679688 322.582031 291.160156 314.238281 297.21875 308.226562 L 326.832031 278.855469 C 327.867188 277.828125 329.542969 277.832031 330.578125 278.871094 C 331.609375 279.910156 331.605469 281.582031 330.566406 282.613281 L 300.953125 311.980469 C 295.886719 317.007812 292.980469 323.980469 292.980469 331.109375 L 292.980469 349.582031 C 292.980469 351.042969 291.792969 352.230469 290.328125 352.230469 " fill-opacity="1" fill-rule="nonzero"/><path fill="#223554" d="M 267.589844 349.125 L 262.292969 349.125 L 262.292969 341.972656 L 267.589844 341.972656 L 267.589844 349.125 " fill-opacity="1" fill-rule="nonzero"/><path fill="#ffb746" d="M 299.230469 297.152344 C 298.570312 297.152344 297.910156 296.90625 297.394531 296.414062 C 296.339844 295.402344 296.308594 293.726562 297.324219 292.671875 L 317.890625 271.332031 C 318.902344 270.277344 320.582031 270.246094 321.632812 271.257812 C 322.691406 272.269531 322.722656 273.945312 321.707031 274.996094 L 301.136719 296.339844 C 300.621094 296.878906 299.925781 297.152344 299.230469 297.152344 " fill-opacity="1" fill-rule="nonzero"/><path fill="#ffb746" d="M 290.332031 289.585938 C 289.667969 289.585938 289.007812 289.339844 288.496094 288.84375 C 287.441406 287.832031 287.410156 286.15625 288.425781 285.105469 L 308.988281 263.761719 C 310.003906 262.707031 311.683594 262.675781 312.734375 263.691406 C 313.789062 264.703125 313.820312 266.378906 312.804688 267.429688 L 292.238281 288.773438 C 291.71875 289.308594 291.027344 289.585938 290.332031 289.585938 " fill-opacity="1" fill-rule="nonzero"/><g clip-path="url(#f146edc732)"><path fill="#334668" d="M 229.445312 359.082031 L 334.042969 359.082031 L 334.042969 354.484375 C 334.042969 350.921875 331.152344 348.035156 327.585938 348.035156 L 235.902344 348.035156 C 232.339844 348.035156 229.445312 350.921875 229.445312 354.484375 L 229.445312 359.082031 " fill-opacity="1" fill-rule="nonzero"/></g><g clip-path="url(#3e852a104a)"><path fill="#d9ecf6" d="M 93.894531 333.417969 L 93.894531 319.539062 L 40.558594 319.539062 L 46.1875 349.320312 C 47.257812 354.980469 52.210938 359.082031 57.976562 359.082031 L 176.132812 359.082031 C 181.898438 359.082031 186.851562 354.980469 187.921875 349.320312 L 190.929688 333.417969 L 93.894531 333.417969 " fill-opacity="1" fill-rule="nonzero"/></g><path fill="#ffffff" d="M 93.894531 333.417969 L 190.929688 333.417969 L 193.554688 319.539062 L 93.894531 319.539062 L 93.894531 333.417969 " fill-opacity="1" fill-rule="nonzero"/><g clip-path="url(#d1ba4c51cc)"><path fill="#86a7e0" d="M 192.386719 325.714844 L 187.921875 349.320312 C 186.851562 354.980469 181.898438 359.082031 176.132812 359.082031 L 57.976562 359.082031 C 52.210938 359.082031 47.257812 354.980469 46.1875 349.320312 L 41.726562 325.714844 L 192.386719 325.714844 " fill-opacity="1" fill-rule="nonzero"/></g><path fill="#a9adc2" d="M 51.21875 325.714844 L 40.996094 319.539062 L 104.25 319.539062 L 114.472656 325.714844 L 51.21875 325.714844 " fill-opacity="1" fill-rule="nonzero"/><path fill="#94d9d4" d="M 185.101562 331.003906 L 52.863281 331.003906 C 51.398438 331.003906 50.214844 329.816406 50.214844 328.359375 C 50.214844 326.898438 51.398438 325.714844 52.863281 325.714844 L 185.101562 325.714844 C 186.5625 325.714844 187.746094 326.898438 187.746094 328.359375 C 187.746094 329.816406 186.5625 331.003906 185.101562 331.003906 " fill-opacity="1" fill-rule="nonzero"/><path fill="#94d9d4" d="M 128.851562 342.109375 L 65.945312 342.109375 C 64.480469 342.109375 63.296875 340.925781 63.296875 339.464844 C 63.296875 338.003906 64.480469 336.820312 65.945312 336.820312 L 128.851562 336.820312 C 130.3125 336.820312 131.5 338.003906 131.5 339.464844 C 131.5 340.925781 130.3125 342.109375 128.851562 342.109375 " fill-opacity="1" fill-rule="nonzero"/><path fill="#d9ecf6" d="M 321.09375 280.558594 L 266.785156 236.683594 C 264.589844 234.914062 262.8125 232.683594 261.570312 230.152344 C 260.921875 228.828125 259.113281 228.625 258.183594 229.773438 L 245.109375 245.921875 C 244.179688 247.070312 244.753906 248.789062 246.191406 249.148438 C 248.925781 249.832031 251.484375 251.105469 253.675781 252.875 L 307.980469 296.746094 C 312.394531 300.308594 318.84375 299.695312 322.503906 295.367188 C 326.269531 290.90625 325.636719 284.226562 321.09375 280.558594 " fill-opacity="1" fill-rule="nonzero"/><path fill="#e4595c" d="M 310.847656 272.277344 L 321.09375 280.558594 C 325.636719 284.226562 326.269531 290.90625 322.503906 295.367188 C 318.84375 299.695312 312.394531 300.308594 307.980469 296.746094 L 277.695312 272.277344 L 310.847656 272.277344 " fill-opacity="1" fill-rule="nonzero"/><path fill="#4569a9" d="M 139.441406 357.839844 C 133.882812 357.839844 128.410156 356.335938 123.492188 353.390625 L 43.867188 305.710938 L 46.589844 301.175781 L 126.21875 348.855469 C 132.335938 352.519531 139.492188 353.492188 146.378906 351.605469 C 153.257812 349.710938 158.90625 345.214844 162.285156 338.933594 L 165.378906 333.1875 L 170.046875 335.691406 L 166.953125 341.4375 C 162.882812 349.003906 156.074219 354.425781 147.785156 356.703125 C 145.019531 357.464844 142.21875 357.839844 139.441406 357.839844 " fill-opacity="1" fill-rule="nonzero"/><path fill="#a9adc2" d="M 170.046875 335.691406 L 165.378906 333.1875 L 218.375 234.753906 C 220.914062 230.042969 225.382812 226.730469 230.636719 225.671875 C 235.898438 224.617188 241.296875 225.941406 245.464844 229.308594 L 288.914062 264.40625 L 285.582031 268.519531 L 242.132812 233.421875 C 239.191406 231.050781 235.386719 230.121094 231.683594 230.859375 C 227.976562 231.605469 224.828125 233.9375 223.039062 237.261719 L 170.046875 335.691406 " fill-opacity="1" fill-rule="nonzero"/><path fill="#223554" d="M 271.207031 247.933594 C 272.363281 246.507812 272.140625 244.414062 270.710938 243.261719 L 259.308594 234.046875 C 258.21875 233.167969 257.210938 232.179688 256.308594 231.101562 C 254.871094 229.398438 252.214844 229.476562 250.816406 231.210938 L 244.972656 238.421875 C 243.574219 240.152344 244.050781 242.765625 246.015625 243.808594 C 247.261719 244.46875 248.441406 245.242188 249.527344 246.125 L 260.933594 255.335938 C 262.363281 256.492188 264.457031 256.269531 265.613281 254.84375 L 271.207031 247.933594 " fill-opacity="1" fill-rule="nonzero"/><path fill="#ffffff" d="M 318.507812 281.660156 L 264.609375 238.125 C 263.859375 237.523438 262.765625 237.636719 262.160156 238.382812 C 261.554688 239.132812 261.671875 240.226562 262.421875 240.832031 L 316.3125 284.367188 C 317.527344 285.347656 319.320312 284.363281 319.140625 282.8125 C 319.085938 282.359375 318.859375 281.949219 318.507812 281.660156 " fill-opacity="1" fill-rule="nonzero"/><path fill="#d9ecf6" d="M 261.570312 230.152344 C 260.921875 228.828125 259.113281 228.625 258.1875 229.773438 L 245.109375 245.921875 C 244.179688 247.070312 244.757812 248.792969 246.191406 249.148438 C 247.132812 249.382812 248.054688 249.695312 248.945312 250.066406 L 263.046875 232.65625 C 262.496094 231.859375 262 231.027344 261.570312 230.152344 " fill-opacity="1" fill-rule="nonzero"/><path fill="#ffffff" d="M 259.988281 233.425781 L 256.335938 237.9375 C 255.875 238.503906 255.039062 238.59375 254.46875 238.132812 C 253.898438 237.671875 253.8125 236.839844 254.273438 236.269531 L 257.925781 231.757812 C 258.386719 231.1875 259.222656 231.101562 259.792969 231.5625 C 260.363281 232.023438 260.449219 232.855469 259.988281 233.425781 " fill-opacity="1" fill-rule="nonzero"/><path fill="#4569a9" d="M 258.140625 258.988281 C 257.554688 258.988281 256.964844 258.796875 256.476562 258.398438 C 255.335938 257.480469 255.164062 255.816406 256.082031 254.679688 L 269.191406 238.488281 C 270.113281 237.355469 271.78125 237.179688 272.917969 238.097656 C 274.054688 239.015625 274.230469 240.683594 273.308594 241.816406 L 260.199219 258.007812 C 259.675781 258.652344 258.910156 258.988281 258.140625 258.988281 " fill-opacity="1" fill-rule="nonzero"/><path fill="#d9ecf6" d="M 104.027344 352.972656 L 38.660156 313.492188 C 35.789062 311.757812 32.574219 310.671875 29.242188 310.308594 C 27.492188 310.121094 26.535156 308.183594 27.445312 306.683594 L 40.304688 285.4375 C 41.183594 283.988281 43.269531 283.9375 44.21875 285.34375 L 44.28125 285.4375 C 46.160156 288.234375 48.617188 290.574219 51.488281 292.308594 L 116.855469 331.789062 C 122.699219 335.320312 124.582031 342.910156 121.0625 348.757812 C 117.53125 354.628906 109.894531 356.519531 104.027344 352.972656 " fill-opacity="1" fill-rule="nonzero"/><path fill="#ffffff" d="M 39.292969 297.21875 L 42.113281 292.558594 C 42.46875 291.972656 42.28125 291.207031 41.691406 290.851562 C 41.101562 290.496094 40.335938 290.683594 39.980469 291.273438 L 37.160156 295.929688 C 36.804688 296.519531 36.992188 297.28125 37.582031 297.640625 C 38.171875 297.996094 38.9375 297.804688 39.292969 297.21875 " fill-opacity="1" fill-rule="nonzero"/><path fill="#ffb746" d="M 106.796875 325.714844 L 116.855469 331.789062 C 122.699219 335.320312 124.582031 342.910156 121.0625 348.757812 C 117.53125 354.628906 109.894531 356.519531 104.027344 352.972656 L 58.894531 325.714844 L 106.796875 325.714844 " fill-opacity="1" fill-rule="nonzero"/><path fill="#ffffff" d="M 111.820312 339.589844 L 47.164062 300.539062 C 46.1875 299.949219 45.871094 298.675781 46.464844 297.699219 C 47.054688 296.71875 48.332031 296.40625 49.308594 296.996094 L 113.964844 336.050781 C 115.554688 337.011719 115.171875 339.414062 113.363281 339.835938 C 112.839844 339.960938 112.285156 339.871094 111.820312 339.589844 " fill-opacity="1" fill-rule="nonzero"/><path fill="#ffd26b" d="M 299.234375 297.152344 C 298.238281 297.152344 297.28125 296.585938 296.832031 295.628906 C 296.214844 294.304688 296.785156 292.730469 298.109375 292.109375 L 327.574219 278.339844 C 328.898438 277.722656 330.476562 278.289062 331.097656 279.613281 C 331.714844 280.9375 331.144531 282.511719 329.820312 283.128906 L 300.355469 296.902344 C 299.992188 297.074219 299.613281 297.152344 299.234375 297.152344 " fill-opacity="1" fill-rule="nonzero"/><path fill="#ffd26b" d="M 290.335938 289.582031 C 289.339844 289.582031 288.382812 289.019531 287.933594 288.058594 C 287.316406 286.734375 287.886719 285.160156 289.210938 284.542969 L 318.679688 270.769531 C 320 270.144531 321.578125 270.71875 322.199219 272.042969 C 322.816406 273.367188 322.25 274.941406 320.921875 275.558594 L 291.453125 289.332031 C 291.09375 289.503906 290.710938 289.582031 290.335938 289.582031 " fill-opacity="1" fill-rule="nonzero"/><path fill="#ffd26b" d="M 277.695312 319.652344 C 276.234375 319.652344 275.046875 318.464844 275.046875 317.007812 L 275.046875 291.8125 C 275.046875 284.292969 279.453125 277.371094 286.273438 274.183594 L 309.773438 263.199219 C 311.097656 262.578125 312.679688 263.152344 313.296875 264.472656 C 313.917969 265.796875 313.34375 267.371094 312.023438 267.992188 L 288.519531 278.976562 C 283.550781 281.296875 280.34375 286.335938 280.34375 291.8125 L 280.34375 317.007812 C 280.34375 318.464844 279.15625 319.652344 277.695312 319.652344 " fill-opacity="1" fill-rule="nonzero"/></svg>