<svg xmlns="http://www.w3.org/2000/svg" xmlns:xlink="http://www.w3.org/1999/xlink" width="500" zoomAndPan="magnify" viewBox="0 0 375 374.999991" height="500" preserveAspectRatio="xMidYMid meet" version="1.0"><defs><clipPath id="5d0908ae9b"><path d="M 88 33.199219 L 282 33.199219 L 282 226 L 88 226 Z M 88 33.199219 " clip-rule="nonzero"/></clipPath><clipPath id="3dd7b7625a"><path d="M 48 239 L 92 239 L 92 341.449219 L 48 341.449219 Z M 48 239 " clip-rule="nonzero"/></clipPath><clipPath id="8cf1c3c9d4"><path d="M 48 315 L 92 315 L 92 341.449219 L 48 341.449219 Z M 48 315 " clip-rule="nonzero"/></clipPath></defs><g clip-path="url(#5d0908ae9b)"><path fill="#1095c0" d="M 281.605469 129.523438 C 281.605469 131.101562 281.566406 132.675781 281.488281 134.25 C 281.410156 135.824219 281.296875 137.398438 281.140625 138.964844 C 280.988281 140.535156 280.792969 142.097656 280.5625 143.65625 C 280.332031 145.21875 280.0625 146.769531 279.753906 148.316406 C 279.445312 149.863281 279.101562 151.398438 278.71875 152.929688 C 278.335938 154.457031 277.914062 155.976562 277.457031 157.484375 C 277 158.996094 276.503906 160.492188 275.972656 161.976562 C 275.441406 163.460938 274.875 164.929688 274.273438 166.386719 C 273.667969 167.84375 273.03125 169.28125 272.355469 170.707031 C 271.683594 172.132812 270.972656 173.539062 270.230469 174.929688 C 269.488281 176.320312 268.710938 177.691406 267.898438 179.042969 C 267.089844 180.398438 266.246094 181.726562 265.371094 183.039062 C 264.496094 184.351562 263.585938 185.636719 262.648438 186.90625 C 261.710938 188.171875 260.738281 189.414062 259.738281 190.632812 C 258.738281 191.851562 257.710938 193.042969 256.652344 194.210938 C 255.59375 195.378906 254.503906 196.519531 253.390625 197.636719 C 252.277344 198.75 251.136719 199.835938 249.964844 200.894531 C 248.796875 201.953125 247.605469 202.984375 246.386719 203.984375 C 245.167969 204.984375 243.925781 205.953125 242.660156 206.890625 C 241.394531 207.832031 240.105469 208.738281 238.792969 209.613281 C 237.484375 210.492188 236.152344 211.332031 234.800781 212.144531 C 233.445312 212.953125 232.074219 213.730469 230.683594 214.472656 C 229.292969 215.21875 227.886719 215.925781 226.460938 216.601562 C 225.035156 217.273438 223.597656 217.914062 222.140625 218.515625 C 220.683594 219.121094 219.210938 219.6875 217.726562 220.21875 C 216.242188 220.75 214.746094 221.242188 213.238281 221.699219 C 211.730469 222.15625 210.210938 222.578125 208.683594 222.960938 C 207.152344 223.34375 205.613281 223.691406 204.070312 223.996094 C 202.523438 224.304688 200.96875 224.574219 199.410156 224.804688 C 197.851562 225.035156 196.285156 225.230469 194.71875 225.382812 C 193.148438 225.539062 191.578125 225.65625 190.003906 225.730469 C 188.429688 225.808594 186.851562 225.847656 185.277344 225.847656 C 183.699219 225.847656 182.125 225.808594 180.550781 225.730469 C 178.976562 225.65625 177.402344 225.539062 175.835938 225.382812 C 174.265625 225.230469 172.699219 225.035156 171.140625 224.804688 C 169.582031 224.574219 168.027344 224.304688 166.484375 223.996094 C 164.9375 223.691406 163.398438 223.34375 161.871094 222.960938 C 160.339844 222.578125 158.820312 222.15625 157.3125 221.699219 C 155.804688 221.242188 154.308594 220.75 152.824219 220.21875 C 151.339844 219.6875 149.867188 219.121094 148.414062 218.515625 C 146.957031 217.914062 145.515625 217.273438 144.089844 216.601562 C 142.664062 215.925781 141.257812 215.21875 139.867188 214.472656 C 138.476562 213.730469 137.105469 212.953125 135.753906 212.144531 C 134.402344 211.332031 133.070312 210.492188 131.757812 209.613281 C 130.449219 208.738281 129.160156 207.832031 127.894531 206.890625 C 126.625 205.953125 125.382812 204.984375 124.164062 203.984375 C 122.945312 202.984375 121.753906 201.953125 120.585938 200.894531 C 119.417969 199.835938 118.277344 198.75 117.160156 197.636719 C 116.046875 196.519531 114.960938 195.378906 113.902344 194.210938 C 112.84375 193.042969 111.8125 191.851562 110.8125 190.632812 C 109.8125 189.414062 108.84375 188.171875 107.902344 186.90625 C 106.964844 185.636719 106.058594 184.351562 105.179688 183.039062 C 104.304688 181.726562 103.460938 180.398438 102.652344 179.042969 C 101.839844 177.691406 101.0625 176.320312 100.320312 174.929688 C 99.578125 173.539062 98.871094 172.132812 98.195312 170.707031 C 97.519531 169.28125 96.882812 167.84375 96.28125 166.386719 C 95.675781 164.929688 95.109375 163.460938 94.578125 161.976562 C 94.046875 160.492188 93.550781 158.996094 93.09375 157.484375 C 92.636719 155.976562 92.214844 154.457031 91.832031 152.929688 C 91.449219 151.398438 91.105469 149.863281 90.796875 148.316406 C 90.488281 146.769531 90.222656 145.21875 89.988281 143.65625 C 89.757812 142.097656 89.566406 140.535156 89.410156 138.964844 C 89.257812 137.398438 89.140625 135.824219 89.0625 134.25 C 88.984375 132.675781 88.945312 131.101562 88.945312 129.523438 C 88.945312 127.949219 88.984375 126.371094 89.0625 124.796875 C 89.140625 123.222656 89.257812 121.652344 89.410156 120.082031 C 89.566406 118.515625 89.757812 116.949219 89.988281 115.390625 C 90.222656 113.832031 90.488281 112.277344 90.796875 110.734375 C 91.105469 109.1875 91.449219 107.648438 91.832031 106.121094 C 92.214844 104.589844 92.636719 103.070312 93.09375 101.5625 C 93.550781 100.054688 94.046875 98.558594 94.578125 97.074219 C 95.109375 95.589844 95.675781 94.121094 96.28125 92.664062 C 96.882812 91.207031 97.519531 89.765625 98.195312 88.339844 C 98.871094 86.914062 99.578125 85.507812 100.320312 84.117188 C 101.0625 82.726562 101.839844 81.355469 102.652344 80.003906 C 103.460938 78.652344 104.304688 77.320312 105.179688 76.007812 C 106.058594 74.699219 106.964844 73.410156 107.902344 72.144531 C 108.84375 70.878906 109.8125 69.636719 110.8125 68.417969 C 111.8125 67.199219 112.84375 66.003906 113.902344 64.835938 C 114.960938 63.667969 116.046875 62.527344 117.160156 61.414062 C 118.277344 60.296875 119.417969 59.210938 120.585938 58.152344 C 121.753906 57.09375 122.945312 56.066406 124.164062 55.066406 C 125.382812 54.066406 126.625 53.09375 127.894531 52.15625 C 129.160156 51.21875 130.449219 50.308594 131.757812 49.433594 C 133.070312 48.558594 134.402344 47.714844 135.753906 46.90625 C 137.105469 46.09375 138.476562 45.316406 139.867188 44.574219 C 141.257812 43.832031 142.664062 43.121094 144.089844 42.449219 C 145.515625 41.773438 146.957031 41.136719 148.414062 40.53125 C 149.867188 39.929688 151.339844 39.363281 152.824219 38.832031 C 154.308594 38.300781 155.804688 37.804688 157.3125 37.347656 C 158.820312 36.890625 160.339844 36.46875 161.871094 36.085938 C 163.398438 35.703125 164.9375 35.359375 166.484375 35.050781 C 168.027344 34.742188 169.582031 34.472656 171.140625 34.242188 C 172.699219 34.011719 174.265625 33.820312 175.835938 33.664062 C 177.402344 33.507812 178.976562 33.394531 180.550781 33.316406 C 182.125 33.238281 183.699219 33.199219 185.277344 33.199219 C 186.851562 33.199219 188.429688 33.238281 190.003906 33.316406 C 191.578125 33.394531 193.148438 33.507812 194.71875 33.664062 C 196.285156 33.820312 197.851562 34.011719 199.410156 34.242188 C 200.96875 34.472656 202.523438 34.742188 204.070312 35.050781 C 205.613281 35.359375 207.152344 35.703125 208.683594 36.085938 C 210.210938 36.46875 211.730469 36.890625 213.238281 37.347656 C 214.746094 37.804688 216.242188 38.300781 217.726562 38.832031 C 219.210938 39.363281 220.683594 39.929688 222.140625 40.53125 C 223.597656 41.136719 225.035156 41.773438 226.460938 42.449219 C 227.886719 43.121094 229.292969 43.832031 230.683594 44.574219 C 232.074219 45.316406 233.445312 46.09375 234.800781 46.90625 C 236.152344 47.714844 237.484375 48.558594 238.792969 49.433594 C 240.105469 50.308594 241.394531 51.21875 242.660156 52.15625 C 243.925781 53.09375 245.167969 54.066406 246.386719 55.066406 C 247.605469 56.066406 248.796875 57.09375 249.964844 58.152344 C 251.136719 59.210938 252.277344 60.296875 253.390625 61.414062 C 254.503906 62.527344 255.59375 63.667969 256.652344 64.835938 C 257.710938 66.003906 258.738281 67.199219 259.738281 68.417969 C 260.738281 69.636719 261.710938 70.878906 262.648438 72.144531 C 263.585938 73.410156 264.496094 74.699219 265.371094 76.007812 C 266.246094 77.320312 267.089844 78.652344 267.898438 80.003906 C 268.710938 81.355469 269.488281 82.726562 270.230469 84.117188 C 270.972656 85.507812 271.683594 86.914062 272.355469 88.339844 C 273.03125 89.765625 273.667969 91.207031 274.273438 92.664062 C 274.875 94.121094 275.441406 95.589844 275.972656 97.074219 C 276.503906 98.558594 277 100.054688 277.457031 101.5625 C 277.914062 103.070312 278.335938 104.589844 278.71875 106.121094 C 279.101562 107.648438 279.445312 109.1875 279.753906 110.734375 C 280.0625 112.277344 280.332031 113.832031 280.5625 115.390625 C 280.792969 116.949219 280.988281 118.515625 281.140625 120.082031 C 281.296875 121.652344 281.410156 123.222656 281.488281 124.796875 C 281.566406 126.371094 281.605469 127.949219 281.605469 129.523438 Z M 281.605469 129.523438 " fill-opacity="1" fill-rule="nonzero"/></g><path fill="#108cb5" d="M 198.691406 34.242188 C 200.15625 34.632812 201.613281 35.058594 203.058594 35.515625 C 204.507812 35.976562 205.941406 36.46875 207.363281 36.996094 C 208.789062 37.523438 210.195312 38.085938 211.59375 38.679688 C 212.992188 39.273438 214.371094 39.898438 215.738281 40.558594 C 217.105469 41.21875 218.457031 41.910156 219.789062 42.632812 C 221.125 43.355469 222.441406 44.113281 223.738281 44.898438 C 225.039062 45.683594 226.316406 46.5 227.578125 47.34375 C 228.835938 48.191406 230.078125 49.066406 231.296875 49.972656 C 232.511719 50.878906 233.710938 51.808594 234.882812 52.773438 C 236.058594 53.734375 237.210938 54.722656 238.335938 55.738281 C 239.464844 56.753906 240.566406 57.796875 241.644531 58.863281 C 242.722656 59.933594 243.777344 61.027344 244.800781 62.144531 C 245.828125 63.261719 246.828125 64.402344 247.800781 65.570312 C 248.773438 66.734375 249.714844 67.921875 250.632812 69.132812 C 251.546875 70.339844 252.4375 71.574219 253.292969 72.824219 C 254.152344 74.078125 254.980469 75.347656 255.777344 76.640625 C 256.574219 77.929688 257.339844 79.238281 258.078125 80.566406 C 258.8125 81.894531 259.515625 83.238281 260.1875 84.597656 C 260.859375 85.960938 261.5 87.335938 262.105469 88.726562 C 262.714844 90.117188 263.289062 91.523438 263.828125 92.941406 C 264.367188 94.359375 264.875 95.789062 265.347656 97.230469 C 265.820312 98.671875 266.257812 100.125 266.664062 101.589844 C 267.066406 103.050781 267.4375 104.523438 267.769531 106.003906 C 268.105469 107.484375 268.402344 108.972656 268.667969 110.464844 C 268.929688 111.960938 269.160156 113.460938 269.351562 114.964844 C 269.546875 116.472656 269.703125 117.980469 269.824219 119.492188 C 269.945312 121.007812 270.03125 122.519531 270.082031 124.039062 C 270.128906 125.554688 270.144531 127.070312 270.121094 128.589844 C 270.101562 130.105469 270.042969 131.625 269.949219 133.136719 C 269.855469 134.652344 269.726562 136.164062 269.558594 137.671875 C 269.394531 139.179688 269.195312 140.683594 268.957031 142.183594 C 268.71875 143.683594 268.449219 145.175781 268.140625 146.664062 C 267.832031 148.148438 267.492188 149.625 267.113281 151.097656 C 266.738281 152.566406 266.324219 154.027344 265.878906 155.476562 C 265.433594 156.929688 264.953125 158.367188 264.4375 159.796875 C 263.921875 161.222656 263.375 162.636719 262.792969 164.039062 C 262.210938 165.441406 261.597656 166.828125 260.953125 168.203125 C 260.304688 169.574219 259.625 170.929688 258.914062 172.273438 C 258.203125 173.613281 257.460938 174.9375 256.6875 176.242188 C 255.910156 177.546875 255.105469 178.832031 254.273438 180.101562 C 253.4375 181.367188 252.574219 182.613281 251.679688 183.839844 C 250.785156 185.066406 249.863281 186.273438 248.914062 187.457031 C 247.960938 188.636719 246.984375 189.796875 245.976562 190.933594 C 244.972656 192.070312 243.9375 193.183594 242.878906 194.269531 C 241.824219 195.359375 240.738281 196.421875 239.628906 197.457031 C 238.519531 198.492188 237.386719 199.503906 236.230469 200.484375 C 235.074219 201.46875 233.898438 202.425781 232.695312 203.351562 C 231.492188 204.277344 230.269531 205.175781 229.027344 206.046875 C 227.78125 206.914062 226.515625 207.753906 225.234375 208.5625 C 223.949219 209.371094 222.648438 210.148438 221.328125 210.898438 C 220.003906 211.644531 218.667969 212.363281 217.3125 213.046875 C 215.957031 213.730469 214.589844 214.382812 213.203125 215 C 211.816406 215.621094 210.417969 216.207031 209.003906 216.761719 C 207.589844 217.3125 206.164062 217.832031 204.726562 218.320312 C 203.289062 218.804688 201.839844 219.257812 200.382812 219.671875 C 198.921875 220.089844 197.453125 220.472656 195.976562 220.820312 C 194.5 221.167969 193.015625 221.480469 191.523438 221.757812 C 190.03125 222.035156 188.53125 222.277344 187.027344 222.484375 C 185.523438 222.691406 184.019531 222.863281 182.507812 222.996094 C 180.996094 223.132812 179.480469 223.230469 177.964844 223.292969 C 176.449219 223.359375 174.929688 223.386719 173.414062 223.378906 C 171.894531 223.367188 170.378906 223.324219 168.863281 223.246094 C 167.347656 223.164062 165.835938 223.046875 164.324219 222.898438 C 162.8125 222.746094 161.308594 222.558594 159.808594 222.335938 C 161.386719 222.769531 162.980469 223.164062 164.582031 223.519531 C 166.183594 223.875 167.792969 224.1875 169.410156 224.457031 C 171.027344 224.730469 172.652344 224.960938 174.28125 225.148438 C 175.910156 225.339844 177.542969 225.484375 179.179688 225.589844 C 180.816406 225.695312 182.453125 225.757812 184.09375 225.78125 C 185.734375 225.800781 187.375 225.78125 189.011719 225.71875 C 190.652344 225.65625 192.289062 225.554688 193.921875 225.40625 C 195.554688 225.261719 197.183594 225.074219 198.808594 224.84375 C 200.433594 224.617188 202.050781 224.34375 203.660156 224.035156 C 205.269531 223.722656 206.871094 223.367188 208.464844 222.976562 C 210.054688 222.582031 211.636719 222.148438 213.207031 221.671875 C 214.777344 221.199219 216.332031 220.683594 217.878906 220.128906 C 219.421875 219.574219 220.949219 218.984375 222.464844 218.351562 C 223.976562 217.71875 225.472656 217.046875 226.953125 216.339844 C 228.429688 215.628906 229.890625 214.882812 231.332031 214.101562 C 232.773438 213.316406 234.191406 212.496094 235.59375 211.640625 C 236.992188 210.785156 238.367188 209.894531 239.722656 208.96875 C 241.074219 208.042969 242.402344 207.082031 243.707031 206.085938 C 245.011719 205.09375 246.289062 204.066406 247.542969 203.003906 C 248.792969 201.945312 250.019531 200.855469 251.214844 199.734375 C 252.410156 198.609375 253.578125 197.457031 254.714844 196.277344 C 255.851562 195.09375 256.957031 193.882812 258.035156 192.644531 C 259.109375 191.40625 260.152344 190.144531 261.164062 188.851562 C 262.171875 187.558594 263.148438 186.242188 264.09375 184.902344 C 265.035156 183.558594 265.945312 182.195312 266.820312 180.804688 C 267.691406 179.417969 268.53125 178.007812 269.332031 176.578125 C 270.132812 175.148438 270.898438 173.695312 271.625 172.226562 C 272.351562 170.757812 273.039062 169.269531 273.691406 167.761719 C 274.34375 166.257812 274.957031 164.738281 275.527344 163.199219 C 276.101562 161.664062 276.636719 160.113281 277.128906 158.550781 C 277.625 156.984375 278.078125 155.410156 278.492188 153.824219 C 278.90625 152.234375 279.277344 150.640625 279.609375 149.035156 C 279.941406 147.425781 280.234375 145.8125 280.484375 144.191406 C 280.734375 142.570312 280.941406 140.945312 281.105469 139.3125 C 281.273438 137.683594 281.398438 136.046875 281.480469 134.410156 C 281.5625 132.769531 281.605469 131.132812 281.601562 129.492188 C 281.601562 127.851562 281.558594 126.210938 281.472656 124.574219 C 281.390625 122.9375 281.261719 121.300781 281.09375 119.671875 C 280.925781 118.039062 280.714844 116.414062 280.464844 114.792969 C 280.214844 113.171875 279.921875 111.558594 279.585938 109.953125 C 279.253906 108.347656 278.878906 106.75 278.460938 105.164062 C 278.046875 103.578125 277.589844 102.003906 277.09375 100.441406 C 276.597656 98.875 276.0625 97.328125 275.488281 95.792969 C 274.910156 94.253906 274.296875 92.734375 273.644531 91.230469 C 272.992188 89.726562 272.300781 88.238281 271.570312 86.769531 C 270.839844 85.300781 270.074219 83.851562 269.273438 82.421875 C 268.46875 80.992188 267.628906 79.582031 266.753906 78.195312 C 265.878906 76.808594 264.96875 75.445312 264.023438 74.105469 C 263.078125 72.765625 262.101562 71.449219 261.089844 70.160156 C 260.074219 68.867188 259.03125 67.605469 257.953125 66.367188 C 256.878906 65.128906 255.769531 63.921875 254.632812 62.742188 C 253.492188 61.558594 252.324219 60.410156 251.128906 59.289062 C 249.929688 58.167969 248.703125 57.078125 247.449219 56.019531 C 246.199219 54.960938 244.917969 53.9375 243.613281 52.945312 C 242.308594 51.953125 240.976562 50.992188 239.621094 50.070312 C 238.269531 49.144531 236.890625 48.253906 235.488281 47.398438 C 234.089844 46.546875 232.667969 45.726562 231.226562 44.945312 C 229.785156 44.164062 228.324219 43.421875 226.84375 42.714844 C 225.363281 42.007812 223.867188 41.335938 222.351562 40.707031 C 220.839844 40.078125 219.308594 39.484375 217.765625 38.933594 C 216.21875 38.382812 214.664062 37.867188 213.09375 37.394531 C 211.523438 36.921875 209.941406 36.492188 208.347656 36.101562 C 206.753906 35.707031 205.152344 35.355469 203.542969 35.046875 C 201.929688 34.738281 200.3125 34.46875 198.691406 34.242188 Z M 198.691406 34.242188 " fill-opacity="1" fill-rule="nonzero"/><path fill="#34ff1e" d="M 97.851562 132.835938 C 98.40625 132.003906 152.765625 63.714844 52.964844 58.304688 C 54.347656 60.382812 55.492188 62.582031 56.398438 64.90625 C 57.304688 67.230469 57.949219 69.625 58.335938 72.089844 C 58.722656 74.554688 58.835938 77.03125 58.683594 79.523438 C 58.53125 82.011719 58.113281 84.457031 57.429688 86.855469 C 50.144531 117.265625 97.851562 132.835938 97.851562 132.835938 Z M 97.851562 132.835938 " fill-opacity="1" fill-rule="nonzero"/><path fill="#34e71e" d="M 104.765625 74.484375 C 126.554688 96.132812 98.835938 131.496094 97.898438 132.773438 C 101.347656 132.140625 138.980469 124.566406 139.664062 95.007812 C 139.613281 92.546875 139.789062 90.105469 140.183594 87.679688 C 140.582031 85.253906 141.191406 82.882812 142.019531 80.566406 C 142.847656 78.25 143.875 76.03125 145.109375 73.902344 C 146.339844 71.773438 147.753906 69.773438 149.347656 67.902344 C 127.175781 64.554688 113.289062 67.890625 104.765625 74.484375 Z M 104.765625 74.484375 " fill-opacity="1" fill-rule="nonzero"/><path fill="#79d71e" d="M 185.339844 149.511719 C 179.726562 142.539062 171.386719 150.464844 166.675781 142.65625 C 163.859375 137.992188 164.761719 131.117188 159.65625 128.609375 C 158.445312 128.121094 157.195312 127.796875 155.898438 127.632812 C 154.605469 127.464844 153.3125 127.46875 152.015625 127.636719 C 150.722656 127.804688 149.472656 128.132812 148.261719 128.621094 C 147.054688 129.113281 145.925781 129.75 144.878906 130.527344 C 144.109375 131.007812 143.390625 131.554688 142.722656 132.167969 C 142.050781 132.78125 141.445312 133.449219 140.902344 134.175781 C 140.359375 134.902344 139.886719 135.671875 139.484375 136.488281 C 139.085938 137.300781 138.761719 138.144531 138.519531 139.019531 C 138.277344 139.894531 138.117188 140.78125 138.039062 141.6875 C 137.960938 142.589844 137.964844 143.496094 138.054688 144.398438 C 138.144531 145.300781 138.320312 146.1875 138.574219 147.058594 C 138.828125 147.929688 139.164062 148.765625 139.574219 149.574219 C 140.15625 150.761719 141 151.71875 142.101562 152.441406 C 144.640625 153.8125 146.863281 155.574219 148.769531 157.734375 C 154.15625 164.0625 150.925781 176.042969 150.925781 176.042969 C 148.230469 184.257812 148.679688 196.957031 157.132812 196.964844 C 164.132812 196.976562 165.394531 188.472656 165.796875 181.742188 C 166.203125 175.011719 172.9375 173.082031 179.820312 169.972656 C 180.636719 169.449219 181.398438 168.851562 182.101562 168.1875 C 182.808594 167.523438 183.449219 166.796875 184.023438 166.011719 C 184.59375 165.230469 185.089844 164.398438 185.511719 163.523438 C 185.933594 162.648438 186.269531 161.742188 186.519531 160.804688 C 186.773438 159.867188 186.9375 158.917969 187.015625 157.949219 C 187.09375 156.980469 187.082031 156.015625 186.980469 155.046875 C 186.878906 154.082031 186.691406 153.136719 186.414062 152.203125 C 186.140625 151.273438 185.78125 150.375 185.339844 149.511719 Z M 185.339844 149.511719 " fill-opacity="1" fill-rule="nonzero"/><path fill="#79d71e" d="M 268.902344 111.917969 L 279.386719 109.105469 C 278.683594 105.875 277.816406 102.691406 276.78125 99.554688 C 275.75 96.414062 274.5625 93.339844 273.210938 90.320312 C 271.863281 87.304688 270.363281 84.367188 268.714844 81.503906 C 267.0625 78.640625 265.269531 75.871094 263.332031 73.195312 C 261.398438 70.515625 259.328125 67.945312 257.128906 65.480469 C 254.929688 63.015625 252.609375 60.671875 250.164062 58.445312 C 247.722656 56.21875 245.175781 54.125 242.515625 52.160156 C 239.859375 50.195312 237.109375 48.375 234.265625 46.695312 C 225.679688 47.59375 218.675781 49.207031 216.535156 52.066406 C 209.730469 61.152344 213.511719 72.058594 199.148438 79.023438 C 190.890625 83.03125 185.316406 93.175781 182.074219 101.078125 C 181.765625 101.84375 181.515625 102.625 181.324219 103.425781 C 181.132812 104.226562 181.003906 105.035156 180.933594 105.855469 C 180.863281 106.675781 180.851562 107.5 180.90625 108.320312 C 180.957031 109.140625 181.066406 109.953125 181.242188 110.757812 C 181.414062 111.566406 181.644531 112.351562 181.933594 113.125 C 182.222656 113.894531 182.566406 114.640625 182.96875 115.359375 C 183.367188 116.078125 183.820312 116.765625 184.320312 117.417969 C 184.824219 118.070312 185.371094 118.679688 185.964844 119.25 C 187.023438 120.261719 188.191406 121.125 189.46875 121.847656 C 190.742188 122.566406 192.085938 123.121094 193.496094 123.511719 C 194.910156 123.898438 196.347656 124.109375 197.8125 124.144531 C 199.273438 124.175781 200.722656 124.03125 202.148438 123.710938 C 204.9375 122.859375 207.789062 122.472656 210.703125 122.546875 C 213.613281 122.625 216.441406 123.160156 219.179688 124.15625 C 226.738281 128.703125 218.933594 136.625 221.828125 147.480469 C 224.71875 158.335938 220.171875 169.632812 229.289062 171.714844 C 238.40625 173.792969 256.277344 158.765625 256.597656 145.363281 C 256.660156 143.90625 256.875 142.472656 257.238281 141.0625 C 257.605469 139.652344 258.113281 138.292969 258.765625 136.988281 C 259.417969 135.6875 260.199219 134.464844 261.109375 133.328125 C 262.019531 132.1875 263.039062 131.15625 264.164062 130.234375 C 264.5625 129.925781 264.929688 129.578125 265.257812 129.195312 C 265.589844 128.8125 265.878906 128.402344 266.128906 127.960938 C 266.378906 127.523438 266.582031 127.0625 266.742188 126.585938 C 266.898438 126.105469 267.011719 125.613281 267.074219 125.113281 C 267.136719 124.609375 267.148438 124.109375 267.109375 123.605469 C 267.074219 123.101562 266.988281 122.605469 266.855469 122.117188 C 266.722656 121.632812 266.539062 121.160156 266.3125 120.710938 C 266.085938 120.257812 265.820312 119.832031 265.507812 119.433594 L 265.449219 119.355469 C 263.351562 116.574219 265.058594 112.949219 268.902344 111.917969 Z M 268.902344 111.917969 " fill-opacity="1" fill-rule="nonzero"/><path fill="#ffcec0" d="M 317.96875 232.273438 L 317.625 232.027344 C 316.824219 231.453125 315.976562 230.957031 315.089844 230.535156 C 314.199219 230.113281 313.277344 229.773438 312.328125 229.515625 C 311.378906 229.257812 310.410156 229.085938 309.429688 229 C 308.449219 228.917969 307.46875 228.917969 306.488281 229.011719 C 305.507812 229.101562 304.542969 229.277344 303.59375 229.539062 C 302.644531 229.804688 301.726562 230.148438 300.839844 230.574219 C 299.953125 231.003906 299.109375 231.503906 298.3125 232.082031 C 297.515625 232.660156 296.777344 233.304688 296.09375 234.015625 L 266.941406 263.84375 C 264.46875 266.257812 262.640625 269.089844 261.453125 272.335938 C 259.730469 278.292969 256.980469 283.730469 253.203125 288.648438 C 246.347656 298.175781 238.414062 302.675781 222.339844 304.710938 C 220.101562 305 217.851562 305.148438 215.589844 305.15625 C 208.414062 305.597656 201.429688 304.648438 194.632812 302.296875 C 190.382812 299.929688 185.878906 298.242188 181.121094 297.230469 C 176.363281 296.222656 171.558594 295.933594 166.714844 296.375 C 163.097656 296.707031 159.753906 295.71875 159.386719 292.09375 C 159.023438 288.460938 162.777344 287.082031 166.273438 286.703125 C 171.964844 286.046875 177.628906 286.234375 183.261719 287.261719 C 188.898438 288.289062 194.265625 290.113281 199.359375 292.738281 C 202.75 294.402344 206.304688 295.550781 210.03125 296.175781 C 213.757812 296.796875 217.496094 296.875 221.242188 296.40625 C 223.761719 296.269531 226.246094 295.890625 228.6875 295.269531 C 231.132812 294.648438 233.496094 293.792969 235.773438 292.707031 C 238.050781 291.621094 240.199219 290.324219 242.222656 288.816406 C 244.246094 287.308594 246.101562 285.617188 247.792969 283.746094 L 247.925781 283.5625 C 248.167969 283.121094 248.386719 282.671875 248.578125 282.210938 C 248.773438 281.746094 248.945312 281.277344 249.089844 280.796875 C 249.234375 280.316406 249.355469 279.828125 249.449219 279.335938 C 249.542969 278.84375 249.609375 278.347656 249.652344 277.847656 C 249.691406 277.347656 249.707031 276.847656 249.695312 276.34375 C 249.6875 275.84375 249.648438 275.34375 249.585938 274.847656 C 249.519531 274.347656 249.433594 273.855469 249.316406 273.367188 C 249.199219 272.878906 249.058594 272.398438 248.894531 271.925781 C 248.726562 271.453125 248.539062 270.988281 248.324219 270.535156 C 248.109375 270.082031 247.871094 269.640625 247.609375 269.210938 C 247.347656 268.785156 247.066406 268.371094 246.761719 267.972656 C 246.457031 267.574219 246.132812 267.191406 245.789062 266.828125 C 245.441406 266.460938 245.078125 266.117188 244.699219 265.789062 C 244.316406 265.464844 243.921875 265.160156 243.507812 264.875 C 243.09375 264.589844 242.667969 264.328125 242.226562 264.085938 C 241.785156 263.847656 241.335938 263.632812 240.871094 263.441406 C 235.742188 262.015625 230.519531 261.207031 225.199219 261.003906 C 216.828125 260.578125 208.621094 259.1875 200.582031 256.824219 C 192.539062 254.460938 184.882812 251.191406 177.613281 247.023438 C 172.429688 243.8125 166.863281 241.550781 160.90625 240.242188 C 141.371094 236.355469 128.546875 240.765625 121.902344 246.691406 C 112.671875 253.847656 102.507812 259.261719 91.414062 262.929688 L 86.730469 262.941406 L 86.730469 323.242188 L 112.914062 321.636719 C 123.953125 320.71875 134.792969 321.808594 145.429688 324.90625 C 145.429688 324.90625 181.65625 332.648438 193.667969 335.539062 C 214.253906 340.492188 237.390625 340.375 254.308594 327.226562 C 273.300781 312.464844 322.003906 258.167969 322.003906 258.167969 C 322.363281 257.679688 322.699219 257.171875 323.007812 256.648438 C 323.316406 256.128906 323.601562 255.589844 323.855469 255.039062 C 324.113281 254.488281 324.34375 253.929688 324.542969 253.355469 C 324.746094 252.78125 324.917969 252.199219 325.0625 251.609375 C 325.207031 251.019531 325.320312 250.425781 325.40625 249.824219 C 325.492188 249.222656 325.546875 248.617188 325.570312 248.011719 C 325.597656 247.40625 325.59375 246.796875 325.558594 246.191406 C 325.523438 245.585938 325.460938 244.980469 325.367188 244.382812 C 325.273438 243.78125 325.152344 243.1875 325 242.597656 C 324.847656 242.011719 324.667969 241.433594 324.457031 240.863281 C 324.25 240.292969 324.011719 239.734375 323.746094 239.1875 C 323.484375 238.640625 323.191406 238.105469 322.875 237.589844 C 322.558594 237.070312 322.21875 236.570312 321.851562 236.082031 C 321.484375 235.597656 321.097656 235.132812 320.683594 234.6875 C 320.273438 234.242188 319.839844 233.816406 319.386719 233.414062 C 318.933594 233.007812 318.460938 232.628906 317.96875 232.273438 Z M 317.96875 232.273438 " fill-opacity="1" fill-rule="nonzero"/><path fill="#fdb0a0" d="M 325.402344 245.019531 C 317.902344 253.332031 276.246094 299.238281 258.988281 312.652344 C 242.074219 325.800781 218.9375 325.917969 198.351562 320.964844 C 186.339844 318.074219 150.113281 310.328125 150.113281 310.328125 C 139.375 307.554688 128.46875 306.46875 117.394531 307.066406 C 81.496094 307.589844 86.730469 323.242188 86.730469 323.242188 L 104.152344 322.171875 L 112.914062 321.632812 C 123.957031 320.714844 134.792969 321.804688 145.429688 324.90625 C 145.429688 324.90625 181.65625 332.648438 193.667969 335.539062 C 214.253906 340.492188 237.390625 340.375 254.308594 327.226562 C 273.300781 312.464844 322.003906 258.167969 322.003906 258.167969 C 323.390625 256.273438 324.375 254.191406 324.960938 251.917969 C 325.550781 249.648438 325.695312 247.347656 325.402344 245.019531 Z M 325.402344 245.019531 " fill-opacity="1" fill-rule="nonzero"/><g clip-path="url(#3dd7b7625a)"><path fill="#8ac9fe" d="M 48.738281 239.65625 L 80.058594 239.65625 C 80.804688 239.65625 81.542969 239.726562 82.273438 239.875 C 83.003906 240.019531 83.714844 240.234375 84.40625 240.519531 C 85.09375 240.804688 85.746094 241.15625 86.367188 241.570312 C 86.988281 241.984375 87.5625 242.453125 88.089844 242.980469 C 88.617188 243.507812 89.085938 244.082031 89.5 244.703125 C 89.914062 245.320312 90.265625 245.976562 90.550781 246.664062 C 90.835938 247.351562 91.050781 248.0625 91.195312 248.792969 C 91.339844 249.527344 91.414062 250.265625 91.414062 251.007812 L 91.414062 330.261719 C 91.414062 331.007812 91.339844 331.746094 91.195312 332.476562 C 91.050781 333.207031 90.835938 333.917969 90.550781 334.605469 C 90.265625 335.296875 89.914062 335.949219 89.5 336.570312 C 89.085938 337.191406 88.617188 337.761719 88.089844 338.289062 C 87.5625 338.816406 86.988281 339.289062 86.367188 339.703125 C 85.746094 340.117188 85.09375 340.464844 84.40625 340.75 C 83.714844 341.035156 83.003906 341.253906 82.273438 341.398438 C 81.542969 341.542969 80.804688 341.617188 80.058594 341.617188 L 48.738281 341.617188 Z M 48.738281 239.65625 " fill-opacity="1" fill-rule="nonzero"/></g><path fill="#1be21e" d="M 97.898438 132.773438 C 100.761719 132.210938 103.582031 131.476562 106.355469 130.570312 C 113.511719 119.554688 124.179688 98.4375 115.675781 80.148438 C 114.109375 76.9375 112.078125 74.054688 109.585938 71.496094 C 107.890625 72.347656 106.285156 73.34375 104.765625 74.484375 C 126.554688 96.132812 98.835938 131.496094 97.898438 132.773438 Z M 97.898438 132.773438 " fill-opacity="1" fill-rule="nonzero"/><g clip-path="url(#8cf1c3c9d4)"><path fill="#8abded" d="M 76.566406 323.75 L 48.738281 323.75 L 48.738281 341.617188 L 78.675781 341.617188 C 79.527344 341.601562 80.371094 341.5 81.203125 341.316406 C 82.035156 341.136719 82.84375 340.875 83.625 340.53125 C 84.40625 340.191406 85.144531 339.777344 85.847656 339.289062 C 86.546875 338.804688 87.191406 338.253906 87.78125 337.640625 C 88.375 337.023438 88.898438 336.359375 89.359375 335.640625 C 89.820312 334.925781 90.207031 334.167969 90.519531 333.375 C 90.828125 332.582031 91.058594 331.765625 91.210938 330.925781 C 91.363281 330.085938 91.429688 329.242188 91.414062 328.390625 L 91.414062 315.878906 C 90.582031 317.085938 89.621094 318.171875 88.53125 319.144531 C 87.4375 320.117188 86.246094 320.949219 84.953125 321.632812 C 83.660156 322.316406 82.304688 322.839844 80.886719 323.199219 C 79.46875 323.554688 78.027344 323.738281 76.566406 323.75 Z M 76.566406 323.75 " fill-opacity="1" fill-rule="nonzero"/></g><path fill="#34e71e" d="M 82.519531 85.371094 C 82.21875 85.152344 81.902344 84.960938 81.566406 84.804688 C 81.230469 84.648438 80.882812 84.527344 80.523438 84.4375 C 80.160156 84.347656 79.796875 84.296875 79.425781 84.277344 C 79.054688 84.261719 78.6875 84.277344 78.320312 84.335938 C 77.953125 84.390625 77.597656 84.480469 77.246094 84.605469 C 76.898438 84.730469 76.566406 84.886719 76.246094 85.078125 C 75.929688 85.269531 75.632812 85.488281 75.355469 85.734375 C 75.082031 85.984375 74.832031 86.257812 74.613281 86.554688 C 74.390625 86.851562 74.199219 87.167969 74.039062 87.503906 C 73.878906 87.835938 73.753906 88.183594 73.664062 88.542969 C 73.570312 88.902344 73.515625 89.265625 73.496094 89.636719 C 73.472656 90.007812 73.488281 90.375 73.542969 90.742188 C 73.59375 91.109375 73.679688 91.46875 73.804688 91.820312 C 73.925781 92.167969 74.082031 92.503906 74.269531 92.824219 C 74.457031 93.144531 74.671875 93.441406 74.917969 93.71875 C 75.164062 93.996094 75.4375 94.246094 75.730469 94.46875 C 76.710938 95.21875 99.589844 113.300781 90.394531 160.183594 C 90.324219 160.550781 90.289062 160.921875 90.289062 161.292969 C 90.289062 161.667969 90.328125 162.035156 90.398438 162.402344 C 90.472656 162.769531 90.582031 163.121094 90.726562 163.46875 C 90.871094 163.8125 91.042969 164.136719 91.253906 164.449219 C 91.460938 164.757812 91.695312 165.042969 91.960938 165.308594 C 92.226562 165.570312 92.511719 165.804688 92.824219 166.011719 C 93.136719 166.21875 93.460938 166.390625 93.808594 166.535156 C 94.152344 166.675781 94.507812 166.78125 94.875 166.855469 C 95.242188 166.925781 95.609375 166.960938 95.984375 166.960938 C 96.355469 166.960938 96.726562 166.921875 97.089844 166.847656 C 97.457031 166.773438 97.8125 166.664062 98.15625 166.523438 C 98.5 166.378906 98.828125 166.203125 99.136719 165.992188 C 99.445312 165.785156 99.730469 165.546875 99.996094 165.285156 C 100.257812 165.019531 100.492188 164.730469 100.699219 164.421875 C 100.90625 164.109375 101.078125 163.78125 101.21875 163.4375 C 101.363281 163.089844 101.46875 162.734375 101.539062 162.371094 C 112.191406 108.039062 83.734375 86.269531 82.519531 85.371094 Z M 82.519531 85.371094 " fill-opacity="1" fill-rule="nonzero"/><path fill="#6dd01e" d="M 268.28125 112.148438 C 268.488281 112.074219 268.679688 111.976562 268.902344 111.917969 L 279.386719 109.105469 C 278.683594 105.875 277.816406 102.691406 276.78125 99.554688 C 275.75 96.414062 274.5625 93.335938 273.210938 90.320312 C 271.863281 87.304688 270.363281 84.367188 268.714844 81.503906 C 267.0625 78.640625 265.269531 75.871094 263.332031 73.195312 C 261.398438 70.515625 259.328125 67.945312 257.128906 65.480469 C 254.929688 63.015625 252.609375 60.671875 250.164062 58.445312 C 247.722656 56.21875 245.175781 54.125 242.515625 52.160156 C 239.859375 50.195312 237.109375 48.375 234.265625 46.695312 C 231.914062 46.941406 229.699219 47.246094 227.65625 47.609375 C 230.351562 49.460938 232.945312 51.441406 235.441406 53.558594 C 237.933594 55.671875 240.3125 57.910156 242.582031 60.269531 C 244.847656 62.625 246.984375 65.09375 249 67.667969 C 251.015625 70.246094 252.894531 72.917969 254.636719 75.683594 C 256.378906 78.453125 257.972656 81.300781 259.425781 84.230469 C 260.878906 87.160156 262.175781 90.15625 263.320312 93.21875 C 264.46875 96.28125 265.457031 99.394531 266.285156 102.558594 C 267.113281 105.722656 267.777344 108.917969 268.28125 112.148438 Z M 268.28125 112.148438 " fill-opacity="1" fill-rule="nonzero"/></svg>