<svg width="277" height="407" viewBox="0 0 277 407" fill="none" xmlns="http://www.w3.org/2000/svg">
<mask id="mask0_49_18" style="mask-type:luminance" maskUnits="userSpaceOnUse" x="0" y="0" width="277" height="407">
<path d="M276.848 406.822L0.539948 406.822L0.539948 0.00799561L276.848 0.00799561L276.848 406.822Z" fill="white"/>
</mask>
<g mask="url(#mask0_49_18)">
<path d="M181.235 234.732C304.272 52.5106 23.1406 -3.72202 10.0536 157.331C9.55585 186.788 56.6268 207.39 119.506 172.261C119.506 172.261 36.7917 198.545 34.6567 161.388C32.599 124.721 105.844 71.084 148.224 105.646C235.629 176.406 122.061 262.085 93.2547 302.329C59.7575 283.745 35.1545 224.35 35.1545 224.35C28.8931 277.496 115.8 364.233 115.8 364.233C109.461 306.953 145.591 288.369 181.235 234.732ZM193.735 238.877C155.061 287.878 107.901 332.747 130.458 406.582C120.491 318.874 276.45 255.836 275.952 129.912C275.465 65.8926 215.219 0.902252 140.326 0.902252C65.4325 0.902252 2.64178 42.6841 -0.488892 114.982C101.076 -43.4753 321.463 77.824 193.735 238.877Z" fill="#5DC4FF"/>
</g>
</svg>
